<?xml version="1.0" standalone="no"?>
<!DOCTYPE svg PUBLIC "-//W3C//DTD SVG 1.1//EN" "http://www.w3.org/Graphics/SVG/1.1/DTD/svg11.dtd" >
<svg xmlns="http://www.w3.org/2000/svg">
<metadata></metadata>
<defs>
<font id="BelloScriptRegular" horiz-adv-x="899" >
<font-face units-per-em="2048" ascent="1536" descent="-512" />
<missing-glyph horiz-adv-x="450" />
<glyph horiz-adv-x="0" />
<glyph unicode="&#xd;" horiz-adv-x="303" />
<glyph unicode=" "  horiz-adv-x="450" />
<glyph unicode="&#x09;" horiz-adv-x="450" />
<glyph unicode="&#xa0;" horiz-adv-x="450" />
<glyph unicode="!" horiz-adv-x="1024" d="M297 140q0 25 11.5 49.5t31.5 46.5t46.5 41t56 33t60 22t58.5 8t46.5 -6t29.5 -17t16 -27t5 -38q0 -30 -7 -62t-19.5 -63t-30 -58t-39 -48t-46.5 -33t-53 -12q-33 0 -63 14t-53 37t-37 53q-13 30 -13 60zM475 645q0 22 2 54t6.5 70.5t10.5 82t14 90t18 93.5t23 93 q-12 30 -18.5 63t-6.5 65q0 26 12 53.5t32.5 53t48.5 48.5t61.5 40t70.5 26.5t75 9.5q32 0 54 -6.5t35 -18.5t19 -30t6 -42q0 -20 -6 -49t-19.5 -67t-33.5 -82q-19 -44 -47 -94q-24 -71 -46.5 -143.5t-43 -149.5t-39.5 -160t-39 -176q-8 -4 -23 -8.5t-31 -4.5 q-32 0 -57 16.5t-42.5 43t-26.5 60.5t-9 69z" />
<glyph unicode="&#x22;" horiz-adv-x="1116" d="M320 766q34 119 50.5 230.5t16.5 209.5q0 29 -1 60t-7 65q14 40 47 61t90 21q46 0 78.5 -12.5t53 -32t29.5 -44t9 -50.5q0 -28 -7 -66.5t-20.5 -82t-32 -90.5t-41.5 -93.5t-49 -91.5q-24 -44 -52 -82q-17 -23 -42.5 -36t-48.5 -13q-35 0 -51 12.5t-22 34.5zM817 766 q17 59 33 123.5t28 127.5t19.5 122t7.5 108q0 30 -1 60.5t-7 64.5q14 40 47 61t90 21q46 0 75.5 -15.5t46.5 -39t23.5 -51.5t6.5 -54q0 -28 -7.5 -68t-21 -85t-32.5 -95t-42 -99t-49 -95t-53 -84q-17 -23 -42 -36t-48 -13q-18 0 -30.5 3.5t-21 9.5t-14 15t-8.5 19z" />
<glyph unicode="#" horiz-adv-x="1059" d="M133 400q0 22 7 38t25.5 28t51.5 19t84 9q6 24 10 45t8.5 40t8.5 39t8 44l-129 -6q-6 6 -11.5 18t-5.5 22q0 16 7.5 32t27 30t53 24t86.5 14q12 74 26 154t24 156q11 6 25 9t28 3q26 0 46.5 -10t35.5 -29.5t23 -46.5t8 -61q0 -16 -3 -35t-6 -40t-7.5 -42.5t-8.5 -40.5 l111 11q8 39 14 74t11 69.5t8 69.5t3 73q12 10 32 15t42 5q28 0 51 -8t40 -23.5t26.5 -39t9.5 -53.5q0 -14 -3 -33t-7.5 -39t-10.5 -42t-10 -42q45 9 79.5 19.5t62.5 23.5q22 -10 35.5 -28.5t13.5 -51.5q0 -54 -56 -87q-55 -32 -175 -42l-46 -148q22 2 40 5t34.5 6t32 7.5 t33.5 10.5q19 -12 25.5 -29.5t6.5 -35.5q0 -24 -10 -45.5t-36 -37t-68 -24.5t-104 -10q-12 -46 -20.5 -80.5t-14.5 -65t-9.5 -60t-5.5 -63.5q-8 -9 -19 -14.5t-28 -5.5q-20 0 -37.5 8t-30.5 23t-20.5 35t-7.5 45q0 17 1.5 34t4.5 37t7 43t10 51l-144 -8q-12 -46 -19.5 -78.5 t-13 -58t-8.5 -47t-4 -45.5q-8 -6 -19 -11.5t-28 -5.5q-18 0 -33.5 7t-27 21t-18.5 34t-7 48q0 22 6 54t16 78h-118q-9 6 -14 18t-5 24zM467 508l135 8l41 160l-131 -4z" />
<glyph unicode="$" horiz-adv-x="846" d="M72 200q0 40 13 75t36.5 60t56.5 39.5t72 14.5q4 -23 14 -48t24 -49t32 -45t38 -37.5t42 -25.5q20 -10 42 -10q8 0 18 2.5t18 8t14 14.5t6 22q0 26 -15 59.5t-38 71.5t-49 79.5t-48.5 86t-37.5 90.5q-15 44 -15 90q0 52 15.5 102t48.5 92t86 72q53 32 129 42 q28 103 40 166.5t14 93.5q14 8 35 12t37 4q23 0 42.5 -7t33.5 -20t21.5 -31t7.5 -40q0 -14 -3.5 -32t-10.5 -40t-17 -50t-26 -62q59 -16 91.5 -53t32.5 -89q0 -34 -12 -64t-32 -48q-14 6 -34 11t-41 9t-42 6t-39 2q-52 0 -75 -20q-23 -22 -23 -60q0 -22 16 -50t40 -61.5 t52 -70.5t52 -76t40 -79.5t16 -80.5q0 -50 -13 -92t-35.5 -76t-53.5 -60t-67 -45.5t-75.5 -32t-78.5 -19.5q-4 -30 -6 -59.5t-2 -57.5q0 -46 6.5 -94t20.5 -94q-10 -22 -32 -34t-52 -12q-38 0 -64 12t-43 33t-24 50t-7 63q0 42 6 90.5t19 108.5q-44 10 -83.5 30t-69.5 50.5 t-47 70.5t-17 92z" />
<glyph unicode="%" horiz-adv-x="1431" d="M172 666q0 54 12 107t32 102.5t47 92t58 74.5t65 50t66 18q11 0 21.5 -2t20.5 -8q11 12 26.5 19t42.5 7q20 0 38 -9t34 -26t29.5 -39t23.5 -48q26 0 60.5 1t72 3t75.5 5t72 6t60 7t41 8q18 68 37.5 112t39 70t38.5 37q18 11 36 11q30 0 56 -14t44.5 -35t29 -47t10.5 -52 q0 -66 -44 -156t-133 -208.5t-225 -269t-321 -338.5q-42 -43 -69 -75.5t-43.5 -58.5t-22.5 -51t-6 -53q0 -12 1 -26t3 -24q-4 -14 -12.5 -23.5t-19.5 -16t-24 -9.5t-26 -3q-28 0 -49 10t-34.5 27.5t-20.5 40.5q-7 22 -7 48q0 23 3.5 44.5t13 43.5t25 46t38.5 54t54 65.5 t73 80.5q46 50 94 102t96 105t93 105t85 102t74 96.5t58 87.5q-23 -4 -60 -8t-79.5 -6t-86.5 -4t-80 -2q-2 -67 -16 -125.5t-37.5 -107t-54 -86.5t-65.5 -64t-72 -39.5t-74 -13.5q-58 0 -99.5 20.5t-67.5 56t-38 82.5t-12 101zM372 700q0 -22 5.5 -38t14.5 -27t20.5 -17 t23.5 -6q18 0 31 15t21 39t12 54t4 62v16t-1 23t-2 27q-1 12 -1 24q-5 6 -10.5 16t-10.5 21t-8 23l-6 24q-14 -21 -30 -50.5t-30 -63.5t-23.5 -71t-9.5 -71zM792 -64q0 47 12 97t33 96.5t48 88.5t58 73t63 49t63 18q8 0 20.5 -3t20.5 -7q14 14 32.5 21.5t43.5 7.5 q27 0 51.5 -17t43.5 -48.5t30.5 -77t11.5 -101.5q0 -66 -12.5 -123t-34 -103.5t-51 -82t-64 -60t-72 -36.5t-75.5 -12q-110 0 -166 56t-56 164zM994 -30q0 -18 4 -31t10.5 -20t13.5 -10t12 -3q17 0 31.5 11t25.5 30t17 44.5t6 55.5q0 16 -1.5 36.5t-5 41t-9.5 38t-14 27.5 q-14 -13 -30 -36.5t-29.5 -53t-22 -63t-8.5 -67.5z" />
<glyph unicode="&#x26;" horiz-adv-x="1607" d="M30 194q0 58 16 114t52 116t93 126.5t139 145.5q-20 38 -36 80t-26 86t-15 88t-5 86q0 36 7 80.5t20.5 91t35 90.5t50.5 79t65.5 56t81.5 21q17 0 33 -8t22 -24q24 38 63.5 62t96.5 24q46 0 84.5 -18t65.5 -47.5t42 -68t15 -80.5q0 -38 -6 -74t-20.5 -75t-37 -82 t-55.5 -92.5t-77 -107.5t-99 -128q20 -34 43.5 -70.5t47.5 -71.5t49 -68t49 -60q36 42 67 87.5t57 91.5t46.5 91t33.5 84q-6 0 -15 -1t-19 -1.5l-20 -1t-18 -0.5q-16 0 -27 6t-18 15t-10.5 19.5t-3.5 20.5q0 28 9 52t25.5 44t39 36t49.5 26q24 10 58 20t74 19t85 17t91.5 14 t92 9t87.5 3q45 0 77 -6t52.5 -19t30.5 -35q10 -20 10 -52q0 -24 -8.5 -54t-22 -61t-31.5 -60.5t-37.5 -52.5t-39 -37t-36.5 -14q-10 0 -20.5 3.5t-18.5 12.5t-16 23q-6 14 -12 37q-16 4 -38.5 7.5t-46.5 6t-47.5 4t-39.5 2.5q-28 -72 -65 -143.5t-78.5 -138.5t-87 -128 t-89.5 -112q66 -86 118 -148t95 -105.5t79 -70.5t69 -42t65 -20t68 -5q28 0 61 7t65 17q18 -6 28 -23t10 -36q0 -35 -14 -66t-37 -57t-54.5 -47t-67 -35.5t-73.5 -22t-74 -7.5q-49 0 -90.5 5t-81 20t-80 44t-87.5 76t-103 116t-128 165q-46 -38 -95 -66t-97.5 -47t-95.5 -28 t-90 -9q-70 0 -126.5 20t-96 56.5t-60.5 88.5q-21 51 -21 115zM356 295q0 -17 4.5 -32t15 -27t28 -18.5t44.5 -6.5q16 0 36 4.5t40 11.5t39 17t33 20q-22 28 -43 56t-40 56t-37 58q-20 30 -38 64q-39 -56 -60.5 -107t-21.5 -96zM490 1140q0 -28 3.5 -58t11 -61.5t19.5 -62 t27 -57.5q70 97 104.5 165t34.5 110q0 16 -5 27t-16.5 20.5t-30.5 17.5q-18 9 -46 17q-30 11 -43 25t-13 38q-12 -18 -20 -40.5t-14 -46.5t-9 -48t-3 -46z" />
<glyph unicode="'" horiz-adv-x="604" d="M320 786q34 119 50.5 230.5t16.5 210.5q0 29 -1 60t-7 65q14 40 47 61t90 21q46 0 79 -16t55 -39t32 -51t10 -54q0 -42 -13 -98t-39 -121t-65 -133t-91 -134q-18 -23 -43 -35.5t-48 -12.5q-35 0 -51 12t-22 34z" />
<glyph unicode="(" horiz-adv-x="973" d="M328 144q0 114 18.5 227t52 221t79.5 207t101 185.5t116.5 157.5t125.5 121.5t128.5 78.5t125.5 28q48 0 68.5 -17t20.5 -47q0 -10 -2.5 -18.5t-8.5 -17.5q-88 -45 -160.5 -114t-131 -154.5t-102 -184.5t-72.5 -203.5t-44 -212t-15 -209.5q0 -164 38 -284t116 -190 q0 -24 -11 -45t-31 -36t-48 -24q-30 -9 -64 -9q-36 0 -72 12t-69 37.5t-62 67t-51 101.5t-34 140t-12 182z" />
<glyph unicode=")" horiz-adv-x="952" d="M4 -328q0 10 2 19t8 18q88 45 161 114t131 154.5t102 184t73 203.5t43 212t14 209q0 82 -9 153.5t-28.5 131.5t-48.5 108q-28 49 -67 83q1 24 12 44t31 35t48 24t62 9q36 0 72.5 -11.5t70 -37t62.5 -67t50.5 -101t34 -139.5t12.5 -182q0 -114 -19 -227.5t-52.5 -221 t-79.5 -207.5t-101 -186t-116.5 -157t-125.5 -122t-128.5 -78.5t-125.5 -27.5q-48 0 -68 17q-20 16 -20 46z" />
<glyph unicode="*" horiz-adv-x="1046" d="M318 1151q0 31 11 58t30 47t45 31q24 11 52 11q22 0 43 -8.5t45 -28t53 -49.5t67 -74q3 21 4.5 47.5t2.5 53.5t1 53v44q0 23 -2 53.5t-4 58.5q16 26 46 42q28 16 72 16q39 0 69.5 -13t50.5 -34t30 -48t10 -57q0 -40 -18 -101t-54 -149q24 9 53.5 21t58 25.5t53.5 27.5 t43 28q38 -14 58.5 -44t20.5 -68q0 -32 -16.5 -57t-50.5 -45.5t-86 -36t-126 -27.5q17 -32 33.5 -57t33.5 -46t36 -38t41 -31q4 -12 6 -25t2 -23q0 -28 -14 -53t-37 -43.5t-52 -29t-59 -10.5q-34 0 -62 15t-52 46t-46 79q-20 48 -42 116q-28 -32 -46.5 -55t-31 -43 t-21.5 -41t-16 -50q-16 -11 -35.5 -17t-40.5 -6q-28 0 -50.5 9t-38 25t-24 37t-8.5 46q0 27 10 51t31 50t54 55t79 65q-56 44 -101 69t-85 36q-12 17 -19 39t-7 53z" />
<glyph unicode="+" horiz-adv-x="1069" d="M180 393q0 23 11 45t34 39t61.5 29t92.5 16q36 2 67 4q32 2 62 4q8 39 14.5 84.5t11.5 89.5t8 84.5t3 69.5q12 16 34.5 23.5t48.5 7.5q28 0 53 -10.5t44 -31.5t30 -52t11 -72q0 -9 -2 -28t-6.5 -43t-11 -52t-13.5 -55q74 6 139.5 16.5t114.5 32.5q14 -4 25.5 -14 t18.5 -22t10 -26t3 -28q0 -37 -18 -66t-60 -50t-110 -34.5t-168 -19.5q-5 -22 -12 -48t-14.5 -54t-15.5 -56t-15 -53t-13 -47t-10 -37q-8 -8 -26 -13.5t-40 -5.5q-44 0 -71 37t-27 109q0 14 2 35t5 43.5t6.5 45t7.5 42.5q-34 0 -71.5 1t-73 2t-66.5 2q-32 1 -54 3 q-10 10 -15 25.5t-5 27.5z" />
<glyph unicode="," horiz-adv-x="796" d="M196 -250q0 18 7 39q37 20 71 44.5t60.5 51t42.5 52t16 45.5q0 17 -5 33.5t-17 32.5t-31.5 30t-48.5 26q-10 17 -13.5 35t-3.5 35q0 38 13 70.5t36 56.5t56 37.5t73 13.5q48 0 87.5 -19t67 -51t42.5 -74t15 -89q0 -57 -17.5 -112.5t-47 -106t-67 -93.5t-79 -74t-82.5 -49 t-78 -18q-48 0 -72.5 23t-24.5 61z" />
<glyph unicode="-" horiz-adv-x="946" d="M314 398q0 22 6 38.5t20 31t38.5 27t61.5 25.5q38 13 70 25t60.5 24t54 25.5t51.5 28.5t52 33q26 16 56 38q20 -1 40 -11.5t35 -28t24.5 -40t9.5 -46.5q0 -52 -31.5 -91.5t-96 -69.5t-164 -51.5t-235.5 -37.5q-12 4 -21 11.5t-16 18t-11 23.5t-4 27z" />
<glyph unicode="." horiz-adv-x="760" d="M276 170q0 38 18 69t48.5 53.5t70 35t81.5 12.5q36 0 62 -6.5t44 -18t27.5 -28t9.5 -35.5q0 -30 -6.5 -63t-19.5 -64.5t-30 -60.5t-39 -51t-47 -35t-53 -13q-37 0 -67.5 16.5t-52.5 45t-34 66t-12 77.5z" />
<glyph unicode="/" horiz-adv-x="1106" d="M213 -94q0 24 2.5 47t11.5 48t24 54.5t39.5 69t60 90.5t83.5 119q50 68 104 144t110 156.5t111.5 163t107 164.5t98.5 160t85 148q3 2 8.5 2h8.5q18 0 35.5 -9.5t32.5 -27t24 -43.5t9 -58q0 -26 -4 -51t-15 -54t-29 -64.5t-46.5 -81t-68.5 -102.5t-94.5 -130t-123.5 -164 t-156 -205q-48 -62 -83.5 -112t-61.5 -93t-44 -79.5t-29 -70t-16.5 -65.5t-7.5 -65q-8 -12 -23 -19q-14 -8 -38 -8q-28 0 -50 11.5t-36 30.5t-21.5 43.5t-7.5 50.5z" />
<glyph unicode="0" horiz-adv-x="839" d="M66 314q0 70 17 142t46.5 138.5t69 125t84.5 102.5t92 69t92 25q18 0 33.5 -5.5t29.5 -19.5q18 23 47 37t70 14q38 0 74.5 -20.5t65.5 -61.5t46 -102.5t17 -145.5q0 -100 -18 -184.5t-50.5 -154t-76.5 -123.5t-95.5 -90.5t-107.5 -55t-113 -18.5q-80 0 -140.5 21 t-101.5 63t-61 103t-20 141zM340 372q0 -35 8 -58t20 -37t26.5 -19.5t27.5 -5.5q30 0 57 19t47 52.5t32 78t12 94.5q0 28 -5.5 61t-15 64t-23.5 58t-30 44q-23 -18 -50.5 -52.5t-50.5 -80.5t-39 -101.5t-16 -116.5z" />
<glyph unicode="1" horiz-adv-x="598" d="M84 618q87 56 157.5 109t127.5 105t101 105t79 107q6 2 13 2h12q30 0 51 -12t36 -31t22 -43t7 -46q0 -15 -1.5 -30.5t-5 -33.5t-9.5 -40t-16 -51.5t-24 -67t-32 -87.5q-36 -98 -60.5 -183t-40 -157.5t-22.5 -133t-10 -110.5q-11 -18 -35 -28t-68 -10q-45 0 -83.5 13.5 t-66.5 36t-44 52.5t-16 60q0 18 3 39t10 47t19.5 58t30.5 74t42.5 95t56.5 119q-12 -14 -31.5 -27t-39 -23t-38 -16t-29.5 -6q-48 0 -72 28t-24 86z" />
<glyph unicode="2" horiz-adv-x="792" d="M26 94q0 37 6.5 66.5t24 56.5t49.5 53q32 28 82 58q94 56 157 101.5t100 85t53 75.5t16 72q0 44 -20 69q-22 25 -54 25q-16 0 -29 -11t-24.5 -37t-20 -69t-14.5 -107q-6 -4 -20 -8t-33 -4q-28 0 -51.5 9t-40.5 28t-26 48t-9 67q0 57 21 110t65 94t110 65.5t156 24.5 q76 0 130.5 -22t89 -59t51 -86t16.5 -103q0 -38 -7.5 -72.5t-27.5 -69t-52.5 -70.5t-82.5 -74.5t-119.5 -81t-161.5 -90.5q37 -22 64.5 -37.5t48.5 -24.5t39 -12.5t37 -3.5q23 0 63 16q40 18 96 50q22 -11 36 -37.5t14 -57.5q0 -30 -14.5 -60.5t-38.5 -58.5t-55.5 -51 t-66 -40.5t-69.5 -26.5q-36 -10 -66 -10q-26 0 -52 4t-54.5 13t-61 25t-70.5 39t-83 55t-101 74z" />
<glyph unicode="3" horiz-adv-x="794" d="M-47 -125q0 42 12 73.5t31.5 52.5t44.5 31.5t51 10.5q14 0 27 -3.5t25 -11.5q6 -40 23 -73.5t41.5 -57.5t54 -37.5t59.5 -13.5q42 0 67 20.5t25 57.5q0 29 -15 60.5t-50 65t-92 70t-143 74.5q0 42 15 77.5t40 62t60 41t76 14.5q25 0 49 -6q42 34 70 70.5t45 71t24 65 t7 53.5q0 22 -5 39.5t-15 30.5t-23 20t-29 7t-29 -11t-24.5 -37t-20 -69t-14.5 -107q-6 -4 -20 -8t-34 -4q-28 0 -51 9t-40 28t-26 47q-9 30 -9 68q0 57 23 110.5t68 96t113 68t158 25.5q76 0 131 -23t91 -61t53.5 -88t17.5 -104q0 -48 -14.5 -94t-48 -92t-87 -92 t-131.5 -93q53 -33 86.5 -68t52.5 -70.5t26 -71.5q7 -37 7 -71q0 -86 -30 -157.5t-86 -123t-134 -80.5t-174 -29q-76 0 -137 19t-104 52t-65.5 76t-22.5 90z" />
<glyph unicode="4" horiz-adv-x="880" d="M20 213q0 26 6 50.5t19 47.5t34.5 46t53.5 47q107 78 199.5 161t167.5 161.5t131.5 146t89.5 114.5q6 2 10.5 2h10.5q28 0 51 -9.5t40 -27t26 -42t9 -54.5q0 -22 -2 -46t-8.5 -53t-18 -66.5t-28.5 -86.5q-20 -57 -36.5 -110t-30 -104t-24.5 -101q-12 -51 -22 -101 q28 6 53.5 18t55.5 30q22 -11 36.5 -34.5t14.5 -53.5q0 -32 -13 -61.5t-37.5 -54t-61 -43.5t-82.5 -30q-6 -49 -10.5 -93.5t-8 -82t-5 -67.5t-1.5 -50q-11 -26 -35 -38.5t-70 -12.5q-44 0 -84.5 12.5t-72 35t-51 52t-19.5 62.5q0 15 2.5 32t7.5 40t14 55t21 76 q-80 23 -165 64.5t-161 101.5q-3 17 -4.5 34.5t-1.5 32.5zM270 307q18 -10 36 -19.5t36.5 -17.5t37.5 -16t40 -14q17 72 40 148t54 161q-28 -32 -54 -61t-54.5 -57.5t-62 -59t-73.5 -64.5z" />
<glyph unicode="5" horiz-adv-x="760" d="M-47 -125q0 42 12 73.5t31.5 52.5t44.5 31.5t51 10.5q14 0 26 -3q14 -4 26 -12q6 -40 23 -73.5t41.5 -57.5t54 -37.5t59.5 -13.5q42 0 67 20.5t25 57.5q0 29 -13 57t-37 56.5t-59.5 59.5t-81.5 65q-34 3 -57.5 8.5t-38 12.5t-21 16t-6.5 20q0 5 2 10q0 5 2 11 q26 73 48.5 152.5t41 157t32.5 147t22 120.5q6 37 11.5 59.5t13 35t18.5 16.5t27 4q10 0 25 -5t34 -12t41 -15t45 -15t46 -12t44 -5q24 0 54 2t60.5 5t60.5 8t54 10q12 -6 21 -16.5t16 -23.5t11 -27t4 -28q0 -43 -20 -83t-54 -71t-78.5 -49.5t-93.5 -18.5q-18 0 -36 2t-38 8 t-43 16q-23 8 -53 22q-6 -24 -14 -51t-17 -55t-19.5 -54t-19.5 -46q102 -42 171 -87t111 -94t60 -101t18 -106q0 -86 -30.5 -158t-87 -124t-134.5 -81t-174 -29q-76 0 -137 19t-104 52t-65.5 76t-22.5 90z" />
<glyph unicode="6" horiz-adv-x="819" d="M96 377q0 72 15 146t42.5 146.5t66 142t86.5 131t104 113t117 88.5t127 58q64 20 132 20q54 0 93 -8.5t64.5 -25t38 -38.5t12.5 -50q0 -18 -7 -32t-14 -20q-66 0 -120.5 -10t-99.5 -30t-81 -47t-67 -61.5t-58 -74t-51 -83.5q18 22 47 33t71 11q22 0 47 -6t49 -20.5 t45 -37.5t37 -55.5t26 -76.5t10 -98q0 -70 -17 -135t-47.5 -121t-71.5 -102.5t-89 -79t-101 -50.5q-52 -18 -106 -18q-149 0 -224.5 95.5t-75.5 295.5zM400 364q0 -35 5 -57.5t14 -35.5t21 -18t25 -5q16 0 29 8t23 25t15.5 43t5.5 61q0 33 -5 67.5t-15 68.5t-25 66.5 t-34 61.5q-26 -66 -42.5 -136.5t-16.5 -148.5z" />
<glyph unicode="7" horiz-adv-x="764" d="M70 -184q0 20 4.5 43t16 51t30.5 63t47.5 79.5t68 101t91.5 126.5t118 157t148 191q-32 6 -63.5 11t-61 8.5t-54.5 6t-43 2.5t-33 -9t-28 -27t-24 -46t-23 -68q-3 -2 -11.5 -3t-16.5 -1q-19 0 -38.5 9t-34.5 27t-24.5 44t-9.5 59q0 57 20.5 110t57.5 94t88 66t111 25 q46 0 94 -10.5t99.5 -23t105.5 -23.5t110 -11q12 -6 21.5 -16t16 -23t10 -27t3.5 -28q0 -32 -15 -70t-41.5 -83t-61 -96t-73 -109.5t-78.5 -125t-77 -140.5q-40 -82 -66 -152t-41.5 -132t-21.5 -117t-6 -105q-11 -26 -35 -39t-70 -13q-42 0 -79.5 20t-67 51.5t-46.5 71.5 q-17 41 -17 81z" />
<glyph unicode="8" horiz-adv-x="798" d="M28 219q0 46 15 90t45 89t77 93.5t111 102.5q-16 24 -30 51t-24.5 57t-17 62.5t-6.5 67.5q0 44 12 90t34 88.5t55 80t76.5 65.5t97 44t115.5 16q54 0 102 -18.5t84 -53.5t57 -85.5t21 -114.5q0 -58 -22 -109.5t-56 -90t-76 -60.5t-82 -22h-11t-15 2q54 -68 88 -120.5 t53.5 -95t27 -76.5t7.5 -65q0 -76 -28.5 -141.5t-81 -113.5t-127.5 -74.5t-169 -26.5q-78 0 -139.5 21.5t-104 58t-65.5 85t-23 103.5zM299 314q0 -40 9.5 -66t24.5 -41t32 -21t33 -6q12 0 22 4t18 12t12 21t4 31q0 20 -3.5 39.5t-15 44t-32.5 58.5t-55 81 q-13 -24 -22.5 -47.5t-15.5 -44.5t-8.5 -38t-2.5 -27zM465 903q0 -32 15.5 -76.5t55.5 -101.5q14 24 23.5 45.5t15 43t8.5 43t3 44.5q0 22 -5 41t-13 33.5t-20 23.5t-26 9q-24 0 -40 -27t-17 -78z" />
<glyph unicode="9" horiz-adv-x="801" d="M-86 -203q0 19 7 41t23 39q76 4 133.5 15t101 28.5t76.5 41.5t58.5 53t46.5 63q22 36 42 74q-76 0 -136 21t-100.5 59t-62 90t-21.5 114q0 70 17 135t47 121t71 102t89 79t101 51t107 18q67 0 120 -24.5t90.5 -73.5t57 -122.5t19.5 -170.5q0 -100 -18 -192.5t-50 -176 t-75.5 -156.5t-94.5 -134t-107 -109t-113 -81.5t-113 -50.5t-107 -17q-50 0 -88.5 11.5t-65.5 33t-41 51.5t-14 67zM370 547q0 -29 5 -57t17 -55t31 -53t46 -52q13 37 21.5 72.5t13 67.5t6.5 59t2 47q0 32 -5 57t-13 43t-19 27t-25 9q-16 0 -30 -12.5t-25 -34.5t-18 -52.5 t-7 -65.5z" />
<glyph unicode=":" horiz-adv-x="907" d="M303 170q0 38 8.5 69t26 53.5t43 35t59.5 12.5q30 0 58 -10t52.5 -25.5t44.5 -35t34.5 -40.5t22.5 -40t8 -33q0 -20 -7 -42.5t-19 -44t-29 -40.5t-38 -33t-45.5 -22.5t-52.5 -8.5q-37 0 -67.5 16.5t-52.5 45t-34 66t-12 77.5zM471 710q0 32 8.5 58t26.5 45t47 29t71 10 t74 -11.5t53 -31t32 -45.5t11 -54q0 -56 -13 -101t-35 -76.5t-50 -48.5t-59 -17q-24 0 -46.5 10.5t-40.5 28.5t-33 42t-25 51t-15.5 56t-5.5 55z" />
<glyph unicode="&#x3c;" horiz-adv-x="952" d="M168 383q0 30 15 57t43 51t69 44q41 21 92 35q114 74 226.5 170t226.5 216q18 -2 32 -11t24 -22t15 -29.5t5 -33.5q0 -33 -15 -73.5t-51.5 -88.5t-98 -105t-155.5 -124q57 -48 95.5 -89.5t61.5 -79.5t33 -73t10 -67q0 -35 -11 -68t-30.5 -57.5t-45 -39.5t-53.5 -15 q-18 0 -34 6q-8 21 -19 41.5t-26.5 43.5t-37 50t-53 60t-73 73t-95.5 90q-24 -4 -47 -7t-45 -3q-28 0 -43 12t-15 37z" />
<glyph unicode="=" horiz-adv-x="1069" d="M170 198q0 23 9 44.5t29 38.5t53 28.5t81 14.5q78 6 138 9t106.5 6.5t83 7t67.5 9.5t60 15t59 22q31 -8 47.5 -31t16.5 -57q0 -48 -25 -82t-75 -55.5t-123 -32t-171 -10.5q-21 0 -48 1t-57.5 3t-62.5 4t-62.5 4.5t-57.5 4.5q-28 2 -48 4q-6 4 -9 10.5t-6 14t-4 14.5 t-1 13zM211 606q0 23 10.5 44t33.5 37.5t60 28t89 15.5q78 6 139 9.5t110 6.5t88 7t73 10t63.5 15t60.5 22q31 -8 48 -31q16 -24 16 -58q0 -48 -28.5 -82t-82 -55.5t-130 -32t-173.5 -10.5q-21 0 -50 1t-61.5 3t-67.5 4t-67.5 5t-61 5t-48.5 3q-6 4 -10 10.5t-6 14.5 t-3.5 15t-1.5 13z" />
<glyph unicode="&#x3e;" horiz-adv-x="952" d="M144 45q0 33 14.5 73t51 88.5t98.5 106t155 123.5q-57 48 -95.5 90t-62 80t-33.5 72t-10 68q0 36 11.5 68t31 57t45.5 40t54 15q8 0 16 -2l16 -4q9 -21 19.5 -42t26.5 -44t38 -49.5t53 -59.5t72.5 -73.5t96.5 -90.5q23 5 45.5 8t46.5 3q28 0 42.5 -12.5t14.5 -37.5 q0 -29 -15 -56.5t-43.5 -51.5t-68.5 -44t-92 -34q-114 -74 -227 -170t-226 -217q-18 2 -32.5 11t-23.5 22.5t-14 29.5t-5 33z" />
<glyph unicode="?" horiz-adv-x="1024" d="M299 154q0 33 17.5 66t47.5 59.5t69 43.5t83 17q36 0 60.5 -8t40 -23t23 -36t7.5 -47q0 -54 -9.5 -100t-27.5 -80t-44 -53t-60 -19q-37 0 -74 12.5t-66.5 36t-47.5 57.5q-19 34 -19 74zM454 614q0 24 7.5 47t27 47t53.5 51t86 62q50 34 87 59.5t63 46.5t42 37t25 31 t12 29t3 30q0 12 -5 25.5t-19 24t-40 17.5t-67 7q-14 0 -32.5 -0.5t-38.5 -2t-42 -4t-42 -5.5q-16 8 -27 20t-18.5 27t-11 32t-3.5 34q0 48 19 92.5t55.5 77.5t89.5 53q52 20 120 20q52 0 99 -12.5t88.5 -35.5t75 -55t58 -70.5t38 -82.5t13.5 -92q0 -34 -6 -62t-24 -57 t-49 -61t-81 -72.5t-121.5 -92.5t-169.5 -121q-8 -25 -11.5 -51.5t-3.5 -57.5q0 -29 6 -67q-5 -8 -13.5 -16t-20.5 -13.5t-28 -9t-38 -3.5q-32 0 -60 14t-49.5 37.5t-34 55t-12.5 67.5z" />
<glyph unicode="@" horiz-adv-x="1929" d="M246 217q0 111 22 220t62 212.5t97 198t127 177t152 149.5t171.5 114.5t186 73.5t196.5 26q144 0 255.5 -39t188.5 -112.5t117.5 -180t40.5 -241.5q0 -64 -15 -133t-42 -138t-64.5 -135.5t-83 -126.5t-98 -111t-109 -88t-115.5 -58t-119 -21q-30 0 -56 8t-44 26.5 t-28.5 49.5t-10.5 78q0 14 1.5 31t3.5 31q-22 -63 -49 -105t-55 -67.5t-56 -35.5t-52 -10q-39 0 -73 19t-59 53.5t-39.5 85t-14.5 112.5q0 44 9 91t26 95t41 94.5t53 88.5t62 77.5t70 61.5t75 41t78 15q20 0 36 -4q15 -2 21 -10l13 136q6 6 15.5 11t21 8t22.5 4.5t18 1.5 q30 0 57.5 -6.5t53.5 -18t47 -26.5t36.5 -31.5t24 -33.5t8.5 -33q0 -18 -5 -45t-17 -66q-28 -86 -46.5 -153.5t-30 -118.5t-16.5 -85q-5 -32 -5 -50q0 -14 4 -23t10 -13t13 -6t11 -2q20 0 46 18t52.5 50t51.5 76.5t44.5 98t31.5 115.5t12 128q0 89 -27.5 163t-80 127 t-128.5 82.5t-174 29.5q-78 0 -150 -21.5t-137 -59.5t-122.5 -90.5t-106 -114.5t-86.5 -132.5t-64 -144t-40 -147.5t-14 -144q0 -130 30 -231t88 -169t142 -104t192 -36q45 0 89.5 9t88.5 28t90 50q44 31 92 75q31 -6 47.5 -25t16.5 -46q0 -33 -20 -71.5t-55 -77t-84 -74.5 t-107 -64t-122.5 -45t-131.5 -17q-96 0 -179 23t-150.5 66t-119.5 104.5t-87.5 139t-53.5 170.5t-18 198zM985 358q0 -20 2.5 -32t8 -19.5t13 -10.5t17.5 -3q18 0 34 9q16 10 28 28l59 380q-34 -22 -64 -60t-51.5 -85t-34 -100t-12.5 -107z" />
<glyph unicode="A" horiz-adv-x="1741" d="M20 196q0 42 9.5 81t27 74t41.5 64t54 49.5t65 32t74 11.5q43 0 70.5 -17t38.5 -53q43 1 87.5 2.5t91.5 3.5t97 5t106 5q30 39 67.5 91t80.5 113t90.5 129.5t98 141.5t103 148.5t103.5 149.5q14 59 40.5 111.5t65 92t89.5 62.5q50 23 114 23q42 0 73.5 -12.5t53 -32 t33.5 -43.5q12 -26 14 -50q0 -16 -7.5 -30.5t-29 -34.5t-59.5 -47t-98 -66q-11 -56 -19.5 -123.5t-15.5 -139.5t-12 -145q-5 -72 -9 -140q37 -6 58.5 -30t21.5 -69q0 -22 -6 -44t-18 -43.5t-28 -41t-36 -35.5q0 -33 1 -58t3.5 -42t9 -26t17.5 -9q10 0 36.5 12.5t65 43 t87 81.5t102.5 127h8q14 0 28 -5t25 -14t18 -21q7 -14 7 -28q0 -26 -16 -61t-44 -75t-66 -82.5t-81 -83t-90.5 -76.5t-94 -63.5t-90.5 -43.5t-82 -16q-48 0 -82 10.5t-55.5 32.5t-32 54.5t-10.5 76.5v43.5t1 40.5t2 47t3 64q-33 -3 -73.5 -6.5t-83.5 -6t-87 -5t-83 -3.5 q-58 -83 -108.5 -147t-96.5 -112t-89.5 -80.5t-86 -53t-85.5 -29t-89 -8.5q-74 0 -133 22t-100 64.5t-63 103.5t-22 139zM340 234q0 -24 6 -43t16 -31t24.5 -17.5t31.5 -5.5q26 0 49.5 7.5t49 24t55.5 44.5q29 27 65 69q-44 -2 -83 -2t-74.5 -1t-68.5 -1h-65q-3 -11 -4 -24 q-2 -12 -2 -20zM1024 471q26 2 54 3.5t56.5 3.5t54.5 5t46 5q2 26 5.5 62t8 76.5t9.5 84t10.5 85t11.5 79t12 67.5q-17 -32 -38.5 -71t-45.5 -82t-50 -88t-50 -86.5t-45.5 -78.5t-38.5 -65z" />
<glyph unicode="B" horiz-adv-x="1413" d="M62 1073q0 58 24 113t70 104.5t111 91.5t148 72.5t180.5 48t207.5 17.5q150 0 258 -29.5t177 -82t101.5 -125.5t32.5 -161q0 -50 -16.5 -105t-48 -113.5t-77.5 -117.5q-46 -60 -104 -116q50 -26 89 -56.5t66.5 -61.5t46 -62.5t29.5 -61.5t15 -57t4 -49q0 -82 -27 -150.5 t-81.5 -118.5t-137 -78t-194.5 -28q-54 0 -106 8t-108 27.5t-119.5 53t-139.5 83.5q-32 -26 -57 -44.5t-45.5 -30.5t-38.5 -18q-20 -6 -38 -6q-19 0 -42 15t-43.5 42t-33.5 65t-13 86q0 29 13.5 48t42 31.5t72 19.5t103.5 13q26 54 50.5 119.5t48.5 137.5t45 148.5t39 153.5 t33 152t25 143q-66 -8 -131 -24t-121 -43t-102 -67t-74 -98q-9 -4 -21.5 -7t-24.5 -3q-21 0 -37.5 9t-27.5 24.5t-17 38t-6 49.5zM584 295q61 -21 120 -40t112 -34t96.5 -24t72.5 -9q20 0 36.5 6t28.5 17t19.5 27t7.5 36q0 40 -18.5 77t-60.5 74t-110 75t-169 82 q-22 -76 -54.5 -147.5t-80.5 -139.5zM762 725q34 6 86 6q23 0 48.5 -1.5t49.5 -4.5q26 40 44 81t30.5 79t18 72t5.5 61q0 34 -9 62.5t-30.5 51t-57 39t-87.5 25.5q-13 -78 -25.5 -145t-25 -125t-24 -108t-23.5 -93z" />
<glyph unicode="C" horiz-adv-x="1044" d="M86 406q0 96 19 193t52 191.5t80 183t103 166t119 142t130 110.5t136 71.5t135 25.5q76 0 130 -18.5t88.5 -54.5t50.5 -87t16 -117q0 -48 -9.5 -95.5t-27 -91t-42 -81.5t-54.5 -66.5t-64 -44.5t-70 -16q-19 0 -33 2.5t-24 7t-17 11.5q-8 7 -12 16q8 20 15.5 43.5t13 49 t10 51t7.5 48t4.5 41t1.5 29.5q0 36 -5 60t-14.5 40t-22 22.5t-28.5 6.5q-21 0 -46.5 -17.5t-52.5 -49.5t-55 -76.5t-54 -98t-48.5 -114.5t-39 -126.5t-26.5 -133t-10 -133.5q0 -73 12 -127.5t39 -91t71.5 -54.5t111.5 -18q64 0 133.5 23.5t137 66.5t128.5 102t107 129 q16 0 30 -3t24.5 -11t17 -20t6.5 -31q0 -29 -17 -68.5t-48 -84t-75 -91.5t-96 -92t-112 -85t-125 -69.5t-132.5 -47t-134.5 -17.5q-102 0 -183 32t-137 95.5t-85 157t-29 215.5z" />
<glyph unicode="D" horiz-adv-x="1491" d="M49 1180q0 34 14.5 71t44.5 74t75 71t106 60t139 42t172 16q141 0 259.5 -31t213.5 -86t166.5 -133t120 -173t72.5 -204t24 -227q0 -92 -19 -180.5t-55 -167t-89.5 -143.5t-123 -112t-154.5 -73.5t-185 -26.5q-47 0 -96.5 7.5t-104.5 22.5t-115 39t-127 56 q-30 -24 -56.5 -41t-49.5 -27.5t-44 -15t-41 -4.5q-23 0 -42.5 10t-35.5 27.5t-28 40t-20 46.5t-12.5 49t-4.5 46q0 19 5.5 37t17.5 31.5t30 22t42 8.5q19 0 37 -1t38 -3t43 -4q24 -2 52 -5q18 34 37 80.5t38.5 101t39 116t38.5 124.5t37 127t33.5 123.5t28 113t22.5 97.5 q-12 2 -20.5 2.5t-17.5 1t-19.5 0.5h-24.5q-52 0 -98 -6.5t-89 -21.5t-85 -39.5t-88 -59.5q-24 0 -43 9.5t-32 26t-19 38.5q-7 23 -7 47zM547 248q49 -14 90 -25t76 -18t66 -11t61 -4q52 0 93.5 15t74 42t56 64.5t39 82t22.5 95.5t7 105q0 76 -18 150t-56 141.5t-94 125 t-132 99.5q-19 -94 -41.5 -184.5t-47 -174t-50 -158.5t-50.5 -139.5t-49.5 -116.5t-46.5 -89z" />
<glyph unicode="E" horiz-adv-x="1052" d="M70 246q0 54 19 112t59 114t100 106t141 90q-22 24 -41 54t-32.5 66t-21.5 78q-8 40 -8 86q0 65 19 130.5t53 125t81.5 111t105 89.5t123.5 59.5t137 21.5q72 0 123.5 -16.5t85.5 -47.5t50 -76.5t16 -103.5q0 -76 -21.5 -132.5t-56 -93.5t-77.5 -55t-85 -18q-34 0 -51 11 t-23 26q20 42 30.5 82.5t10.5 81.5q0 29 -4.5 49t-12.5 32t-19 18t-23 6q-18 0 -37 -12t-37 -32t-33 -49t-26.5 -62.5t-18 -71t-6.5 -77.5q0 -27 3 -54.5t8 -54.5t11 -51t14 -44q17 4 37.5 7t41.5 5t40 3t33 1q30 0 49 -4t30 -11t15 -16t4 -21q0 -44 -16 -85t-44 -74 t-63 -52.5t-73 -19.5q-14 0 -31.5 4t-36 11.5t-36.5 17.5t-34 22q-20 -22 -37 -48t-29 -53t-19 -53t-7 -48q0 -38 11 -69t32.5 -53t55 -34t77.5 -12q48 0 101 14.5t106 40t105 60.5t99 75t87 85t70 89q16 0 30 -3t25 -11t17 -20t6 -31q0 -24 -16 -62t-46.5 -82.5 t-73.5 -93.5t-97 -97t-117.5 -90.5t-133.5 -75t-147 -51.5t-157 -19q-96 0 -173 26t-130.5 73t-82 112.5t-28.5 144.5z" />
<glyph unicode="F" horiz-adv-x="1341" d="M28 1067q0 58 13 112.5t38 104t63 91t87.5 71.5t111 47t134.5 17q38 0 71 -1t69.5 -5t80.5 -10t102 -18q129 -23 230.5 -39.5t181.5 -28.5t143 -19.5t117 -12t102 -6.5t97 -2q6 -6 10.5 -15t7.5 -20t5 -22t2 -21q0 -48 -22 -88t-60 -68t-88.5 -43.5t-108.5 -15.5 q-26 0 -58.5 2t-67.5 6.5t-71 11.5t-71 17q-12 -34 -21 -67.5t-17 -69t-15.5 -75.5t-16.5 -89q25 -3 47 -7q22 -3 42 -3q38 1 68 3.5t56 6.5t48 9.5t42 11.5q7 -6 13.5 -15t12 -20t8.5 -23t3 -22q0 -50 -18 -88t-50.5 -63t-76.5 -37.5t-96 -12.5q-21 0 -46 3q-24 2 -44 6 q-24 4 -50 10q-2 -8 -6 -28t-10 -45t-12.5 -52.5t-12 -52t-10.5 -43.5t-6 -25q-20 -91 -49 -173.5t-66.5 -152.5t-83.5 -126.5t-101 -96t-118.5 -61t-136.5 -21.5q-77 0 -135.5 20.5t-98 58.5t-60 92t-20.5 122q0 38 10 78.5t34 86t65.5 96.5t106 110t155 128t211.5 150 q-26 22 -40.5 51.5t-14.5 61.5q0 26 13 50t42 40q14 8 32 11t40 5q10 44 23 82.5t29 76.5t36 77q20 40 45 84q-82 26 -150.5 43.5t-127 28t-107 15.5t-90.5 5q-83 0 -122.5 -39t-39.5 -111q0 -30 9.5 -61t32 -62t58.5 -61t88 -62q0 -28 -10 -53t-31 -44t-52 -30.5t-73 -11.5 q-31 0 -61.5 12t-59 34t-53 52.5t-42 68t-28 80.5t-10.5 89zM370 14q0 -32 6 -53.5t16 -35t24 -19.5t30 -6q28 0 57 31.5t57 96t55 161.5t51 229q-88 -82 -145.5 -145t-91 -111t-46.5 -84t-13 -64z" />
<glyph unicode="G" horiz-adv-x="1179" d="M92 -72q0 34 8.5 65t25 57t42.5 46t60 33q-53 54 -79 134.5t-26 180.5q0 99 20.5 197.5t56.5 190.5t86.5 177.5t110 159.5t127 134.5t138 103.5t141.5 66.5t139 23.5t116 -18.5t77.5 -51.5t42.5 -79q14 -44 14 -98q0 -46 -8.5 -89t-24 -81t-37.5 -70t-48 -54.5t-56 -35 t-62 -12.5q-30 0 -53 9t-33 27q6 18 13 44t13 54t10 56t4 51q0 30 -3.5 49.5t-10 31.5t-16.5 17t-24 5q-29 0 -62.5 -18t-68 -50t-69 -76t-65.5 -97.5t-58.5 -114t-47 -124t-31.5 -129t-12 -129.5q0 -50 12.5 -88t35 -63t54.5 -37t70 -12q40 0 87 11t93 33q4 66 6.5 118 t7 92t12 68t23 46t39.5 26.5t62 8.5q42 0 83 -6.5t72.5 -20t50.5 -32.5q20 -20 20 -44t-6 -49.5t-17 -54t-27 -61.5t-34 -72l-9 -105q-2 -60 -7.5 -122t-18 -124t-32 -121t-47.5 -112t-65 -97t-86 -76t-109 -50t-134 -18q-70 0 -133.5 12t-117.5 36t-97.5 57t-74 75 t-47.5 92q-16 48 -16 104zM354 53q26 -55 59.5 -101t72.5 -78t82.5 -50t91.5 -18q38 0 61.5 12t37 35t19.5 54.5t8 70.5v48v34q0 44 2 90q-34 -26 -72 -47.5t-77.5 -36.5t-80 -23t-79.5 -8q-71 0 -125 18z" />
<glyph unicode="H" horiz-adv-x="1786" d="M58 221q0 70 22 125.5t72 95.5t132 64t202 34q48 4 92 7.5t87 6t86 5.5t89 6q8 36 15 82.5t14 99t14 107t12 104.5t7.5 93t2.5 71q0 33 -11.5 64.5t-25.5 63.5t-25 65t-11 69q0 37 10 67t27 53.5t40 40t50 27.5t55.5 16.5t56.5 5.5q38 0 68.5 -19t53 -60t34.5 -108 t12 -164q0 -42 -3.5 -94.5t-9.5 -109.5t-15 -116t-18.5 -115t-20.5 -106q-10 -52 -21 -92q21 4 44.5 9.5t47.5 11t47 12.5t43 15q28 162 57 286t60.5 216t66.5 155t75 101t86 54.5t100 16.5q43 0 79.5 -12t62.5 -34.5t41 -54.5t15 -73q0 -13 -3 -27t-8.5 -27t-12.5 -25 q-8 -12 -16 -20q-42 -4 -74 -10t-56 -20.5t-43 -39t-36 -65.5t-34 -100t-38 -141q18 -8 31.5 -21t21.5 -28t12 -31t4 -31q0 -34 -11 -65.5t-29 -58.5t-40 -48t-44 -37q-8 -46 -16 -88.5t-13.5 -78t-9 -61.5t-3.5 -40q0 -16 2 -26.5t5 -16.5t9 -8.5t13 -2.5q12 0 43.5 18 t75.5 56t100 99t117 147q16 0 30 -4.5t25.5 -13t18 -21.5t6.5 -29q0 -26 -16 -62t-44.5 -78t-67.5 -87.5t-85 -89t-97 -82.5t-103 -69t-104 -47t-100 -17q-35 0 -62 9t-45.5 28t-28 49t-9.5 72q0 22 3.5 59t10.5 86t17 106t22 117q-16 -4 -39.5 -9t-52 -10t-59.5 -9t-61 -8 q-32 -79 -73 -152.5t-88 -136.5t-101 -115t-115 -89.5t-127 -58.5q-68 -20 -140 -20q-54 0 -103 13.5t-91 38t-76.5 59.5t-59 78t-37.5 93t-13 105zM370 262q0 -20 8 -40.5t20.5 -39t30 -34.5t37 -27t41 -18t42.5 -7q36 0 69.5 20.5t62.5 56t55 83.5q26 46 46 102 q-39 -4 -71.5 -6.5t-62.5 -5t-61.5 -4.5t-68.5 -4q-42 -2 -70 -8t-45 -16t-25 -23t-8 -29z" />
<glyph unicode="I" horiz-adv-x="1030" d="M30 60q0 40 19 70t61.5 51.5t113.5 35.5q70 15 174 23q28 100 57 217t58 241t57 252t54 252q-70 12 -140 25t-138 20q-9 12 -13.5 28t-4.5 33q0 32 12.5 58t40 45t71.5 29t105 10q57 0 105 -0.5t90 -1t80 -1.5t76 -1q36 0 67 2t62 7t61.5 13t62.5 19q17 -8 31 -21.5 t25 -30.5t16.5 -36t5.5 -41q0 -51 -20.5 -90t-57.5 -65.5t-89 -40t-116 -13.5q-40 -178 -74 -319.5t-62 -251.5t-50 -190t-41 -136q62 0 118.5 -1.5t114.5 -4.5q14 -19 22 -45q7 -25 7 -49q0 -49 -21.5 -82t-63.5 -52.5t-104 -27.5t-142 -8q-42 0 -82 1t-81 2.5t-86 3.5 t-99 3.5t-118 3.5t-143 2q-9 9 -15 25.5t-6 36.5z" />
<glyph unicode="J" horiz-adv-x="1470" d="M41 112q0 87 21.5 149t57.5 101.5t82 57.5t93 18q24 0 41.5 -9t28.5 -24.5t16.5 -37t5.5 -45.5q37 -16 83 -33t96.5 -32t103 -28t100.5 -23t91 -17t75 -9q19 50 38 110t36.5 124t34.5 131t31 132.5t25.5 127.5t20 116.5t12.5 98.5t4 74q0 31 -7 49t-27 18 q-31 0 -62.5 -26.5t-61 -69.5t-56 -99t-47.5 -114t-36 -113.5t-22 -99.5q-20 -8 -38.5 -11.5t-34.5 -3.5q-35 0 -63.5 15t-48 41t-30 63t-10.5 83q0 44 12.5 96t36 106t57 108.5t76 104.5t92.5 93.5t106 75.5t118 50t128 18q72 0 125 -19.5t88 -60t51.5 -101.5t16.5 -144 q0 -42 -5 -94t-13.5 -111t-21 -122.5t-27.5 -128.5t-31.5 -130t-34.5 -125t-36 -115t-36 -99q42 20 82 47t78.5 62t75 79t72.5 100q14 0 27.5 -4.5t24 -13t16.5 -20.5t6 -28q0 -28 -15 -64t-43 -75t-68 -80.5t-92 -81t-115 -76t-135 -65.5q-54 -106 -118 -184t-138 -129 t-160 -76t-184 -25q-84 0 -159 19t-138 53t-114 82t-86 105.5t-53.5 123t-18.5 135.5zM391 119q14 -59 40.5 -108t62.5 -84t79 -54t91 -19q66 0 118 42t90 118q-32 1 -71.5 5.5t-82.5 11.5t-87.5 16.5t-87.5 21t-82 24t-70 26.5z" />
<glyph unicode="K" horiz-adv-x="1421" d="M28 920q0 55 17.5 112t48 113t71.5 109.5t89.5 100.5t102 87t107 68.5t106 44.5t100.5 16q54 0 93 -14t65 -38.5t38 -58.5q12 -36 12 -76q0 -24 -11 -88t-31.5 -161.5t-50 -226t-66.5 -280.5q22 4 47.5 5.5t54.5 1.5q36 44 74 104.5t76.5 130.5t74.5 146t68 150 q30 68 54 117t46 82t43 54t42.5 32t45 14t49.5 3q48 0 86 -18t63.5 -48t39 -68t13.5 -76q0 -25 -9 -53.5t-29 -49.5q-20 -2 -36 -5.5t-31 -11.5t-31 -22t-35.5 -36.5t-44 -55t-55.5 -78.5q-47 -68 -90 -124.5t-83 -104t-77 -86.5t-73 -70q28 -18 55 -53t54 -80.5t54 -98 t53 -106.5q9 -18 18 -30t18 -18.5t19 -9.5q9 -3 21 -3q7 0 17.5 1t22.5 3l24 4l20 4q12 -14 18 -34q7 -22 7 -40q0 -28 -12.5 -55t-33.5 -51t-50 -44t-62.5 -34t-70 -22t-72.5 -8q-29 0 -51.5 6t-41.5 22t-37 44q-17 26 -36 68q-32 70 -58 126t-48 98.5t-41 73.5t-38 53 t-39 35q-20 14 -44 22l-94 -434q-14 -14 -36 -20t-50 -6t-56 8t-53 23t-47.5 35t-39 44t-25.5 51t-9 55t9 65t26 79t42.5 88t57.5 92l27 125q-14 -2 -32 -3t-32 -1q-67 0 -126.5 19.5t-104 56t-71.5 89.5q-26 54 -26 120zM291 994q0 -32 10.5 -57t32.5 -45t55.5 -36 t79.5 -30q23 79 41 147.5t30 123.5t18.5 95t6.5 60q0 28 -9 40q-10 12 -28 12q-14 0 -37 -13t-49.5 -36t-53 -54t-48.5 -65t-35.5 -71t-13.5 -71z" />
<glyph unicode="L" horiz-adv-x="1284" d="M4 219q0 36 11 62.5t36 44.5t65 26t97 8q26 0 55.5 -1t63.5 -5q36 68 65 129.5t55 124.5q-44 6 -81 21t-64 36.5t-42 49t-15 57.5q0 46 23 81t63 61q45 -34 96.5 -59t99.5 -34q22 61 45 121t45 116t43 107t40 94t36 77t31 56q27 43 58 73.5t65 49.5t70.5 27t74.5 8 q60 0 113 -13t97 -36t79.5 -55t60 -69.5t37.5 -80t13 -86.5q0 -77 -40 -159t-122 -160.5t-207 -149.5t-297 -125q-9 -27 -26.5 -61.5t-38.5 -72.5t-45 -76t-46 -70q138 -23 240.5 -51.5t176.5 -61.5t122.5 -69t76.5 -72.5t39 -74t11 -73.5q0 -38 -11 -72t-29 -61t-43 -45 t-52 -26q-38 32 -79.5 62t-91 59t-108 56t-129.5 53t-155 50t-186 48q-56 -52 -104 -83t-96 -31q-26 0 -50 13t-46 34t-40 49t-31.5 58t-21 61.5t-7.5 59.5zM834 826q80 32 145 72t110 83.5t70 89t25 90.5q0 24 -13 44.5t-34 36.5t-48.5 25t-58.5 9q-10 0 -20 -4t-20.5 -16 t-21 -33t-20.5 -55z" />
<glyph unicode="M" horiz-adv-x="2130" d="M-8 154q0 83 21 150.5t56.5 115.5t83 74t101.5 26q44 0 72 -17t40 -44q-14 -32 -25 -64.5t-19 -61.5t-12 -53q-3 -24 -3 -42q0 -34 4.5 -56t15 -35t28 -19.5t41.5 -8.5q24 0 54 17.5t69 58.5t87.5 109.5t108 171t131.5 243.5t158 325q-8 28 -13.5 52.5t-9 48t-5 48 t-1.5 54.5q0 42 13 85.5t36.5 84t55.5 76t71 62.5t83 42t91 15q42 0 71.5 -10t48.5 -25t28.5 -34t9.5 -37q0 -20 -8 -44t-24.5 -56.5t-43.5 -73t-63 -93.5q6 -37 14.5 -82t18 -95t19 -103t18.5 -106.5t16.5 -105t13.5 -98.5l340 410q46 190 135 284.5t217 94.5q28 0 54 -8 t46.5 -24t33 -39t12.5 -54q0 -24 -20 -52.5t-52 -61.5t-75 -73t-89 -86q-18 -78 -33 -158t-27 -158t-20 -150.5t-14 -133t-8 -105.5t-2 -69q0 -18 8 -25t22 -7q11 0 38.5 15.5t66.5 49.5t87 87.5t101 129.5q16 0 30 -4.5t25.5 -13t18 -21.5t6.5 -29q0 -26 -15.5 -60 t-43.5 -74t-65 -82t-80 -82t-89 -76t-92 -63t-89.5 -42.5t-80.5 -15.5q-47 0 -79 10.5t-51.5 32t-28.5 54t-9 77.5q0 40 1.5 78t5.5 78.5t10.5 84.5t17 97t24.5 116t33 140l-250 -307q0 -47 -12.5 -97.5t-35.5 -98.5t-54.5 -91t-69 -75t-80 -51t-86.5 -19q-36 0 -66.5 10.5 t-53 31t-35.5 51.5t-13 71q0 19 7 38.5t24.5 44t47.5 56t77 75.5q-3 42 -6.5 86t-7.5 86t-8.5 81.5t-8 73t-7 58.5t-5.5 39q-72 -178 -139 -316.5t-131.5 -243t-126.5 -177.5t-124 -118t-125 -66t-130 -21q-76 0 -132.5 21t-94.5 61t-57 98t-19 132z" />
<glyph unicode="N" horiz-adv-x="1765" d="M51 133q0 83 20.5 151t56.5 116t84 74t102 26q43 0 71.5 -17t40.5 -45q-14 -32 -25.5 -64t-19 -61t-11.5 -54t-4 -42q0 -28 3 -46.5t9 -30t17 -16.5t27 -5q19 0 42.5 15.5t53.5 53t68.5 101t87 159.5t109.5 228t135 307q-10 34 -18 63t-13 56.5t-8 54.5t-3 57 q0 63 23 121.5t64 103t99 71t128 26.5q42 0 71.5 -10t49 -25t28.5 -34t9 -37q0 -21 -7 -46.5t-23 -59.5t-41 -79t-63 -107q16 -32 38 -72t48 -83t53 -88t51.5 -88t45 -81t33.5 -68q27 134 50 241.5t45 193t42 149.5t42 111t45 78.5t50 50t58 26.5t69 8q42 0 75 -13t56 -35 t35 -54t12 -70q0 -13 -3 -27.5t-8.5 -27.5t-13 -24t-15.5 -20q-34 -4 -61 -9.5t-49.5 -19.5t-42.5 -38.5t-40 -65t-41 -99.5t-45.5 -142t-54.5 -193t-68 -252q4 -22 7.5 -50t6.5 -58.5t4.5 -61t1.5 -58.5q0 -59 -19 -106.5t-51 -80.5t-76 -51t-93 -18q-80 0 -122 27t-42 72 q0 18 3.5 39.5t11.5 50.5t21 66t31 87q-10 26 -26 61t-36 76.5t-44 87t-49 91.5t-51 90t-50 84q-67 -176 -129 -313.5t-121.5 -241t-116.5 -175.5t-114 -117t-114 -65t-117 -20q-76 0 -130 19t-88 56t-50.5 91t-16.5 125z" />
<glyph unicode="O" horiz-adv-x="1341" d="M96 473q0 90 19 182.5t53 181t80 172t101 156.5t116 133t124.5 103.5t127 67.5t123.5 24q26 0 46.5 -9t35.5 -25t24 -37q8 -22 10 -48q31 20 70.5 33t85.5 13q45 0 82.5 -13t68 -35t53 -53t38 -67.5t23 -77t7.5 -82.5t-5 -95t-16.5 -113t-29 -124t-40.5 -130t-53 -130.5 t-66 -124.5q8 -6 18 -11t23 -8.5t26 -5.5t25 -2q24 0 50 11t54 33t56 55t54 77q14 -1 28.5 -6t26 -14.5t18.5 -22.5t7 -31q0 -23 -12 -54.5t-35 -65.5t-54.5 -67t-70 -59t-82.5 -42t-90 -16q-22 0 -43.5 3t-42 9t-39.5 14t-34 20q-43 -58 -97 -105t-117 -81t-135.5 -53 t-152.5 -19q-112 0 -197.5 33.5t-143.5 100.5t-88 168t-30 237zM463 545q0 -69 13 -126t38.5 -98t63.5 -63t88 -22q30 0 59 6t56 19.5t51 33.5t42 47q-32 39 -58 85.5t-44 101t-27.5 117t-9.5 132.5q0 73 7.5 138.5t22.5 125.5t37.5 116t51.5 112q-49 -32 -97.5 -76 t-91.5 -97t-80 -116t-64 -132.5t-42.5 -145.5t-15.5 -158zM971 826q0 -73 10 -142t35 -129q18 35 32 75t26 80t20.5 80t14 74t8.5 61t3 43q0 34 -4 62t-17 48t-36 32t-59 16q-12 -66 -22.5 -143t-10.5 -157z" />
<glyph unicode="P" horiz-adv-x="1349" d="M16 12q0 30 12 59t32 51t46 36t54 16q33 -36 64.5 -56t59.5 -20q49 0 90 73q40 73 80 218q16 60 33.5 126.5t34 136.5t33.5 141t32.5 139t30 130t27.5 116q-44 -8 -86.5 -21t-81 -30t-70 -37t-53.5 -40q-17 0 -33.5 7t-30.5 21t-22 34t-8 47q0 50 34 100.5t95.5 94 t146.5 76.5q86 32 189 48q6 26 25.5 48t44.5 38t53.5 25t52.5 9q22 0 34 -4t18.5 -16t7.5 -34t1 -57q92 -6 164.5 -27t128 -53t94.5 -74.5t63.5 -92.5t36 -107t11.5 -119q0 -78 -17.5 -151.5t-49 -141t-74.5 -127.5t-95.5 -111.5t-111 -93t-121 -71t-126 -47t-125.5 -19.5 q-38 -107 -88 -189.5t-112 -139.5t-136 -86t-158 -29q-53 0 -95.5 14.5t-72.5 41.5t-46 64.5t-16 83.5zM803 506q8 -2 16 -2h13q44 0 84 16t74 44t61.5 67t47 85.5t29.5 99t10 108.5q0 43 -10 82.5t-36 72.5t-71.5 58t-115.5 39q-8 -64 -18.5 -144.5t-23.5 -168t-28 -179 t-32 -178.5z" />
<glyph unicode="Q" horiz-adv-x="1292" d="M-41 33q0 29 8.5 52t30.5 38.5t61 24t99 8.5q30 0 68 -4.5t82.5 -13t92 -20.5t93.5 -28q84 88 157.5 176t134.5 172.5t108.5 165t80.5 154.5t50 141t17 123q0 20 -5 38t-18.5 36t-36.5 37q-22 19 -58 43q-16 10 -28 20t-20 22.5t-12 27.5t-4 34q0 11 2 22.5t6 22.5 q-68 -47 -121 -99t-93 -107t-69 -109.5t-47 -106.5t-26 -99.5t-8 -88.5q0 -54 6.5 -96.5t22 -79.5t42.5 -70t68 -67q-2 -30 -14.5 -51.5t-31.5 -35t-41 -20t-42 -6.5q-60 0 -111 15.5t-91 42t-71 63t-51 79.5t-30 89t-10 94q0 58 12 123t35 133.5t58 137t80.5 131.5 t101.5 118t122 98q68 44 133.5 63t126.5 19q44 0 69.5 -18.5t29.5 -50.5q16 24 37 38.5t44 23t45 11t38 2.5q79 0 140.5 -30.5t104.5 -81.5t65.5 -118t22.5 -141q0 -142 -48.5 -282t-139.5 -281t-220 -283.5t-290 -287.5q71 -27 145.5 -58t151.5 -61.5t156 -59t159 -50 t160.5 -34.5t160.5 -13q45 0 85.5 3t82.5 13q16 48 29.5 79t25 49t22.5 25t24 7q30 0 53.5 -15t39.5 -37t24 -46t8 -44q0 -32 -10 -59.5t-33.5 -52t-62 -47.5t-95.5 -47q-50 -71 -132.5 -106.5t-204.5 -35.5q-63 0 -132.5 11t-141.5 31t-146 47t-146 58t-140 65t-129 68.5 t-114 68t-94 63.5q-60 -32 -128.5 -50t-138.5 -18q-30 0 -59 11t-55 31t-48.5 47t-39 58.5t-26 66t-9.5 69.5z" />
<glyph unicode="R" horiz-adv-x="1392" d="M66 996q0 52 28 110.5t79 116t122 110.5t159 93t188.5 64t209.5 24q132 0 231 -31t165 -86t99 -131t33 -166q0 -76 -22 -149t-67 -146t-110.5 -148t-152.5 -155q16 -16 39 -43t49 -64t54 -83.5t54 -100.5q10 -18 19 -30t18 -19t19 -10q8 -2 20 -2q7 0 17.5 1t22.5 2.5 t23.5 4t20.5 4.5q12 -14 18.5 -35t6.5 -39q0 -28 -11.5 -56t-32 -54t-49 -49t-63.5 -39t-74 -26t-81 -10q-29 0 -51.5 7t-41.5 23t-36.5 43t-36.5 69q-32 70 -58.5 125.5t-49.5 98.5t-43.5 74.5t-40.5 53.5t-40 36t-44 22q-14 -56 -26 -115t-21.5 -112t-15.5 -97 q-5 -44 -7 -70q-12 -17 -38 -26.5t-64 -9.5q-29 0 -55.5 9t-47.5 25t-38 36t-29 42.5t-18.5 45t-6.5 42.5q0 14 1.5 31t5.5 39t11 52t18.5 69t27.5 89q16 52 38 116q44 132 95.5 285.5t107.5 334.5q-42 -5 -83 -20.5t-79 -38t-72 -51.5t-64 -61.5t-54 -66.5q-24 -36 -42 -70 q-9 -4 -21.5 -7t-24.5 -3q-20 0 -37 9t-28 24.5t-17 38t-6 50.5zM706 600q31 6 68 6q30 0 57 -4t49 -10q49 66 82 119t52.5 100t27.5 90.5t8 89.5q0 41 -12.5 77t-41 64t-74 46t-111.5 22q-3 -98 -30 -250t-75 -350z" />
<glyph unicode="S" horiz-adv-x="1102" d="M30 256q0 38 7 76t20 74t32 68t43.5 55t55 37t66.5 14q26 0 48 -8t36 -25v-39q0 -104 22 -180t59 -125t84 -73t99 -24q30 0 55 13t44 36t30 56t11 71q0 17 -2 34t-9 37.5t-20 46.5t-35.5 60.5t-56 80t-81.5 106.5q-40 52 -67.5 100.5t-44 94.5t-23.5 92t-7 94 q0 57 14 114t41 109.5t65 97.5t86 78.5t106 52.5t122 19q83 0 141.5 -21.5t95.5 -57t54 -80t17 -90.5q0 -30 -7 -57t-19.5 -49t-28 -38t-33.5 -24q-40 34 -75 58t-66.5 40.5t-60.5 23.5q-30 8 -58 8q-17 0 -31.5 -7t-25.5 -20t-18 -31t-7 -40q0 -24 7.5 -53t25 -65 t47.5 -83.5t74 -109.5q43 -61 74.5 -110t54 -89t36.5 -73t22 -62.5t11 -58t3 -58.5q0 -58 -17.5 -118t-50.5 -116t-81.5 -106t-110 -87t-136.5 -59t-161 -22q-79 0 -144.5 15t-118.5 42t-93 65t-66.5 83.5t-40 98t-13.5 108.5z" />
<glyph unicode="T" horiz-adv-x="1249" d="M30 1104q0 62 16.5 120.5t45 110.5t67.5 95.5t85.5 74.5t98 48.5t103.5 17.5q47 0 94 -3.5t97.5 -10.5t107.5 -17t123 -26q96 -22 175 -40t145.5 -32t122 -25t103.5 -19t90 -13t82 -9t80.5 -5t84.5 -3q6 -4 10.5 -11.5t8.5 -17t6 -19.5t2 -20q0 -52 -22.5 -94t-61 -71 t-89.5 -44.5t-108 -15.5q-22 0 -39.5 0.5t-33 2t-30.5 4t-32.5 6.5t-38 10t-47.5 14q-11 -32 -23.5 -78t-25.5 -101t-26 -116t-27 -124t-27.5 -126t-27 -121t-26 -109t-24.5 -91q-32 -106 -81 -185t-112.5 -130.5t-138.5 -77t-159 -25.5q-64 0 -118.5 19.5t-94 54 t-62.5 81.5t-23 103q0 36 11 65t32 50.5t52 34t69 12.5q22 -28 48 -55t52 -48t50 -34t43 -13q24 0 44.5 18t38 54.5t34 91t32.5 127.5q20 86 35 154t27 121.5t20.5 94t16 73t14.5 58.5t15 50q-62 -29 -135 -55.5t-149.5 -45.5t-153 -31t-144.5 -12q-69 0 -124.5 20t-95 58.5 t-61 96t-21.5 133.5zM282 1198q0 -40 14 -69t40 -48.5t63 -29t83 -9.5q37 0 76 3t77.5 7.5t75 9.5t67 9.5t53.5 7.5t35 3q13 0 26.5 -2t24.5 -6t21 -10q8 -6 14 -14q4 14 13 31.5t19 34.5t21 32.5t21 25.5q-94 32 -171 55t-137.5 41t-108 29.5t-84 18.5t-64 10t-49.5 3 q-29 0 -53 -9.5t-41 -26.5t-26.5 -41.5t-9.5 -55.5z" />
<glyph unicode="U" horiz-adv-x="1294" d="M74 1268q0 56 32 103t89 82t135 55t168 20q73 0 126.5 -19t88.5 -53t52 -80t17 -100q0 -32 -2.5 -65t-9 -71t-17.5 -81t-27 -95t-39 -114q-23 -64 -52 -140q-29 -74 -48.5 -131t-31 -100t-16.5 -74.5t-5 -54.5q0 -76 32 -111.5t98 -35.5q53 0 108.5 46t109 135.5 t102.5 221.5t89 306q-16 70 -23.5 135t-7.5 125q0 59 9 108.5t27 85.5t47 56t69 20q28 0 57 -9t55 -23.5t49 -34t39 -40.5t26 -43q10 -20 10 -40q0 -27 -3.5 -54.5t-13 -62t-25.5 -81t-42 -112.5q-39 -180 -89 -325t-108.5 -258t-125.5 -194t-139 -134t-149 -78t-157 -25 q-93 0 -167.5 24t-126 70t-79 112t-27.5 150q0 38 6.5 83.5t17.5 92t25.5 92.5t30.5 87q34 88 60 157.5t45.5 123.5t32 95.5t20.5 72.5t11 53q3 23 3 39q0 20 -4 32t-12 19t-18 9q-12 3 -24 3q-15 0 -36 -8.5t-46 -23.5t-52.5 -37t-55.5 -48q-24 4 -44 18t-34 34t-22 44 t-8 46z" />
<glyph unicode="V" horiz-adv-x="1468" d="M102 938q0 54 19.5 109t53 107t79.5 100t98 90t109 77t113 59.5t110 37.5q52 14 98 14q56 0 101 -13t77 -41t49 -74t17 -112q0 -40 -8 -82t-22 -90t-35 -102t-48 -117t-59 -137t-70 -160q-18 -44 -30.5 -79t-20 -64t-11 -55t-3.5 -52q0 -22 5 -40.5t15.5 -33t28.5 -22.5 t43 -8q32 0 69 18t76.5 50.5t78.5 78.5t75 102.5t67.5 121.5t55 135t36.5 145t13 151q0 36 -8 74t-25.5 78t-45 82.5t-67.5 87.5q6 33 23 57.5t42 41.5t57.5 25t70.5 8q67 0 118.5 -28t87 -75t53.5 -109t18 -130q0 -104 -22 -210.5t-61 -210t-93.5 -201.5t-119 -184 t-138 -158t-150 -124t-155.5 -80.5t-155 -28.5q-100 0 -167.5 27.5t-109 76t-59.5 114.5q-18 67 -18 143q0 62 21 141t63 176q-70 2 -131.5 23.5t-108 59.5t-73.5 91t-27 119zM377 989q0 -26 7.5 -47.5t24.5 -41.5t44 -39t67 -40q33 72 63.5 133.5t54.5 113t38 92t14 67.5 q0 19 -2 31t-7 18t-12 8t-17 2q-14 0 -40 -12t-57 -33t-62.5 -49t-57 -61t-42 -69.5t-16.5 -72.5z" />
<glyph unicode="W" horiz-adv-x="1939" d="M102 938q0 54 19.5 109t53 107t79.5 100t98 90t109 77t113 59.5t110 37.5q52 14 98 14q56 0 101 -13t77 -41t49 -74t17 -112q0 -60 -21.5 -129t-58.5 -155t-86 -190q-48 -104 -104 -234q-18 -44 -31 -80t-21 -67t-11 -57t-3 -52q0 -22 6 -41t19 -33t31 -22q18 -9 44 -9 q27 0 53.5 12.5t52.5 36.5t54 57t58 75q0 71 8 142.5t22 140t35 132.5t46 120t55 102.5t62 79.5t66 51t70 18q33 0 60.5 -9.5t46.5 -27.5t30 -44.5t11 -60.5q0 -86 -25 -175t-66 -178t-92 -175t-104 -164q7 -29 16 -52.5t21.5 -40.5t28 -26t34.5 -9q32 0 66.5 18.5t70.5 53 t70 82.5t65.5 106t58 125t46 139.5t30.5 148t11 151.5q0 43 -8.5 79.5t-26.5 72.5t-46 74t-70 84q12 66 61 98.5t125 32.5q67 0 117.5 -28.5t84.5 -76.5t51 -111t17 -132q0 -104 -16.5 -209.5t-47 -207.5t-74 -197.5t-97 -179.5t-115.5 -154t-131 -120t-142 -77.5 t-149 -27.5q-77 0 -140.5 44t-103.5 136q-50 -56 -100 -96.5t-101 -66.5t-103 -38.5t-105 -12.5q-78 0 -134 23t-92.5 64t-53.5 99t-17 130q0 30 6 71.5t19 92t33.5 108t49.5 119.5q-70 2 -131.5 23.5t-108 59.5t-73.5 91t-27 119zM377 989q0 -26 7.5 -47.5t24.5 -41.5 t44 -39t67 -40q33 72 63.5 133.5t54.5 113t38 92t14 67.5q0 19 -2 31t-7 18t-12 8t-17 2q-14 0 -40 -12t-57 -33t-62.5 -49t-57 -61t-42 -69.5t-16.5 -72.5z" />
<glyph unicode="X" horiz-adv-x="1609" d="M100 221q0 58 20.5 125.5t61 138t102.5 142.5t145 140t187 130q104 63 230 113l-22 112q-42 16 -61 48q-19 34 -19 86q0 26 9 58t26 64.5t40 63.5t50 55.5t56.5 38.5t59.5 14q26 0 48.5 -9t41.5 -32t36.5 -62t35 -99t36.5 -144q19 -82 41 -194q56 78 103 136.5t86 102 t73 72.5t64 46t58 24.5t55 7.5q34 0 62.5 -9.5t48 -27.5t30.5 -44q10 -24 10 -56q0 -20 -5 -40t-15 -36q-36 -12 -67 -24.5t-61 -27t-58 -31.5t-57 -40t-60 -51.5t-65.5 -65.5t-74 -83.5t-85.5 -104.5q20 -120 36 -205t29.5 -143t25.5 -92.5t24.5 -53t26.5 -23.5t32 -5 q28 0 62 20t73 57t83 90t91 119q18 0 32.5 -6t24 -16t14.5 -24t5 -28q0 -24 -13.5 -57.5t-38 -73t-58.5 -81.5t-74.5 -82t-86.5 -76t-94 -63.5t-98 -43.5q-48 -16 -96 -16q-40 0 -73 7.5t-60 25.5t-50 49.5t-43 80t-37 116.5t-35 159q-85 -135 -157.5 -227t-139.5 -148.5 t-131 -81t-132 -24.5q-62 0 -118 18t-98 56t-67 96.5t-25 138.5zM448 305q0 -40 19 -59.5t51 -19.5q34 0 74.5 27.5t90 80t109.5 129.5t132 174l-50 219q-117 -78 -197.5 -156t-131.5 -150t-74 -135t-23 -110z" />
<glyph unicode="Y" horiz-adv-x="1487" d="M102 940q0 54 21 108t57.5 104t85.5 96.5t105 86.5t116.5 72.5t119.5 55.5t114 36t100 13q104 0 157 -42q52 -42 52 -126q0 -20 -2 -39t-9 -45t-22 -64t-39.5 -96t-61.5 -140.5t-89 -197.5q-27 -60 -43 -100t-25 -67.5t-11.5 -46t-2.5 -36.5q0 -34 18 -52q17 -18 47 -18 q33 0 69.5 10t73.5 28t72 44t66 60q18 160 36.5 287t38.5 225t42 169t47 116t53 66t62 21q26 0 52 -8.5t49.5 -23t44 -34t35.5 -40.5t23 -42.5t8 -41.5q0 -27 -6.5 -55.5t-20.5 -63.5t-36 -78.5t-53 -99.5q-12 -62 -24 -126.5t-24.5 -126.5t-24 -120t-22.5 -109t-19.5 -92 t-14.5 -69q-11 -46 -24 -96t-25 -90q50 36 95 74t89 83t86.5 98t85.5 117q14 -1 27 -5t23 -12.5t16 -20.5t6 -30q0 -38 -23 -85t-61.5 -98t-89.5 -104t-107.5 -103t-115.5 -95t-113 -79q-22 -46 -49 -90t-59 -83t-69 -72t-78 -56t-86 -36.5t-93 -13.5q-24 0 -50 5.5 t-51 16.5t-48 27t-40.5 36t-28 44t-10.5 52q0 32 25 65t78 73t136 87t197 106q10 26 20 59.5t20 72.5t19 82t19 87q-42 -57 -91 -101.5t-102 -75.5t-108 -48t-109 -17q-59 0 -104.5 19t-77.5 53t-48.5 81t-16.5 103q0 28 3.5 58t11.5 63.5t20 72t28 83.5q-70 2 -132 23.5 t-108.5 60t-74 92t-27.5 119.5zM377 991q0 -26 6.5 -47.5t22.5 -42t42 -40t66 -40.5q33 72 65 132.5t57 111t40 89.5q16 38 16 66q0 26 -9 36t-29 10q-14 0 -40.5 -10.5t-57 -29t-62.5 -43.5t-58 -56t-42.5 -65.5t-16.5 -70.5z" />
<glyph unicode="Z" horiz-adv-x="1171" d="M78 215q0 34 7 74t21 80t36 76.5t52.5 65.5t69 46t86.5 17q22 0 42 -4t39 -13t40 -24t45 -35q43 34 90.5 76t96 88t95.5 94t88.5 93.5t76 87.5t57.5 75q-69 21 -131.5 38.5t-116.5 31t-100 21t-82 7.5q-28 0 -70 -13t-94 -45q-40 12 -64 48.5t-24 99.5q0 56 21 105.5 t57 87t84 59.5t102 22q39 0 77.5 -3t80 -11t87 -20t99.5 -29t116 -39t138 -51q16 24 29.5 42.5t27 31.5t26.5 20t27 7q31 0 57.5 -17t46.5 -42t31 -55t11 -58q0 -32 -12.5 -66t-39.5 -70t-69.5 -74t-103.5 -78q-47 -67 -91 -124t-88 -108.5t-89.5 -98.5t-94 -94t-103 -95.5 t-116.5 -101.5q61 -90 110 -160t89 -124t71 -93t56.5 -65.5t46 -42.5t39.5 -25t37 -11.5t36 -2.5q60 0 126 21t141 61q10 -6 20.5 -17t18.5 -26t13 -33.5t5 -38.5q0 -40 -18.5 -79.5t-51 -76.5t-77.5 -69t-97 -56t-109 -37.5t-116 -13.5q-54 0 -98.5 10t-87 37t-86 75.5 t-93.5 124.5t-112 185t-140 257q-22 -20 -49.5 -39t-56 -33t-55.5 -22.5t-49 -8.5q-20 0 -35 8.5t-26 28.5t-17 54.5t-6 86.5z" />
<glyph unicode="[" horiz-adv-x="950" d="M226 -223q0 18 1 35.5t5 39.5t11 52t17 74q14 54 31 125t35 153t38 173t40 184t39 185t37 176.5t33 160t27 133.5q6 26 16 46.5t28.5 35t47 21.5t70.5 7q24 0 56 0.5t67 1t72 1.5t71.5 3t65 5t54.5 7q22 -15 30 -37q8 -23 8 -49q0 -38 -25 -73t-70 -61t-106 -42t-133 -16 q-40 -186 -79 -360t-77.5 -330t-76.5 -294q-37 -136 -75 -250l300 -34q8 -12 11 -25t3 -25q0 -37 -20.5 -68.5t-62 -54.5t-104.5 -36t-146 -13q-70 0 -116.5 10t-73.5 29.5t-38 47t-11 62.5z" />
<glyph unicode="\" horiz-adv-x="962" d="M312 1170q3 28 12.5 48t25.5 32t36 18t44 6q44 0 78 -25t60 -77t45 -133t34 -193q11 -84 23.5 -175t26 -186t28.5 -189.5t31 -184t32.5 -172t32.5 -152.5q-6 -16 -23.5 -28.5t-43.5 -12.5q-22 0 -40 5t-34 20t-30.5 44t-29.5 75t-31.5 114t-36.5 162t-44 217 q-26 123 -56 281q-20 102 -37 181t-34 140t-34 106t-35 79z" />
<glyph unicode="]" horiz-adv-x="987" d="M51 -203q0 10 1 17.5t3.5 14.5t6.5 15l12 16q6 0 26 1t48 3t60.5 3t62 3t52 3.5t31.5 1.5q12 47 27 111t32 139t35 159t36.5 171.5t37 176t35.5 172.5t33 161.5t28 142.5q-75 8 -129.5 23t-89.5 36t-52 47t-17 56q0 23 6 40q6 18 16 30q34 4 74 7t82 6t85 6t81.5 5t71 3 t55.5 1q70 0 102.5 -27t32.5 -81q0 -8 -1 -19t-2 -23t-3 -24t-4 -22q-28 -128 -53 -243t-49 -223.5t-48 -213.5t-51 -213.5t-56.5 -224.5t-64.5 -244q-14 -52 -33 -88t-43 -58t-55 -32.5t-67 -10.5q-78 0 -143.5 14.5t-112.5 38.5t-73 56t-26 67z" />
<glyph unicode="^" horiz-adv-x="866" d="M180 891q0 29 10 67.5t29 82t45 89.5t59 89t71 82t79 68t86 46t90 17q42 0 73.5 -10t54.5 -33t37.5 -58.5t23 -87t11.5 -119.5t3 -156q0 -18 1 -47.5t3 -60.5q-10 -19 -29 -36.5t-42.5 -30.5t-51 -21t-55.5 -8q-29 0 -49 8t-32.5 24t-17.5 40.5t-5 56.5q0 78 -2 128.5 t-6 79.5t-12 40.5t-22 11.5q-18 0 -43.5 -22.5t-54.5 -68t-60 -113.5q-30 -69 -58 -159q-12 -4 -24 -6t-26 -2q-18 0 -34 7t-27.5 21t-18 34t-6.5 47z" />
<glyph unicode="_" horiz-adv-x="946" d="M170 56q0 20 6.5 41t23 38.5t46.5 29.5t76 15q78 6 136 11t102 11t77 12t61.5 14t55.5 18q26 10 57 24q31 -8 47 -31t16 -57q0 -95 -100 -142q-98 -48 -292 -48q-32 0 -70 1t-77 2t-76 3t-69 4q-11 10 -16 26q-4 16 -4 28z" />
<glyph unicode="`" horiz-adv-x="594" d="M135 1430q0 33 11.5 63.5t33 54t53 38t72.5 14.5q24 0 41.5 -8.5t28.5 -20.5q6 -56 15.5 -115.5t21.5 -117.5t27 -112t32 -98q0 -12 -5.5 -23t-14.5 -19t-23 -12q-12 -5 -30 -5q-32 0 -66 21.5t-67 61.5t-64 98t-57 132q-3 10 -6 22q-3 14 -3 26z" />
<glyph unicode="a" d="M51 282q0 77 19.5 153.5t53.5 146.5t79.5 130t96.5 104.5t105 70t105 25.5q22 0 34 -3.5t19 -11.5l7 119q12 14 31 20t40 6q52 0 92.5 -16t67.5 -40t41 -53t14 -57q0 -20 -5 -56t-17 -78q-27 -96 -46 -170t-30.5 -127.5t-17 -88.5t-5.5 -55q0 -16 1.5 -25t4.5 -14t8 -6.5 t11 -1.5q16 0 43 15t63 47t80 81.5t92 118.5q16 0 30 -5t24 -13t16 -20t6 -26q0 -25 -15 -57.5t-40.5 -70t-60 -77t-73 -76.5t-80 -70t-80.5 -57.5t-75 -39t-64 -14.5q-34 0 -61 8t-46 27t-29.5 51t-10.5 82q0 17 2 37t5 43q-24 -70 -54 -116t-60 -73t-60.5 -38t-57.5 -11 q-44 0 -81 18t-64 53.5t-43 88.5q-15 52 -15 122zM352 370q0 -28 4.5 -44.5t12 -25t17.5 -11.5t20 -3q22 0 42 14q22 14 40 38l65 426q-38 -24 -74.5 -66.5t-64.5 -95.5t-45 -112.5t-17 -119.5z" />
<glyph unicode="b" horiz-adv-x="829" d="M76 346q0 96 12 196t33 199t51.5 193t67 179t79.5 155.5t89 122t94.5 80t97.5 28.5q31 0 55.5 -8t41.5 -24.5t26.5 -43t9.5 -63.5q0 -20 -6.5 -47t-21.5 -63t-40 -82t-61 -104.5t-84 -130t-110 -159.5q-8 -48 -14.5 -98.5t-11 -98t-7 -87.5t-2.5 -68q0 -67 2 -107.5 t6 -62.5t10.5 -29.5t16.5 -7.5q19 0 40 14.5t42 39.5t40.5 58t33.5 69t23 74q9 36 9 70q0 30 -4 50.5t-15 35t-29 24.5q-18 12 -46 20q-4 14 -5 25t-1 24q0 40 16 77.5t44 66t65 46t77 17.5q83 0 124.5 -54t41.5 -170q0 -59 -12 -121.5t-34 -125t-53 -122.5t-68.5 -113.5 t-81 -98.5t-90.5 -78t-97 -51t-100 -18q-62 0 -110 21.5t-80 67t-48 115.5t-16 168z" />
<glyph unicode="c" horiz-adv-x="692" d="M51 328q0 79 19.5 155.5t53.5 146.5t80 129t98.5 103t109 68t110.5 24q52 0 91 -13t65.5 -39t39.5 -63t13 -83q0 -49 -16 -92.5t-42.5 -75t-60.5 -50t-72 -18.5q-34 0 -54 10q-22 10 -34 29q11 42 16 75.5t5 53.5q0 22 -8.5 32.5t-18.5 10.5q-14 0 -33 -23.5t-36 -67.5 t-29 -107t-12 -140q0 -42 6 -72t19 -49t34 -27.5t51 -8.5q43 0 93 21t100.5 59t99.5 91t91 117q14 0 28 -4t25.5 -13t19 -22t7.5 -29q0 -26 -15 -60.5t-40 -73t-61 -78.5t-78 -78t-89 -71.5t-95.5 -58.5t-98 -39.5t-95.5 -14.5q-76 0 -130 23t-89 67t-51.5 108t-16.5 148z " />
<glyph unicode="d" horiz-adv-x="856" d="M62 316q0 75 19 147.5t51 138.5t74 122.5t87.5 97.5t92 64.5t87.5 23.5q48 0 71.5 -24t23.5 -65v-12q-1 -7 -3 -13q-38 -24 -68.5 -57t-54 -72t-41 -81.5t-29 -85t-17 -84.5t-5.5 -78q0 -26 4 -43t11.5 -28t19 -15t27.5 -4q22 0 45.5 25t47 70t44.5 106t37.5 133.5 t26 153t9.5 163.5q0 89 -23 156.5t-65 113.5t-101.5 71.5t-131.5 29.5q-14 12 -21 30q-6 20 -6 38q0 36 16 71t48 62t82 44t118 17q87 0 158.5 -35t121.5 -100t78 -158t28 -209q0 -159 -26 -298.5t-70 -256.5t-103 -208.5t-124.5 -155t-134.5 -96.5t-134 -33q-62 0 -112 20 t-85 61t-54 104t-19 149z" />
<glyph unicode="e" horiz-adv-x="735" d="M51 328q0 78 19.5 154t53 145t78 129t94.5 103.5t103 68t103 24.5q106 0 162 -52q57 -50 57 -158q0 -64 -20 -121t-65.5 -104.5t-118 -84t-177.5 -60.5q0 -34 4 -61t15 -45t30 -27t49 -9q52 0 110.5 21t116 60t111.5 94t98 121q18 0 33 -6t25 -15.5t15 -21.5t5 -24 q0 -28 -15 -64t-42 -74.5t-65 -79t-82 -78t-94 -70.5t-102 -58t-105 -39t-103 -14q-75 0 -130.5 23t-91.5 67t-53.5 108t-17.5 148zM352 524q43 8 70.5 23t42.5 35t21 42.5t6 45.5q0 32 -12 50t-30 18q-10 0 -25 -13.5t-29 -40t-26 -66.5t-18 -94z" />
<glyph unicode="f" horiz-adv-x="717" d="M-104 -336q0 20 1 38.5t5.5 43t13 56.5t22 78t34 109t48.5 148q12 36 27 81.5t30 95.5t29.5 101.5t27.5 100t23.5 90.5t16.5 74q-58 3 -58 51q0 22 8 43.5t20 38.5t28 28t33 13q3 27 7 64.5t8 79t8 82t8 71.5q7 71 14.5 122.5t17.5 87t22 57.5t28 34t37 16t47 4 q27 0 54.5 -10t54 -27.5t49.5 -42t40 -52.5t27 -60t10 -64q0 -24 -8.5 -56t-27.5 -74t-48 -96q-29 -56 -69 -126q16 0 40.5 1.5t53 3t58 2.5t55 3t44.5 4q19 0 25 2q18 -14 28 -38t10 -48q0 -29 -9 -53.5t-25 -43.5t-37 -29t-47 -10q-36 0 -67 1t-62 5q29 -16 53 -43 t41.5 -64t27 -83t9.5 -99q0 -69 -14 -144t-39 -150.5t-60 -149t-77 -139.5t-89 -122t-97.5 -97t-102.5 -64q-53 -23 -103 -23q-104 0 -154 47t-50 131zM203 -226q0 -10 6.5 -15t18.5 -5q14 0 32 16t38.5 44t41 65.5t40.5 81.5t37 92.5t30 96.5t20.5 95t7.5 89 q0 72 -16.5 123.5t-44.5 74.5q-11 -71 -28 -146t-36.5 -148.5t-40 -142.5t-40 -127t-35.5 -103.5t-27 -71.5q-2 -4 -3 -9.5t-1 -9.5z" />
<glyph unicode="g" d="M-35 -182q0 32 11.5 63t33.5 57t53 43t70 19q32 -48 64.5 -91t63.5 -74.5t60 -50t54 -18.5q23 0 37 18t20 62q2 18 6 51.5t9 78t11 98.5q6 52 11 110q-6 -13 -18 -29t-27.5 -32.5t-34.5 -32.5t-40.5 -29t-45 -20.5t-47.5 -7.5q-44 0 -81 15.5t-65 48.5t-43.5 83.5 t-15.5 120.5q0 69 19.5 137t53.5 129t78 114t93 91t100 60t99 22q22 0 33.5 -3t19.5 -11q3 28 5 56.5t4 56t2.5 51.5t0.5 42q6 7 16 12.5t20.5 9.5t21.5 5.5t20 1.5q48 0 90 -15.5t73 -40.5t48.5 -54t17.5 -55q0 -30 -6 -60.5t-16 -66t-22 -78.5t-24 -99q-9 -44 -17.5 -94.5 t-16.5 -103t-14 -105.5t-12 -100q32 23 69 55t75 72t76.5 86.5t73.5 99.5q20 0 36 -5t28 -14t18 -21t6 -26q0 -25 -17 -59.5t-46 -75.5t-68 -84.5t-83.5 -86t-92 -82.5t-92.5 -72q-2 -12 -5 -26q-2 -12 -4 -27q-4 -15 -6 -29q-9 -69 -29.5 -123.5t-48.5 -95.5t-63 -70 t-74 -47t-80 -26.5t-81 -8.5q-42 0 -85 9.5t-83.5 27.5t-76 43t-62.5 56t-42.5 68t-15.5 77zM352 358q0 -28 4 -45t10 -26t15 -12t21 -3q24 0 43 10t41 32q6 47 12 100.5t13 105.5t13 100t12 84q-29 -16 -53.5 -39.5t-45.5 -52t-36.5 -61t-26 -66t-16.5 -65.5t-6 -62z" />
<glyph unicode="h" horiz-adv-x="940" d="M56 203q0 48 14.5 103.5t52.5 121.5q20 187 41 339t46.5 271t57 205.5t72 143.5t92.5 84.5t117 27.5q33 0 58 -8t41.5 -25.5t25 -45.5t8.5 -66q0 -34 -9.5 -75t-33 -96.5t-63 -129t-99.5 -173.5l-49 -192q112 102 203 151.5t151 49.5q29 0 51.5 -8.5t37.5 -24.5 t22.5 -38.5t7.5 -49.5q0 -48 -13 -97t-36 -108q-8 -22 -19 -50.5t-23 -58t-22.5 -59.5t-19 -56.5t-13.5 -48t-5 -34.5q0 -17 7 -23.5t21 -6.5t43.5 18t69 55t87 91t97.5 126q14 0 28.5 -5t26 -13.5t18.5 -21t7 -28.5q0 -24 -15.5 -58t-42 -72.5t-62.5 -80t-77.5 -81.5 t-86.5 -75t-89 -62t-86 -42.5t-78 -15.5q-46 0 -76.5 10t-49.5 30.5t-27.5 52t-8.5 73.5q0 34 8 74.5t20 83t26 84t25.5 76.5t19.5 61t8 36q0 12 -5.5 23t-23.5 11q-26 0 -62 -17q-34 -17 -76 -53q-8 -54 -14.5 -111t-11.5 -117t-7.5 -125t-4.5 -137q-14 -16 -38.5 -22 t-55.5 -6q-30 0 -57 8t-50 23.5t-41 36t-31.5 44.5t-21 50t-7.5 53z" />
<glyph unicode="i" horiz-adv-x="520" d="M60 140q0 34 4 67t13 69t23 76t33 88q-12 29 -16.5 62.5t-4.5 65.5q0 30 14 66.5t38 74t55.5 72.5t66 62t69.5 43.5t67 16.5q36 0 56 -9.5t30.5 -26.5t13 -41t2.5 -54q0 -20 -6 -45.5t-16 -55t-23 -60.5t-27 -64q-22 -53 -37 -93t-26 -70t-16 -52t-5 -39t8 -24t22 -7 q10 0 32.5 13t55 44t75.5 80.5t95 122.5q14 0 28 -6t25.5 -16t18.5 -23t7 -29q0 -24 -14.5 -57t-39.5 -71t-59 -78.5t-73 -79t-82 -72.5t-86 -60t-84 -41t-76 -15q-45 0 -76 10t-50 30t-27 52t-8 74zM398 1218q0 62 6 105.5t19 70t31 38.5q20 12 44 12q20 0 41 -7t40 -19 t36 -27t29.5 -32.5t20 -35t7.5 -33.5q0 -18 -8 -42.5t-24 -55.5t-42 -68.5t-64 -83.5q-30 0 -55 11.5t-43 34t-28 55.5t-10 77z" />
<glyph unicode="j" horiz-adv-x="545" d="M-274 -286q0 35 7 63.5t29 57t60.5 59.5t101.5 71l164 105q4 43 9 91.5t11.5 98t14 96t14.5 84.5q-12 29 -16.5 62.5t-4.5 65.5q0 30 16 67.5t43 76t61 75.5t71 66t74 47t69 18q30 0 49 -6t31 -18t16.5 -30t4.5 -43q0 -44 -25.5 -116.5t-83.5 -170.5q-6 -26 -12 -60 t-13 -74t-14.5 -83t-13.5 -85q36 23 71.5 50.5t72.5 62.5t73.5 77t73.5 94q14 0 29 -6.5t26 -17t18 -24.5t7 -30q0 -25 -17 -58t-46 -70.5t-67.5 -77.5t-82 -79t-91 -75.5t-92.5 -65.5q-3 -24 -5.5 -48t-5.5 -46.5t-6 -41.5q-3 -20 -5 -34q-14 -104 -50.5 -179.5t-87 -125 t-110.5 -74t-120 -24.5q-56 0 -102 20t-78.5 56.5t-50 86.5t-17.5 112zM-49 -240q0 -22 5.5 -40t15 -31t22.5 -20q12 -7 28 -7q23 0 32.5 19t13.5 63q2 28 4 54t4 45q2 23 4 43l-72 -50q-16 -10 -26.5 -19t-17 -17.5t-10 -18t-3.5 -21.5zM408 1288q0 60 5 98t15 60t25 30.5 t37 8.5q31 0 61.5 -15.5t55 -38t40 -49.5t15.5 -51q0 -18 -4 -42.5t-17 -54.5t-35 -68t-59 -82q-36 0 -62.5 15t-43.5 43t-25 65t-8 81z" />
<glyph unicode="k" horiz-adv-x="948" d="M56 203q0 48 14.5 103.5t52.5 121.5q22 192 44.5 345.5t48.5 272.5t58 204.5t73 140.5t91.5 81.5t114.5 26.5q33 0 59.5 -8t45 -25.5t28.5 -45.5t10 -66q0 -22 -4 -48t-13 -56.5t-24 -68t-36 -85.5t-50 -106.5t-67 -131.5q-17 -34 -33.5 -74t-30.5 -82t-24 -82t-14 -73 l136 57q16 32 34 64.5t38 60.5q34 48 63 80t54 51.5t47 28t43 8.5q38 0 65.5 -14t45.5 -36.5t27 -51.5t9 -57q0 -24 -2.5 -42t-11 -34t-24.5 -30.5t-42 -31t-64 -36.5t-91 -46q0 -83 4 -139.5t12.5 -91.5t21.5 -50.5t31 -15.5q20 0 46 17t60 53t77 91.5t96 133.5 q14 0 28.5 -4t26 -12t18.5 -20t7 -28q0 -22 -14 -55t-38.5 -73t-57.5 -82.5t-71 -84t-80 -79t-84 -66t-82 -44.5q-40 -17 -76 -17q-50 0 -84.5 17.5t-56.5 55.5t-32 98t-10 146q0 38 2.5 77t7.5 73l-92 -37q-3 -34 -5 -69.5t-4 -77t-3 -92t-3 -116.5q-17 -18 -44.5 -28 t-63.5 -10q-30 0 -57 8t-50 23.5t-41 36t-31.5 44.5t-21 50t-7.5 53z" />
<glyph unicode="l" horiz-adv-x="532" d="M43 131q0 34 5 75.5t12.5 85.5t17.5 88.5t19 84t16.5 72.5t11.5 55q9 50 20 109t22 121t21 122t17 113q14 104 46.5 185.5t78.5 138.5t102 87.5t117 30.5q33 0 59.5 -8t45 -25.5t28.5 -45.5t10 -66q0 -22 -4 -47t-12.5 -54t-23 -64.5t-36 -81t-51 -103.5t-67.5 -130 q-10 -37 -22.5 -80.5t-25 -90.5l-25 -94t-24 -92.5t-21.5 -86t-18 -73.5t-12 -56t-4 -33q0 -17 7.5 -23.5t21.5 -6.5q24 0 57.5 20.5t71.5 58t80 89.5t82 114q14 0 28 -5t25 -14t18 -22t7 -29q0 -29 -15 -64.5t-41 -74.5t-61 -79.5t-75.5 -78t-85 -70.5t-90 -57t-89 -38 t-82.5 -14q-44 0 -75.5 9.5t-50.5 29t-27.5 49t-8.5 69.5z" />
<glyph unicode="m" horiz-adv-x="1372" d="M70 223q0 30 4 63.5t11 69.5t18 73t24 73q-12 29 -16.5 62.5t-4.5 63.5t13 62t35 62.5t51 57.5t61 47.5t66 32t66 11.5q44 0 66 -19.5t22 -66.5q0 -19 -3 -42t-10.5 -52t-20 -63t-30.5 -74q56 97 104 158.5t89.5 96.5t78 48.5t70.5 13.5q29 0 51.5 -9.5t37.5 -25.5 t23 -38t8 -48q0 -20 -1 -39.5t-6 -42.5t-15 -51t-28 -65q63 94 115.5 159t98.5 105t84 58t72 18q36 0 62 -13t43 -33.5t26 -48t9 -57.5q0 -40 -14 -93t-42 -118q-9 -22 -21.5 -51t-25.5 -60.5l-26 -63t-23 -59.5t-16 -50.5t-6 -34.5q0 -17 7 -24t21 -7t44 19.5t71.5 58.5 t91 96.5t103.5 132.5q14 0 28 -5t25.5 -13.5t18.5 -21t7 -28.5q0 -24 -15.5 -58t-43.5 -74t-64.5 -82.5t-79 -83t-88.5 -77.5t-91 -64t-87 -43.5t-78 -16.5q-46 0 -76.5 10t-49.5 30.5t-27.5 51.5t-8.5 73q0 34 9 76t23 85t29 85.5t29 78t23 62.5t9 37q0 24 -25 25 q-7 0 -23 -8.5t-39 -26.5t-51 -48q-27 -28 -57 -70q-11 -59 -20 -111.5t-16 -101.5t-12 -98t-7 -101q-8 -8 -16 -14t-17 -9.5t-21 -5.5t-28 -2q-43 0 -78.5 9.5t-61.5 29.5t-40 52.5t-15 78.5q0 30 5.5 66t15.5 75t22 80q12 40 26 76q6 17 12.5 33.5t11.5 31.5t8.5 28 t3.5 20q0 14 -6 19.5t-19 5.5q-7 0 -20 -7t-31 -23t-42 -43t-54 -69q-10 -59 -19 -111.5t-16 -101.5t-11 -98q-6 -49 -8 -101q-8 -8 -15 -13t-16 -8t-21 -4t-30 -1q-43 0 -79.5 19t-63 51t-42 73.5t-15.5 87.5z" />
<glyph unicode="n" horiz-adv-x="968" d="M72 226q0 58 12.5 121t38.5 135q-12 29 -16.5 62.5t-4.5 63.5t14 67t38 74t55 72t66 62.5t70 44t67 16.5q26 0 43 -5t27 -15t14 -26.5t4 -39.5q0 -19 -5 -53.5t-15 -75.5t-26 -85t-36 -81q56 97 110 164t103 108t91 60t76 19q36 0 62.5 -11t44 -30t26.5 -45t9 -56 q0 -41 -14 -96q-14 -56 -46 -129q-9 -22 -20 -48.5t-22.5 -54.5t-22 -55t-19 -51.5t-13.5 -44.5t-5 -33q0 -17 7.5 -23.5t21.5 -6.5q16 0 46.5 19t70 55.5t86 90t94.5 121.5q14 0 28.5 -5t26 -13.5t18.5 -21t7 -28.5q0 -24 -15.5 -57t-42 -71t-62.5 -78.5t-77 -79t-86 -72.5 t-89 -60t-86 -41t-77 -15q-45 0 -76 10t-50 30t-27 52t-8 74q0 34 7.5 72t19 77.5t25.5 77t25 69.5t19 56q8 22 8 34q0 24 -24 25q-7 0 -22.5 -6.5t-37.5 -22.5t-49 -44q-27 -26 -57 -68q-11 -59 -19 -108t-13.5 -94t-9.5 -90q-4 -46 -6 -98q-8 -8 -15 -13t-16 -8t-21 -4 t-30 -1q-43 0 -79.5 19t-63 51t-42 74t-15.5 88z" />
<glyph unicode="o" horiz-adv-x="844" d="M58 282q0 85 17 166t48 152.5t72.5 131t90 103t102.5 67.5t108 24q20 0 41 -5t38.5 -15t28.5 -28q12 -16 12 -42q22 26 47.5 41.5t55.5 15.5q32 0 55.5 -10.5t38.5 -28.5t23 -43t8 -55q0 -24 -3.5 -54t-10 -62t-15 -65.5t-18.5 -67t-21 -65.5q-10 -31 -22 -59q5 -4 15 -9 q9 -6 25 -6q44 0 90 38q46 36 97 118q14 0 28.5 -5t25.5 -15t18.5 -24t7.5 -30q0 -22 -11 -50.5t-31 -59.5t-48.5 -61t-63 -53.5t-74.5 -38.5q-39 -15 -83 -15q-28 0 -47 5t-35 15q-36 -50 -76 -88t-83 -64.5t-90 -40t-101 -13.5t-102 18t-83 55t-55 93t-20 130zM348 358 q0 -38 6 -62.5t17 -39t24 -20.5t27 -6q18 0 35 6.5t32 18t28 26.5t23 33q-8 18 -14 40t-10 47t-6 51t-2 50q0 30 4.5 64t13 70t21.5 71t29 65q-32 -15 -61 -39.5t-54.5 -56.5t-46 -70t-35.5 -79t-23 -84t-8 -85z" />
<glyph unicode="p" horiz-adv-x="952" d="M-6 -344q0 43 25 119.5t81 179.5l21 594q3 88 19.5 160.5t43 130t59.5 101t70.5 71.5t76 42.5t75.5 14.5q32 0 57 -7t43 -19.5t27.5 -31t9.5 -40.5v-11t-2 -12q-28 -26 -55 -58t-51 -73t-44 -93t-36 -116q50 73 98 128t93 91.5t85 55t72 18.5q38 0 68 -13.5t50.5 -37.5 t32 -58t11.5 -75q0 -48 -16.5 -101.5t-46 -111t-71.5 -116.5q-42 -60 -92 -120q17 -11 34.5 -16.5t41.5 -5.5q18 0 50 15t73 47t90 83.5t101 124.5q14 0 28.5 -5t26 -13.5t18.5 -21t7 -28.5q0 -24 -15 -56t-41 -68t-61 -74.5t-76 -75t-85 -68.5t-87.5 -56t-85 -38t-76.5 -14 q-36 0 -63 8.5t-47.5 23t-34.5 34.5t-23 42t-13 45t-4 45q0 18 4 35t13 30t23 23.5t34 16.5q28 54 46 101.5t18 81.5q0 32 -10.5 44t-30.5 12q-10 0 -22.5 -5.5t-29.5 -19t-39 -34.5t-52 -53q-6 -143 -14.5 -269.5t-20 -232.5t-26.5 -190t-35 -142t-45 -89t-56 -31 q-24 0 -49.5 6t-50 18t-46 28.5t-38 37t-26 43.5t-9.5 49z" />
<glyph unicode="q" d="M51 299q0 63 19.5 131t52.5 133t76.5 123t93 102.5t101.5 69.5q52 26 100 26q22 0 33.5 -3t19.5 -11q6 56 9 98t3 78q6 7 16 12.5t20.5 9.5t21.5 5.5t20 1.5q48 0 90 -15.5t73 -40.5t48.5 -54t17.5 -55q0 -30 -6 -60.5t-16 -66t-22 -78.5t-24 -99q-9 -44 -17.5 -97 t-16.5 -108t-14 -110t-12 -103q28 22 64 56.5t75 77t78.5 92t74.5 102.5q21 0 37.5 -5.5t28.5 -15t18 -21.5t6 -26q0 -25 -17 -61t-47 -78.5t-70.5 -89t-85.5 -91.5t-92.5 -86.5t-92.5 -74.5l-13 -178q3 -14 9 -36.5t12 -49.5t10.5 -55t4.5 -56q0 -24 -5 -46t-16.5 -38 t-31 -25t-48.5 -9q-34 0 -67 9t-63 25t-55.5 37t-44.5 44.5t-30 48t-11 46.5q0 28 6 56t16 56t23 57t29 59q2 18 6 48t8 69t9 84t10 92q-16 -46 -39.5 -83.5t-53 -64.5t-62 -42t-64.5 -15q-48 0 -86 21t-64 60t-39.5 94t-13.5 124zM352 385q0 -30 3 -49.5t8 -30.5t14 -15 t23 -4q20 0 40 11t46 37q6 47 12 102t13 109.5t13 104t12 85.5q-29 -16 -53.5 -40t-45.5 -53t-36.5 -62t-26 -66.5t-16.5 -66.5t-6 -62z" />
<glyph unicode="r" horiz-adv-x="784" d="M43 360q0 12 3 26q4 14 12 24q20 28 37 53t33 49t30 50t26 58q-12 14 -21 34t-9 50q0 36 16 76t43 78t62 73t72 61.5t72 42t65 15.5q26 0 47 -6t36.5 -17t24 -27t8.5 -38t-6 -40q-37 -20 -67.5 -44t-51.5 -59q17 -9 44 -19t53 -18q45 -13 73.5 -25.5t44.5 -25.5t21.5 -28 t5.5 -33q0 -31 -15.5 -68.5t-39.5 -87.5q-18 -35 -34 -70.5t-28 -68.5t-19 -60t-7 -47q0 -22 7 -35.5t27 -13.5q14 0 35 10.5t46.5 29t54 45t58.5 59.5t59 72t57 81q19 0 34.5 -5.5t27 -14.5t18 -20.5t6.5 -23.5q0 -24 -16 -58t-42.5 -73t-63 -81t-77.5 -82.5t-86.5 -76.5 t-90 -63t-86.5 -43t-77 -16q-94 0 -144.5 42.5t-50.5 129.5q0 34 8 70.5t19 72t24 69.5t24 63t18 51.5t7 36.5q0 18 -16.5 29.5t-50.5 25.5q-24 -46 -45.5 -82.5t-42.5 -68.5t-43 -60q-22 -30 -47 -58q-20 0 -35 7t-25.5 18t-16 25t-5.5 30z" />
<glyph unicode="s" horiz-adv-x="751" d="M16 268q0 30 3 66t9.5 71t17 68t25 59t34.5 41t45 15q27 0 50.5 -15t40.5 -37t27 -47t10 -45q0 -16 -3 -30t-10 -27.5t-17 -27t-22 -27.5q6 -34 21 -62t34 -48t39 -31t38 -11q8 0 16 2.5t14 8t10 14.5t4 23q0 26 -9 63t-22 79t-29 88t-29 91t-22 85t-9 72q0 64 25 118 t68.5 92.5t103 60t129.5 21.5q89 0 138.5 -38t49.5 -112q0 -32 -12 -62t-30 -48q-59 24 -109 24q-32 0 -48.5 -11t-16.5 -39q0 -23 8.5 -51.5t21.5 -62t28 -70t28 -74.5t21.5 -77t8.5 -76q0 -62 -16 -111.5t-45 -87.5t-67 -66t-82 -45t-91.5 -25.5t-93.5 -8.5 q-60 0 -111.5 20t-90.5 59.5t-61 97.5t-22 134z" />
<glyph unicode="t" horiz-adv-x="674" d="M80 236q0 22 4.5 57.5t15.5 89t30 126.5t48 171q-16 2 -29.5 4t-24 7t-16.5 15t-6 27q0 24 8.5 45.5t25 38.5t40.5 28t56 11q1 16 1.5 31t1.5 32.5t3 38.5q2 22 6 50q7 68 30 124.5t58.5 97.5t81.5 64t98 23q36 0 61.5 -6.5t42 -21t25 -37.5t8.5 -56q0 -16 -2.5 -31.5 t-8 -34t-15 -41.5t-24.5 -54.5t-35 -72.5l-48 -96q24 1 51 2.5t51 3.5t44 4t30 4q10 -7 17 -16.5t12 -21.5t7.5 -24t2.5 -24q0 -29 -9 -53.5t-25 -43.5t-37.5 -29t-47.5 -10h-35t-35 1.5t-37.5 4t-41.5 6.5q-21 -84 -35 -148.5t-22 -110t-11.5 -73.5t-3.5 -39 q0 -36 11.5 -53.5t43.5 -17.5t73 18t89 55t99 92t104 129q14 0 29 -5t26.5 -14t19 -22t7.5 -29q0 -22 -14 -55t-38.5 -71.5t-59 -80t-75 -81.5t-85.5 -76t-92 -63.5t-94 -43.5t-91 -16q-59 0 -107.5 15.5t-83.5 48.5t-54 85t-19 122z" />
<glyph unicode="u" horiz-adv-x="927" d="M47 150q0 23 5.5 55.5t15.5 73.5t25.5 87t35.5 95q-17 32 -22 64t-5 63q0 32 15.5 70.5t41 78t60 77t72 66.5t76.5 46.5t75 17.5q24 0 42.5 -4t31 -14t18.5 -25.5t6 -38.5q0 -50 -39 -140t-118 -218q-16 -56 -24.5 -100t-8.5 -68q0 -25 10 -39.5t31 -14.5q13 0 31 9 t37.5 22t38.5 29q18 17 34 33q26 83 45 153t32 134t20.5 126t11.5 128q16 20 39.5 29t46.5 9q43 0 79 -14t63 -37t42 -53t15 -62q0 -14 -2 -29t-6 -34t-12 -42t-19 -55q-10 -29 -24 -63t-28.5 -69.5t-28.5 -69.5t-24.5 -62.5t-17 -50t-6.5 -31.5q0 -20 8 -26t20 -6 q18 0 45 16t62 48t78 82.5t92 119.5q16 0 31.5 -5t27 -13t18.5 -20t7 -26q0 -28 -17.5 -65t-48.5 -78.5t-71 -85t-84 -81.5q-36 -32 -74 -60t-75.5 -48.5t-73 -32t-68.5 -11.5q-32 0 -56.5 6t-42.5 21t-27 40.5t-9 65.5q0 22 3 48q3 27 9 59q-37 -70 -77.5 -121.5t-82 -85 t-81.5 -49.5q-41 -17 -75 -17q-45 0 -73.5 12.5t-45.5 37.5t-23.5 61t-6.5 82z" />
<glyph unicode="v" horiz-adv-x="874" d="M56 270q0 38 7.5 82t23 89t38.5 91t53 90q-19 9 -30.5 22t-18 27.5t-8.5 29t-2 28.5q1 38 24 76.5t62.5 68.5t92.5 49q54 19 114 19q30 0 57 -6t47.5 -20t32.5 -36t12 -52q0 -6 -0.5 -12.5t-1.5 -12.5q-49 -46 -88 -102.5t-66.5 -117t-42 -122t-14.5 -117.5q0 -30 4 -51 t12 -33.5t20 -18t30 -5.5q21 0 45 18t48.5 51t46.5 80t39 104t27 123q11 68 11 140q0 14 -1 34t-3 42l-4 44q-3 22 -5 38q14 18 41 30t64 12q48 0 80.5 -16t53 -43t29.5 -62t9 -73q0 -110 -23.5 -210.5t-64.5 -187t-96.5 -156.5t-119 -119t-131.5 -76t-134 -27 q-58 0 -108 16t-86 51t-56 90t-20 131z" />
<glyph unicode="w" horiz-adv-x="1239" d="M45 238q0 61 11.5 115.5t32.5 107.5t51.5 105t68.5 106q-14 12 -23.5 26t-14 29t-6 30t-1.5 29q0 32 12.5 63t34 59t51 51t64.5 40.5t73.5 27t79.5 9.5t69.5 -9.5t46 -26.5t25.5 -39.5t8 -48.5v-16t-2 -16q-33 -34 -65.5 -78.5t-61.5 -94t-54 -101.5t-43.5 -102t-29 -96 t-10.5 -82q0 -48 14 -67q16 -19 40 -19q8 0 19.5 1t25 4t27.5 10t26 17q-2 10 -2 31.5v44.5q0 60 11 121t30.5 117t45 105t54.5 84.5t60 56t61 20.5q39 0 66.5 -12t44.5 -33t25 -49t8 -62t-9.5 -82t-29 -102t-50.5 -112t-73 -114q4 -42 20 -61.5t37 -19.5t40 15t36 40.5 t31 60.5t25.5 75t20.5 82t15 83.5t9.5 80t3.5 68.5q0 18 -1.5 40t-3.5 43t-3.5 41t-2.5 36q14 23 41.5 37.5t63.5 14.5q33 0 58 -9.5t43.5 -25t31.5 -36.5t21 -44t12 -46t4 -44q0 -91 -19 -182t-53 -175t-82 -156.5t-106.5 -126t-125.5 -84t-139 -30.5q-60 0 -103.5 32.5 t-70.5 104.5q-28 -27 -60.5 -49.5t-67 -38.5t-70.5 -25t-72 -9q-54 0 -98.5 14.5t-77 46t-50.5 80.5t-18 119z" />
<glyph unicode="x" horiz-adv-x="952" d="M-35 223q0 40 8 80t22.5 76t34.5 66.5t44 53.5t51 35.5t55 12.5q18 0 34.5 -4.5t30 -12.5t24.5 -16t15 -16q-3 -8 -7.5 -23t-9.5 -33t-10 -38t-9 -41t-6 -40t-2 -34q0 -19 4.5 -30t13.5 -11q10 0 26 11t36 31t42 48t44 62q-12 47 -23 83.5t-21 64.5t-18 47t-14 31 q-38 0 -65 6.5t-43 19t-24 32t-8 45.5q0 30 11 62t29 62t42 56.5t51 46.5t56 32t57 12q14 0 30 -4t32 -13t30 -26t27 -43q20 -44 41 -106t41 -134q34 59 61.5 102.5t49.5 73.5t40 49t34.5 30t32 15t32.5 4q29 0 50 -13t34.5 -33.5t20 -45.5t6.5 -49q0 -7 -2 -17t-4 -20.5 t-5.5 -20t-7.5 -14.5q-22 -8 -41.5 -15.5t-38.5 -19.5t-39 -29t-45 -43t-56.5 -62t-72.5 -87q8 -34 17.5 -73.5t17.5 -71.5q6 -26 12.5 -42t15.5 -25t20 -12t27 -3q22 0 53 16.5t68.5 50t81.5 84.5q45 51 93 119q14 0 28 -6t24 -16t17 -23t7 -29q0 -20 -14 -51t-39 -68 t-58 -77t-71.5 -79t-80 -74t-83.5 -61.5t-81 -42t-73 -15.5q-42 0 -74 8t-56 27t-41 51t-28 78q-4 18 -9 35q-6 17 -10 34q-36 -58 -75 -103t-77 -76.5t-74 -47.5t-66 -16q-48 0 -84 13t-60 43t-36.5 78t-12.5 119z" />
<glyph unicode="y" horiz-adv-x="889" d="M62 -379q0 26 8 55t28 62.5t55 72.5t89 83q-4 20 -9 39t-10.5 42.5t-13 51.5t-17 63.5t-21.5 80.5q-11 45 -27 101t-27 100t-18.5 83t-10.5 75q-4 36 -4 78q0 50 14 96t37 85.5t55 71t67 53.5t73 34t74 12q34 0 57.5 -7t38.5 -20t21.5 -33t6.5 -44q-38 -27 -61.5 -53.5 t-37 -56.5t-18.5 -64t-5 -74q0 -39 14 -119.5t45 -195.5q14 14 28.5 30.5t26.5 32t22 29t15 23.5q-2 16 -3 33.5t-1 37.5q0 37 3 78t9 81.5t14.5 79t20.5 70.5q10 32 21.5 54t24.5 36t28.5 20.5t35.5 6.5q22 0 44 -9.5t41.5 -25.5t36 -38t28.5 -45t18 -47t6 -46 q0 -28 -6 -58t-18.5 -65t-33 -73t-48.5 -82q4 -12 12 -23t16.5 -19t18 -13t19.5 -5q24 0 49 14.5t49 38t46 53.5t42 62q14 0 28 -5t25 -15t18 -24t7 -30q0 -30 -14 -63t-38 -64.5t-56 -59.5t-68 -49t-74 -33.5t-76 -12.5q-22 0 -42 3t-39 10t-35 18t-29 27 q-10 -14 -25 -31.5t-31.5 -34t-34.5 -32.5t-32 -30q4 -26 7 -53t5 -52t3 -47t1 -38q0 -54 -11.5 -104.5t-33 -96t-52 -83.5t-68 -65t-81.5 -43t-92 -16q-34 0 -59 9t-41 25.5t-23 38.5t-7 48z" />
<glyph unicode="z" horiz-adv-x="839" d="M33 358q0 37 13 69.5t38.5 58t62.5 44t87 27.5q22 -18 42 -36q18 -16 38 -33.5t36 -33.5q31 14 61.5 37t54.5 45q28 26 54 54q-34 18 -59 32t-45 24t-36 15t-30 5q-22 0 -49.5 -8.5t-50.5 -22.5q-16 4 -28.5 12.5t-21 21.5t-13.5 31t-5 44q0 36 17.5 74t47 70t67.5 53 t79 21q20 0 38 -1.5t37 -6t41 -13.5t50.5 -23t66.5 -34q36 -20 86 -46q12 18 23.5 33t22 25t21.5 16t22 6q18 0 36.5 -11.5t33.5 -30t24.5 -43.5t9.5 -51q0 -30 -14.5 -63.5t-41 -66t-65.5 -62.5q-38 -32 -88 -56q-62 -70 -122 -119t-124 -81q14 -20 27.5 -38t25 -35 t21.5 -30.5t16 -23.5q11 -16 20.5 -25.5t18.5 -14.5t19 -7q8 -2 20 -2t26 4t33 12t44 20t57 29q11 -5 20 -15t15.5 -22t10.5 -27t4 -30q0 -34 -15 -67t-39.5 -62.5t-57 -54t-68.5 -42.5t-73 -28t-71 -10q-39 0 -69.5 5t-57.5 19.5t-53 40.5t-56 68t-66 102t-83 144 q-17 6 -32.5 17t-27.5 26.5t-19 33.5q-7 17 -7 37z" />
<glyph unicode="{" horiz-adv-x="1132" d="M266 524q0 22 10 48t31.5 47.5t56 36t84.5 14.5q17 0 38.5 -3t44.5 -8t45 -13q20 -10 38 -22q32 18 53 37.5t33 41t17.5 46.5t5.5 56q0 26 -2.5 60t-5.5 70.5t-6 73.5t-3 68q0 67 23 126t68 102t111 68.5t151 25.5q37 0 67 -8t52 -22.5t34 -34.5t12 -44q0 -15 -4 -30.5 t-10 -24.5q-64 -8 -103 -17.5t-61 -27.5t-29 -48t-7 -79v-227q0 -53 -13 -106.5t-43 -99t-80 -80t-124 -50.5q22 -32 32 -68t10 -80q0 -48 -11 -101.5t-25 -109t-25.5 -111t-11.5 -108.5q0 -28 7 -51.5t24.5 -43t48.5 -35.5q31 -18 77 -32q2 -5 2 -10.5v-9.5 q0 -27 -12 -52.5t-37 -45.5t-62 -32t-85 -12t-88 11t-71 30.5t-54 45t-39 55t-23 61t-7 62.5q0 46 10 91.5t26 90.5t35 87t35 82t26 76t10 66q0 18 -5.5 32.5t-19 24.5t-35.5 15.5t-54 5.5q-9 0 -25.5 -1t-35 -2t-35.5 -3t-27 -4q-18 18 -29 42q-10 22 -10 58z" />
<glyph unicode="|" horiz-adv-x="917" d="M338 -135q0 38 3 77.5t11 87.5t20 109t30 141q18 82 37 174t38 187.5t37.5 193t34.5 192.5t29 184t22 169q11 6 27.5 9t32.5 3q33 0 59.5 -14t45.5 -41.5t29 -67.5q11 -39 11 -91q0 -26 -3.5 -60t-12.5 -82t-24 -112.5t-38 -152.5t-54 -202.5t-73 -261.5 q-48 -167 -73 -309t-31 -256q-9 -11 -23.5 -16.5t-36.5 -5.5t-40 11t-31 31t-20 46.5t-7 56.5z" />
<glyph unicode="}" horiz-adv-x="1143" d="M133 -295q0 16 5 31q4 14 10 24q42 5 73.5 11t54 14.5t36.5 20t22 29t11 41.5t3 56v228q0 36 5.5 71t18 69t32.5 64.5t49 56t67 45.5t88 30q-22 32 -32.5 68t-10.5 79q0 48 11.5 101.5t25.5 109t25.5 111t11.5 108.5q0 28 -7 51.5t-25 43.5t-48.5 36t-76.5 31q-2 4 -2 10 q-1 7 -1 11q0 27 12.5 52t37.5 44.5t62 31.5t85 12t88 -11t71 -30t54 -44.5t39 -55t23 -60.5t7 -63q0 -46 -10.5 -91.5t-26 -90t-34.5 -87t-35 -82t-26.5 -75.5t-10.5 -67q0 -18 6 -32.5t19.5 -24.5t35.5 -15.5t54 -5.5q9 0 25.5 0.5t34.5 2t35 3.5q17 3 27 5q18 -18 29 -42 t11 -59q0 -22 -10 -47.5t-32 -47.5t-56 -36t-84 -14q-17 0 -38.5 2t-44 7.5t-44.5 14.5q-21 8 -39 20q-32 -18 -53 -37t-33 -40t-17.5 -46t-5.5 -57q0 -26 2.5 -60t5.5 -70.5l6 -73t3 -68.5q0 -67 -23 -125.5t-68 -102t-111 -69t-151 -25.5q-37 0 -67.5 8t-52.5 23t-34 34.5 t-12 43.5z" />
<glyph unicode="~" horiz-adv-x="1024" d="M221 1130q0 38 12.5 70.5t43.5 58t81 44t126 28.5q66 8 115 16t85.5 17.5t62.5 19.5t45.5 23t35.5 27t32 32q34 -7 59 -22.5t41 -37.5t23.5 -47t7.5 -51q0 -50 -23.5 -89t-74 -66t-129.5 -43q-80 -16 -192 -22q-54 -2 -94.5 -7.5t-70 -14t-51.5 -21.5q-20 -13 -38 -31 q-18 2 -36 11t-31 24t-21 35q-9 20 -9 46z" />
<glyph unicode="&#xa1;" horiz-adv-x="727" d="M12 -467q0 20 6.5 49.5t20 67t33.5 82t47 94.5q24 71 46.5 143.5t43 149.5t39.5 159.5t39 175.5q8 4 22.5 8.5t30.5 4.5q32 0 57 -16.5t43 -42.5t27 -60t9 -70q0 -22 -2 -54t-6.5 -70t-10.5 -82t-14.5 -90t-18.5 -93.5t-22 -93.5q12 -30 18 -63t6 -64q0 -26 -11.5 -54 t-32 -53.5t-48.5 -48t-61.5 -39.5t-70.5 -27t-75 -10q-32 0 -54 6.5t-35.5 18.5t-19.5 30t-6 42zM293 672q0 30 6.5 62t19.5 62.5t30 58t39 48.5t47 33t53 12q33 0 62.5 -14t52.5 -37t37 -53t14 -60q0 -25 -12 -49.5t-32 -46.5t-46 -41.5t-56 -33t-60 -21.5t-58 -8t-47 5.5 t-30 17t-15.5 27.5t-4.5 38z" />
<glyph unicode="&#xa2;" horiz-adv-x="891" d="M110 297q0 76 12.5 151.5t37 145.5t61.5 132t86 113t111 88t137 56q31 110 44 181q13 72 15 102q14 8 34.5 12t37.5 4q23 0 42.5 -7t33 -20t21 -31t7.5 -40q0 -15 -3 -33.5t-10 -42t-19 -52.5t-29 -65q66 -12 98.5 -53t32.5 -104q0 -30 -6 -61.5t-16.5 -60t-26 -54 t-34.5 -44.5t-41.5 -29.5t-47.5 -10.5q-20 0 -37 4t-27 14q2 13 5 28t4.5 30t2.5 29q1 13 1 25q0 31 -12.5 48.5t-38.5 17.5q-17 0 -37.5 -11t-42 -34t-41.5 -58.5t-35.5 -84.5t-24.5 -111.5t-9 -140.5q0 -38 6.5 -65t19 -44t31.5 -25t43 -8q31 0 60.5 12t60.5 34t64 54 t69 74q14 -4 26 -12t20 -20t12.5 -27t4.5 -31q0 -25 -9 -53.5t-26.5 -58.5t-42.5 -59.5t-58.5 -55t-74 -46.5t-88.5 -34q-6 -34 -9 -67t-3 -64q0 -46 6 -94t20 -94q-10 -22 -32 -34t-52 -12q-38 0 -64 12t-42 33t-23.5 50t-7.5 63q0 44 7 96q8 52 20 116q-51 12 -92.5 37 t-70.5 64.5t-45 95t-16 130.5z" />
<glyph unicode="&#xa3;" horiz-adv-x="1028" d="M80 35q2 34 14.5 61.5t33 48.5t49.5 33t65 16q8 22 14 47.5t14 53.5q-44 3 -82.5 6t-64.5 6q-10 11 -13.5 22t-3.5 23q0 24 12 46t37 40t64 30t93 16q3 12 4.5 22t5.5 20q32 150 76.5 258.5t100.5 178t122.5 102.5t142.5 33q54 0 97 -15t73.5 -41t47 -63t16.5 -82 q0 -52 -22 -95q-20 -42 -62 -69q-46 42 -89 61t-83 19q-34 0 -57 -12.5t-40 -42.5t-31 -82t-32 -131q-3 -12 -5.5 -24.5l-4.5 -22.5q36 3 62.5 7t48 9.5t39.5 12.5t38 15q10 -5 19 -11.5t15 -16t9.5 -22t3.5 -29.5q0 -44 -20.5 -76t-59 -53.5t-92.5 -33.5t-121 -14 q-14 -44 -27.5 -81.5t-27.5 -67.5q44 -22 79.5 -37.5t64.5 -26.5t54 -16.5t47 -5.5q19 0 40 9.5t41.5 29.5t40.5 54t38 82q60 0 90.5 -34t30.5 -98q0 -42 -13.5 -83t-37.5 -77t-57 -67t-73 -54t-84 -36q-46 -13 -92 -13q-42 0 -86.5 13.5t-90.5 35.5t-92.5 50.5t-93.5 58.5 t-93.5 59.5t-91.5 53.5z" />
<glyph unicode="&#xa4;" horiz-adv-x="1071" d="M72 450q0 22 11 42t34 36t58 28t83 16q22 68 53.5 129t71 113t85.5 94t95.5 71t102 44t104.5 15t90 -13t62 -34.5t35 -50.5q11 -30 11 -62q0 -36 -16 -65t-44 -51q-18 8 -40 15t-47 13t-53 10q-28 3 -56 3q-26 0 -51 -11.5t-48 -37.5t-42 -67t-33 -101q52 4 93 8t73.5 10 t58 13t46.5 16q10 -6 19 -12.5t15.5 -16t9.5 -22t3 -29.5q0 -34 -20 -63.5t-61 -52.5t-104 -38t-151 -20v-4q0 -44 7.5 -79.5t25 -60t45.5 -38t70 -13.5q36 0 73 13.5t73 36t70.5 52t63.5 62.5q16 -3 28 -11.5t19 -20.5t11 -27.5t4 -32.5q0 -29 -15 -63.5t-42.5 -68.5 t-66.5 -66t-86.5 -56t-103 -39.5t-116.5 -15.5q-82 0 -149 22.5t-114 69t-73 116.5q-25 71 -25 165q0 17 0.5 33.5t1.5 33.5q-38 2 -72.5 4.5t-58.5 6.5q-9 9 -13.5 24.5t-4.5 27.5z" />
<glyph unicode="&#xa5;" horiz-adv-x="1022" d="M-10 -152q0 22 10 40t32 32t60 22q36 8 92 9q54 2 99 3.5t85 4.5q-4 26 -10 56.5t-16 64.5l-76 4t-73 4.5t-64 4.5q-29 1 -47 3q-11 9 -16 25q-4 17 -4 29q0 22 9.5 40t32 31t59.5 21t93 10h41l-51 182q-22 74 -31.5 144t-9.5 132q0 51 12.5 97t34.5 85.5t52.5 70.5 t66 53.5t74.5 34.5t79 12q34 0 58 -7t39 -20.5t21 -33.5q7 -20 7 -44q-38 -27 -61.5 -53.5t-37.5 -56t-19 -63.5q-5 -35 -5 -75q0 -19 2.5 -44.5t8 -59.5t15.5 -78.5t26 -101.5q38 48 66.5 85.5t49 67t33.5 52.5t21 42.5t11 36t3 34.5t-3.5 32t-10.5 27t-18 27 q-12 14 -26 32q2 33 13 56.5t28 38.5t39 21.5t48 6.5q36 0 67 -12.5t55 -36t38 -59t14 -81.5q0 -58 -26 -118t-74 -124t-117 -133t-156 -145q38 6 67.5 13.5t54 16t47 17.5t48.5 21q31 -8 47.5 -31t16.5 -57q0 -38 -19 -68t-53.5 -51t-85 -35t-115.5 -20q3 -24 6 -46t5 -40 q18 4 33 9t30 11t30.5 13t32.5 14q31 -8 47.5 -31t16.5 -57q0 -66 -54 -106.5t-153 -57.5q-16 -43 -39 -77t-50.5 -58t-56.5 -36.5t-57 -12.5q-42 0 -68 10.5t-40 36.5q6 14 12 30.5l12 33t11 32.5t7 27q-28 1 -60 2.5t-66 3t-68 3.5t-64.5 3.5t-56 3t-41.5 2.5 q-10 10 -15 25.5t-5 27.5z" />
<glyph unicode="&#xa6;" horiz-adv-x="917" d="M338 -135q0 26 1 49.5t4 48.5t7 54t11 63.5t16 77t21 96.5q10 56 23 115t27 123q11 4 21.5 6t20.5 2q24 0 45.5 -9t38 -26t26.5 -43t10 -60q0 -16 -4 -39t-10 -43q-24 -83 -41.5 -156t-29.5 -139t-19.5 -126t-9.5 -117q-9 -11 -23.5 -16.5t-36.5 -5.5t-40 11t-31 31 t-20 46.5t-7 56.5zM516 815q0 12 1 24.5t3 26.5q22 139 44 267.5t36 246.5q11 6 27.5 9t32.5 3q33 0 59.5 -14t45.5 -41.5t29 -67.5q11 -39 11 -91q0 -20 -2 -45t-7 -56t-13 -70t-20 -90.5t-28.5 -116t-38.5 -144.5q-8 -2 -15 -2h-15q-36 0 -64 11t-47 32t-29 51t-10 67z " />
<glyph unicode="&#xa7;" horiz-adv-x="1024" d="M108 62q0 63 11 112.5t29 84t40.5 53t45.5 18.5q26 0 46 -13t34 -32t22 -41t8 -41q0 -14 -2 -27t-6 -25.5t-12 -24.5q-8 -14 -19 -28q12 -46 34.5 -82.5t50.5 -63t58.5 -40.5t57.5 -14q17 0 28.5 4t19 11.5t11 18t3.5 21.5q0 18 -14 49.5t-37 71.5t-51.5 89t-59 102.5 t-59 110t-51 113.5t-36.5 113t-14 106q0 54 15.5 102t49.5 88t87.5 75t129.5 63q0 60 19.5 110.5t56 86.5t88.5 55.5t117 19.5q48 0 87.5 -11t67.5 -31t44 -48t16 -63q0 -31 -11 -59t-30 -46q-13 7 -30 13.5t-36 12t-37.5 9t-35.5 3.5q-31 0 -46.5 -10t-15.5 -36 q0 -16 7 -43t18 -61.5t25 -75t29 -83t29 -85.5t25 -82.5t18 -74.5t7 -62q0 -54 -14.5 -96.5t-38 -74.5t-53.5 -55t-62 -38q31 -68 46 -124q14 -55 14 -109q0 -34 -11 -71t-32 -73t-52 -69t-73 -58t-95 -40t-117 -15q-52 0 -97 17t-83 46.5t-68.5 69t-51.5 85.5t-32.5 95 t-11.5 97zM504 738q0 -13 3 -28t10 -34.5t20 -46.5t32 -63.5t46.5 -85t64.5 -112.5q3 12 4.5 26t1.5 26q0 20 -6 54t-20 85t-37 122.5t-58 166.5q-14 -12 -25 -24.5t-19 -25.5t-13 -28q-4 -14 -4 -32z" />
<glyph unicode="&#xa8;" horiz-adv-x="897" d="M180 1235q0 58 6 100t18 68.5t29 39.5t39 13q30 0 57 -14t47 -35.5t32 -47t12 -49.5q0 -18 -6 -39t-21 -48t-40 -61t-62 -78q-22 0 -41.5 9t-35.5 27t-25 47t-9 68zM534 1266q0 62 7 105t19.5 69.5t31 38.5t43.5 12q20 0 41 -7t40.5 -18.5t36.5 -27.5t29 -33t19.5 -34 t7.5 -33q0 -18 -7.5 -43t-24.5 -56t-43 -69q-26 -36 -62 -82q-32 0 -57 10.5t-43 33t-28 56t-10 78.5z" />
<glyph unicode="&#xa9;" horiz-adv-x="1544" d="M112 375q0 115 25 220t71 196t111.5 165t148 126.5t180.5 81t208 28.5q96 0 175 -17.5t142 -50t110 -79.5t78 -104t47 -124.5t16 -142.5q0 -123 -25 -232.5t-71 -201.5t-112.5 -166t-150 -125t-183.5 -79t-212 -28q-80 0 -153 17t-135 49t-112 78.5t-85 105.5t-54 130.5 t-19 152.5zM282 426q0 -94 29 -173.5t84 -137t134 -89.5t181 -32q76 0 146 19t130 56.5t108.5 92.5t83 126.5t53.5 159.5t19 191q0 90 -26 165.5t-79 130.5t-135 85t-195 30q-82 0 -153.5 -23t-130.5 -64t-105.5 -99t-78 -127t-48.5 -148t-17 -163zM492 442q0 56 13 109 t36 100t54 87t69 68t79 44t85 16q36 0 63.5 -10t47 -27.5t29 -42.5t9.5 -55q0 -26 -8 -47.5t-22.5 -38t-35.5 -26t-47 -9.5q-8 26 -16.5 42.5t-17 26t-16.5 13.5t-16 4q-15 0 -30.5 -14t-27.5 -41t-20 -68t-8 -94q0 -23 3 -43t11 -35t20.5 -24t31.5 -9q25 0 48.5 10.5 t44.5 26.5t38.5 36.5t30.5 40.5q13 0 24.5 -5t20.5 -13t14 -18t5 -20q0 -26 -9 -53.5t-26 -53.5t-42.5 -49t-58 -40.5t-72.5 -27.5t-86 -10q-56 0 -97 18.5t-68 51.5t-40 79q-13 45 -13 101z" />
<glyph unicode="&#xaa;" horiz-adv-x="1020" d="M174 637q0 58 15 115t41 109.5t60 98t73 79t79.5 52.5t79.5 19q10 0 19.5 -1t15.5 -3q2 18 2 38v40q21 24 61 24t72 -12.5t53 -32t32 -43.5t11 -45q0 -17 -4 -43t-14 -57q-37 -134 -55.5 -216t-18.5 -110q0 -17 3 -22t7 -5q10 0 30 12t46.5 35.5t59 60t68.5 87.5 q14 0 25 -5t18.5 -13.5t11 -18.5t3.5 -22q0 -19 -10.5 -44t-29 -53t-43.5 -57.5t-54 -57.5t-59 -53t-59 -43.5t-56 -29t-47 -10.5q-27 0 -48.5 6t-37.5 21.5t-24 41t-8 63.5v9q-18 -38 -38.5 -63.5t-42 -41.5t-41.5 -22t-38 -6q-34 0 -63 14t-50 41t-33 68t-12 96zM414 700 q0 -18 2 -28t7 -16t11 -7.5t12 -1.5q12 0 26 11q16 10 26 24l47 295q-24 -21 -48 -52t-42.5 -67.5t-29.5 -77t-11 -80.5z" />
<glyph unicode="&#xab;" horiz-adv-x="1710" d="M402 383q0 30 13 57t37 51t60 44q36 21 80 35q54 39 104 79.5t95.5 83t88 89t82.5 96.5q18 -2 33.5 -12t26 -25t16.5 -33t6 -37q0 -32 -11 -66.5t-40 -75.5t-78 -90t-125 -110q44 -42 75 -78.5t49 -69.5t26 -64t8 -65q0 -35 -12 -67.5t-32 -57.5t-45 -40t-50 -15 q-6 0 -13.5 2t-15.5 4q-6 19 -15 37.5t-22 39.5t-31 45t-43.5 54t-59 67t-77.5 83q-20 -4 -41 -7t-41 -3q-23 0 -35.5 12t-12.5 37zM971 430q0 40 29.5 78t89.5 82q56 40 103 79t89 80t82 85t80 94q18 -2 33 -12t26 -25t17 -33t6 -37q0 -32 -11.5 -66.5t-40 -75.5t-78 -90 t-124.5 -110q44 -42 74.5 -78t49 -69t26.5 -64.5t8 -64.5q0 -36 -12.5 -68.5t-32 -57.5t-44.5 -40t-51 -15q-12 0 -28 6q-10 28 -25.5 57t-43 66t-70.5 86t-109 117q-18 17 -30.5 35t-12.5 41z" />
<glyph unicode="&#xac;" horiz-adv-x="1460" d="M207 557v139h950l2 -426h-139l-2 287h-811z" />
<glyph unicode="&#xad;" horiz-adv-x="946" d="M314 398q0 22 6 38.5t20 31t38.5 27t61.5 25.5q38 13 70 25t60.5 24t54 25.5t51.5 28.5t52 33q26 16 56 38q20 -1 40 -11.5t35 -28t24.5 -40t9.5 -46.5q0 -52 -31.5 -91.5t-96 -69.5t-164 -51.5t-235.5 -37.5q-12 4 -21 11.5t-16 18t-11 23.5t-4 27z" />
<glyph unicode="&#xae;" horiz-adv-x="1648" d="M342 828q0 109 23 208.5t66.5 185t105.5 155.5t139.5 119.5t169.5 76.5t196 27q136 0 238 -37t169 -103t100.5 -156t33.5 -196q0 -116 -23.5 -219t-66.5 -190t-106 -157t-142 -118t-173 -74t-200 -26q-78 0 -147 16t-128 46t-106 74t-80 100t-51 123t-18 145zM510 874 q0 -88 27 -162t78 -127.5t126 -83.5t169 -30q71 0 135.5 18t120.5 53t101 86.5t77 118.5t49.5 149t17.5 177q0 84 -23.5 154.5t-72.5 121.5t-126 79t-183 28q-76 0 -143 -21t-122 -60t-98 -92.5t-72.5 -118t-44.5 -138.5q-16 -74 -16 -152zM706 772q0 9 2 19.5t6 26.5t12 41 t22 63q8 26 17 52t19 54t20 59t20 66q-4 0 -13.5 -2t-20.5 -4.5t-24 -6.5l-24 -8q-14 4 -22 16t-8 32q0 22 17.5 44t49 39.5t76.5 28t99 10.5q66 0 114 -13.5t79 -38t46 -57.5t15 -73q0 -32 -8 -60t-24.5 -56t-41.5 -57t-59 -60q6 -7 10.5 -11.5t10.5 -11t13 -17.5t17 -30 q6 -10 10.5 -16t8.5 -9.5t8.5 -4.5t10.5 -1q16 0 36 6q12 -8 18 -20t6 -24q0 -21 -13 -41.5t-34.5 -37t-48.5 -26.5t-55 -10q-14 0 -24.5 2.5t-19 7.5t-16 14t-13.5 23q-17 34 -32 60t-29.5 44.5t-28.5 31.5q-14 12 -28 20q-5 -22 -10 -46t-9.5 -47t-7 -42t-3.5 -29 q-9 -18 -43 -18q-21 0 -39.5 8.5t-32.5 24t-22.5 37.5t-8.5 48zM905 928q30 0 47 -2q17 0 31 -2q18 26 30 46t19 38t9.5 34t2.5 33q0 32 -26 53.5t-74 24.5q-3 -36 -13 -94t-26 -131z" />
<glyph unicode="&#xaf;" horiz-adv-x="1024" d="M209 1233q0 20 8.5 38.5t27.5 32.5t48 23t69 11q70 4 122 8t91 8t67.5 10t54 14t50 18t54.5 24q30 -8 46.5 -31t16.5 -56q0 -40 -22.5 -71t-70 -51.5t-120.5 -30.5t-174 -10q-62 0 -123 2q-62 4 -122 8q-6 4 -10 11t-7 14.5t-4.5 15t-1.5 12.5z" />
<glyph unicode="&#xb0;" horiz-adv-x="819" d="M110 1168q-4 118 84 204q82 84 202 84q60 0 110.5 -21t95.5 -63q83 -84 86 -204q0 -116 -84 -204q-42 -42 -92 -63t-110 -21t-112 22q-52 20 -96 62q-42 42 -63 92q-21 52 -21 112zM207 1170q0 -84 55 -140q30 -30 64 -44q34 -13 74 -13t74 14.5t62 42.5q30 30 44 65 t14 75q-2 40 -16 74q-14 32 -44 62q-56 56 -136 56q-79 0 -138 -56q-28 -30 -41 -63t-12 -73z" />
<glyph unicode="&#xb1;" horiz-adv-x="1124" d="M84 538v140h404l-2 250h138l2 -250h404v-140h-404l2 -249h-138l-2 249h-404zM88 39v139h946v-139h-946z" />
<glyph unicode="&#xb2;" horiz-adv-x="639" d="M133 508q0 28 5.5 51t19.5 44t38 41.5t62 43.5q66 40 111 73t73 61.5t41 54t13 51.5q0 30 -13 46.5t-35 16.5q-12 0 -23 -8.5t-20.5 -27.5t-16.5 -49t-11 -76q-8 -4 -21 -8q-12 -5 -28 -5q-44 0 -70 29.5t-26 89.5q0 44 18 85t53 73t87.5 51t121.5 19q58 0 100 -17 t68 -46t38.5 -67t12.5 -80q0 -28 -5.5 -54.5t-19.5 -53t-38 -52.5t-60 -55t-86 -60t-116 -67q22 -14 39 -23t32 -14t27 -7.5t24 -2.5q16 0 46 12.5t75 38.5q20 -11 31 -33q12 -23 12 -49q0 -24 -11 -47t-29.5 -44t-43 -40t-50.5 -32t-53 -21t-51 -8q-29 0 -58.5 7.5 t-66.5 26t-84.5 51t-111.5 81.5z" />
<glyph unicode="&#xb3;" horiz-adv-x="645" d="M92 358q0 34 7.5 58.5t21 40t31.5 23.5t38 8q14 0 31 -4.5t29 -12.5q4 -30 16.5 -54t29.5 -40.5t36.5 -25.5t39.5 -9q28 0 45 12t17 35q0 21 -11 43t-37 46.5t-69 50.5q-43 27 -106 55q0 34 11.5 63.5t31.5 51t48 33.5q26 12 58 12q11 0 19.5 -1t18.5 -3q30 26 49 51 t30 49.5t16 46t5 37.5q0 30 -12 46.5t-34 16.5q-10 0 -18.5 -8.5t-16 -27.5t-12.5 -50t-9 -75q-8 -5 -21 -9t-29 -4q-22 0 -40.5 7.5t-32 22.5t-20.5 37t-7 52q0 44 17 86t51.5 74t86 52t119.5 20q60 0 103 -18t71 -47t41 -68t13 -81q0 -34 -10 -68.5t-34 -68.5t-63 -68.5 t-96 -68.5q36 -24 59.5 -50t37.5 -53t20 -53.5t6 -50.5q0 -66 -24 -121t-66 -94.5t-102 -61.5t-132 -22q-58 0 -105 16t-79.5 42t-50 60t-17.5 70z" />
<glyph unicode="&#xb4;" horiz-adv-x="594" d="M98 1126q53 76 93.5 138t67.5 113t41 93t14 80q17 26 42.5 41t59.5 15t60 -10t44 -27t26 -41q9 -24 9 -52q1 -90 -157 -254q-32 -32 -66.5 -59t-68 -47t-63.5 -31.5t-54 -11.5q-22 0 -35 12.5t-13 40.5z" />
<glyph unicode="&#xb5;" horiz-adv-x="1179" d="M144 920h188l4 -606q2 -146 30 -195t103 -49q59 0 107 41t86 125q38 82 57 186t19 232l-3 266h189l4 -672q2 -46 6.5 -80t13.5 -56q11 -22 25.5 -32t34.5 -10q44 0 65 42q11 22 17 53t4 73v28h42q0 -4 1 -9t1 -9q0 -5 1 -11.5t1 -15.5q0 -57 -12 -101t-36 -75 q-23 -32 -56.5 -47.5t-77.5 -15.5q-52 0 -91.5 21t-65.5 67q-26 44 -39.5 109t-15.5 155q-22 -92 -53 -158t-71 -108q-40 -44 -88 -65t-108 -21q-90 0 -152 53q-30 28 -50 67q-20 38 -32 90q0 -10 -1 -23t-1 -34q0 -65 18 -137t50 -152q36 -80 52 -127t16 -61q0 -20 -6 -36 t-17 -28q-12 -11 -27.5 -16.5t-35.5 -5.5q-23 0 -40 8t-28 24q-10 18 -15 45t-5 67v38t2 80q2 50 2 95q2 45 0 87v88q0 52 -2 119q-6 136 -6 195z" />
<glyph unicode="&#xb6;" horiz-adv-x="1460" d="M102 385q0 86 16.5 162.5t46.5 142t72.5 117.5t94.5 88.5t113 56t129 19.5q13 0 34.5 -1.5t43.5 -3t42 -4t29 -6.5q9 22 32 37t52 15q31 0 57 -11t46 -28.5t32 -39.5q12 -23 16 -45q19 -2 41.5 -2.5t43.5 -1t38 -1.5t25 -1q22 0 45 2t43 5t37 6t27 6q20 -11 29 -33t9 -45 q0 -34 -13 -60.5t-38 -45.5t-61 -29t-82 -10q-40 0 -81 4t-81 10q-4 -42 -11 -98.5t-16 -121.5t-19.5 -134t-21 -135t-20.5 -125q-10 -60 -20 -104q-24 -116 -59 -205.5t-83 -150t-112.5 -91.5t-147.5 -31q-47 0 -88.5 14t-72 40.5t-48.5 65t-18 87.5q0 27 7.5 52t21.5 44 t34 32t46 15q14 -16 34 -33t43 -32t47 -24t46 -9q29 0 46.5 20t30.5 64t25 112t28 164q-38 -18 -89 -30t-115 -12q-72 0 -129 25t-96 68t-60 102.5t-21 127.5zM520 416q0 -30 9 -56t24.5 -44t37.5 -28t48 -10q17 110 34 224t27 221q-8 2 -14 2h-12q-24 0 -44.5 -12 t-37.5 -33.5t-30.5 -50.5t-22.5 -64t-14 -73t-5 -76z" />
<glyph unicode="&#xb7;" horiz-adv-x="862" d="M375 490q0 38 18 69t48.5 53t69.5 35t81 13q36 0 62.5 -7t44.5 -18.5t27.5 -28t9.5 -34.5q0 -30 -7 -63t-19.5 -65t-30 -61t-39 -51t-46.5 -35t-53 -13q-37 0 -67.5 17t-52.5 45t-34 66t-12 78z" />
<glyph unicode="&#xb8;" horiz-adv-x="1024" d="M162 -309q0 20 6.5 40.5t19 37.5t31.5 28t45 15q14 -16 30 -30t32 -23.5t31 -15t28 -5.5q24 0 44.5 20t37.5 57.5t29.5 92t19.5 122.5h150q2 -18 2 -36v-35q0 -110 -22 -195.5t-61 -144.5t-95 -90t-126 -31q-48 0 -85.5 14t-63.5 40t-39.5 61t-13.5 78z" />
<glyph unicode="&#xb9;" horiz-adv-x="497" d="M174 901q66 42 119 82t95 79t75 78.5t59 81.5h23q24 0 42.5 -9.5t30.5 -25t17.5 -34.5t5.5 -37t-2.5 -36t-9.5 -43t-20 -62t-33 -93q-28 -72 -46 -134t-29.5 -116t-17 -99t-6.5 -83q-9 -17 -29.5 -25.5t-56.5 -8.5q-34 0 -64 11t-52.5 29.5t-34.5 41.5t-12 47 q0 20 5 44.5t16.5 57.5t30.5 78q20 45 48 107q-18 -12 -40 -19.5t-34 -7.5q-40 0 -60 23.5t-20 72.5z" />
<glyph unicode="&#xba;" horiz-adv-x="966" d="M174 682q0 64 13 124t36.5 114t55 99t68.5 77.5t78 51t83 18.5q14 0 30 -3t29 -9.5t23 -17.5t14 -28q16 14 33 23t35 9q26 0 45 -8t32 -23t19 -34.5t6 -42.5q0 -28 -5 -62t-14 -71t-21 -74t-24 -69q4 -2 8.5 -3t10.5 -1q32 0 65 28q33 26 68 88q26 0 40 -16.5t14 -44.5 q0 -16 -7 -38.5t-21 -46.5t-33 -48t-43.5 -42.5t-53 -30t-62.5 -11.5q-20 0 -33 3t-24 11q-28 -36 -58 -65t-62.5 -48t-68 -29t-75.5 -10q-42 0 -78.5 14t-63.5 43t-43 72t-16 101zM408 735q0 -24 4 -40.5t10 -26.5t15 -14.5t17 -4.5q24 0 44 15q20 14 34 38q-6 12 -10.5 29 t-7.5 36t-4.5 39t-1.5 38q0 40 9 87t28 91q-30 -22 -55.5 -54t-43.5 -70t-28 -79.5t-10 -83.5z" />
<glyph unicode="&#xbb;" horiz-adv-x="1710" d="M402 104q0 32 11 67t40 75.5t78 89.5q49 48 125 110q-44 42 -75 78.5t-49 69.5t-26 64.5t-8 64.5q0 36 12 68.5t32 57t45 39.5t50 15q6 0 13.5 -1.5t15.5 -4.5q6 -19 15 -38t22 -40t31 -45t43 -54t59 -66t78 -82q8 -8 16 -17t14 -18t9 -19t3 -22q0 -40 -30 -78.5 t-88 -81.5q-56 -40 -103 -79t-89.5 -80t-82 -85t-79.5 -94q-18 2 -34 12t-26.5 24.5t-15.5 32.5q-6 17 -6 37zM882 114q0 32 12 67t40.5 75.5t77.5 89.5q50 48 124 110q-44 42 -74 78.5t-48.5 69.5t-26.5 64.5t-8 64.5q0 36 12.5 68.5t32 57.5t44 40t50.5 15q14 0 29 -6 q10 -28 25.5 -57t43 -66t71 -86t107.5 -117q20 5 41 7.5t41 2.5q24 0 37 -12t13 -38q0 -29 -13 -56t-38 -51t-60 -44q-35 -21 -79 -35q-54 -39 -104 -79.5t-96 -83t-89 -88.5t-83 -97q-18 2 -33 12t-26 24.5t-17 33t-6 36.5z" />
<glyph unicode="&#xbc;" horiz-adv-x="1626" d="M174 901q66 42 119 82t95 79t75 78.5t59 81.5h23q24 0 42.5 -9.5t30.5 -25t17.5 -34.5t5.5 -37t-2.5 -36t-9.5 -43t-20 -62t-33 -93q-28 -72 -46 -134t-29.5 -116t-17 -99t-6.5 -83q-9 -17 -29.5 -25.5t-56.5 -8.5q-34 0 -64 11t-52.5 29.5t-34.5 41.5t-12 47 q0 20 5 44.5t16.5 57.5t30.5 78q20 45 48 107q-18 -12 -40 -19.5t-34 -7.5q-40 0 -60 23.5t-20 72.5zM381 -94q0 24 2.5 47t11.5 48t24 54.5t39.5 69t60 90.5t83.5 119q50 68 103 142.5t107 152t107 157.5t103 159t96 155.5t84 146.5q4 2 9 2.5t7 0.5q18 0 36 -10t32.5 -27 t23.5 -43t9 -58q0 -26 -3.5 -50t-12.5 -52t-26 -61t-44 -76.5t-65.5 -99t-91.5 -126.5t-121.5 -161t-156.5 -204q-48 -62 -83 -112t-61.5 -93t-44 -79.5t-28.5 -70t-16.5 -65.5t-7.5 -65q-8 -12 -23 -19q-14 -8 -38 -8q-28 0 -50 11.5t-36 30.5t-21.5 43.5t-7.5 50.5z M932 112q0 21 4 40.5t14 37.5t27 35t41 35q50 38 97 78t90 80.5t81 80t70 75.5t57 68q25 30 41 54h20q22 0 40.5 -7.5t32 -21.5t21 -33.5t7.5 -43.5q0 -32 -10 -78q-10 -44 -33 -112q-25 -78 -44 -150q-20 -74 -36 -146q17 4 33.5 12t34.5 19l6 2q17 -9 28.5 -28t11.5 -45 q0 -24 -8.5 -47.5t-26.5 -43t-44.5 -33.5t-62.5 -22q-8 -71 -13.5 -126.5t-5.5 -86.5q-10 -22 -29.5 -32.5t-54.5 -10.5q-34 0 -65.5 10t-55 27t-37.5 39.5t-14 48.5q0 12 1.5 25.5t5 30.5t9 38t13.5 49q-28 9 -59 22.5t-62 29.5t-62 35t-59 41q-3 14 -3.5 28t-0.5 26z M1128 176q10 -6 24.5 -13t30 -14t31 -12.5t27.5 -9.5q4 20 13 50t18.5 62.5t19.5 63.5t18 53q-13 -17 -34 -40t-46.5 -48t-51.5 -49.5t-50 -42.5z" />
<glyph unicode="&#xbd;" horiz-adv-x="1691" d="M174 901q66 42 119 82t95 79t75 78.5t59 81.5h23q24 0 42.5 -9.5t30.5 -25t17.5 -34.5t5.5 -37t-2.5 -36t-9.5 -43t-20 -62t-33 -93q-28 -72 -46 -134t-29.5 -116t-17 -99t-6.5 -83q-9 -17 -29.5 -25.5t-56.5 -8.5q-34 0 -64 11t-52.5 29.5t-34.5 41.5t-12 47 q0 20 5 44.5t16.5 57.5t30.5 78q20 45 48 107q-18 -12 -40 -19.5t-34 -7.5q-40 0 -60 23.5t-20 72.5zM381 -94q0 24 2.5 47t11.5 48t24 54.5t39.5 69t60 90.5t83.5 119q50 68 103 142.5t107 152t107 157.5t103 159t96 155.5t84 146.5q4 2 9 2.5t7 0.5q18 0 36 -10t32.5 -27 t23.5 -43t9 -58q0 -26 -3.5 -50t-12.5 -52t-26 -61t-44 -76.5t-65.5 -99t-91.5 -126.5t-121.5 -161t-156.5 -204q-48 -62 -83 -112t-61.5 -93t-44 -79.5t-28.5 -70t-16.5 -65.5t-7.5 -65q-8 -12 -23 -19q-14 -8 -38 -8q-28 0 -50 11.5t-36 30.5t-21.5 43.5t-7.5 50.5z M1042 -22q0 28 6 51t20 44t38 41t62 44q66 40 111 73t73 61t40.5 54t12.5 52q0 29 -12.5 46t-34.5 17q-12 0 -23.5 -8.5t-21 -27.5t-16.5 -50t-11 -76q-8 -4 -21 -8.5t-28 -4.5q-45 0 -71 30t-26 90q0 44 18 85t53.5 73t88 50.5t122.5 18.5q58 0 99.5 -17t68 -46t38.5 -66.5 t12 -79.5q0 -28 -5.5 -54.5t-19.5 -53t-37.5 -53t-59.5 -55t-86 -60t-117 -66.5q22 -14 39.5 -23t31.5 -14t27 -7.5t25 -2.5q16 0 46 12.5t74 38.5q20 -11 32 -33.5t12 -48.5q0 -24 -11 -47t-30 -44.5t-43 -40t-50.5 -32t-53 -21t-50.5 -7.5q-29 0 -59 7t-67.5 26t-84.5 51 t-111 82z" />
<glyph unicode="&#xbe;" horiz-adv-x="1833" d="M92 358q0 34 7.5 58.5t21 40t31.5 23.5t38 8q14 0 31 -4.5t29 -12.5q4 -30 16.5 -54t29.5 -40.5t36.5 -25.5t39.5 -9q28 0 45 12t17 35q0 21 -11 43t-37 46.5t-69 50.5q-43 27 -106 55q0 34 11.5 63.5t31.5 51t48 33.5q26 12 58 12q11 0 19.5 -1t18.5 -3q30 26 49 51 t30 49.5t16 46t5 37.5q0 30 -12 46.5t-34 16.5q-10 0 -18.5 -8.5t-16 -27.5t-12.5 -50t-9 -75q-8 -5 -21 -9t-29 -4q-22 0 -40.5 7.5t-32 22.5t-20.5 37t-7 52q0 44 17 86t51.5 74t86 52t119.5 20q60 0 103 -18t71 -47t41 -68t13 -81q0 -34 -10 -68.5t-34 -68.5t-63 -68.5 t-96 -68.5q36 -24 59.5 -50t37.5 -53t20 -53.5t6 -50.5q0 -66 -24 -121t-66 -94.5t-102 -61.5t-132 -22q-58 0 -105 16t-79.5 42t-50 60t-17.5 70zM588 -94q0 24 3 47t11 48t23 54.5t40 69t60 90.5t84 119q50 68 103 142.5t106.5 152t107 157.5t104 159t96 155.5t83.5 146.5 q3 2 8 2.5t9 0.5q18 0 35.5 -10t32 -27t23.5 -43t9 -58q0 -26 -3 -50t-13 -52t-26.5 -61t-43.5 -76.5t-65.5 -99t-91.5 -126.5t-122 -161t-155 -204q-48 -62 -84 -112t-62 -93t-43.5 -79.5t-28.5 -70t-16.5 -65.5t-7.5 -65q-8 -12 -23 -19.5t-39 -7.5q-28 0 -49.5 11.5 t-36 30.5t-21.5 43.5t-7 50.5zM1138 112q0 21 4.5 40.5t14.5 37.5t26.5 35t40.5 35q76 56 144 118t125 121t100 111q43 50 68 86h21q22 0 40 -7.5t31.5 -21.5t21 -33.5t7.5 -43.5q0 -32 -10 -78q-10 -44 -33 -112q-25 -78 -45 -150q-20 -74 -35 -146q17 4 34 12t33 19l6 2 q17 -9 29.5 -28t12.5 -45q0 -24 -9 -47.5t-27 -43t-45 -33.5t-63 -22q-8 -71 -13 -126.5t-5 -86.5q-10 -22 -29 -32.5t-55 -10.5q-34 0 -65.5 10t-55 27t-37.5 39.5t-14 48.5q0 12 1.5 25.5t5 30.5t9.5 38q4 21 12 49q-28 9 -59 22.5t-62 29.5t-61 35t-59 41q-4 14 -4.5 28 t-0.5 26zM1336 176q10 -6 24 -13t29.5 -14t31 -12.5t27.5 -9.5q4 20 13 50t19 62.5t20 63.5t18 53q-13 -17 -34.5 -40t-46.5 -48t-52 -49.5t-49 -42.5z" />
<glyph unicode="&#xbf;" horiz-adv-x="876" d="M-72 -215q0 34 6 62.5t23.5 57.5t48.5 61t81 72t121.5 92.5t169.5 121.5q8 25 11.5 51.5t3.5 56.5t-6 68q5 8 13.5 16t20.5 13t28.5 8.5t37.5 3.5q32 0 60.5 -13.5t49.5 -37.5t33.5 -55.5t12.5 -67.5q0 -24 -7.5 -46.5t-26.5 -46.5t-53 -52t-87 -62q-50 -34 -86.5 -59 t-62.5 -46t-42 -37.5t-25 -31t-12 -29t-3 -30.5q0 -12 5 -25.5t19 -24t40 -17.5q24 -7 66 -7q14 0 32.5 0.5t39 2.5t42.5 4t42 6q16 -8 27 -20t18 -27t11 -32t4 -35q0 -48 -19.5 -92t-56 -77.5t-89.5 -53.5t-120 -20q-52 0 -99 12.5t-88.5 35.5t-75 55t-58 71t-37.5 83 t-13 91zM450 684q0 54 9.5 100t27.5 80t44.5 53t60.5 19q37 0 73.5 -13t66.5 -36.5t48 -57t18 -73.5q0 -33 -17 -66.5t-47 -60t-70 -43.5q-38 -16 -82 -16q-36 0 -61 8t-40.5 23t-23 36t-7.5 47z" />
<glyph unicode="&#xc0;" horiz-adv-x="1741" d="M20 196q0 42 9.5 81t27 74t41.5 64t54 49.5t65 32t74 11.5q43 0 70.5 -17t38.5 -53q43 1 87.5 2.5t91.5 3.5t97 5t106 5q30 39 67.5 91t80.5 113t90.5 129.5t98 141.5t103 148.5t103.5 149.5q14 59 40.5 111.5t65 92t89.5 62.5q50 23 114 23q42 0 73.5 -12.5t53 -32 t33.5 -43.5q12 -26 14 -50q0 -16 -7.5 -30.5t-29 -34.5t-59.5 -47t-98 -66q-11 -56 -19.5 -123.5t-15.5 -139.5t-12 -145q-5 -72 -9 -140q37 -6 58.5 -30t21.5 -69q0 -22 -6 -44t-18 -43.5t-28 -41t-36 -35.5q0 -33 1 -58t3.5 -42t9 -26t17.5 -9q10 0 36.5 12.5t65 43 t87 81.5t102.5 127h8q14 0 28 -5t25 -14t18 -21q7 -14 7 -28q0 -26 -16 -61t-44 -75t-66 -82.5t-81 -83t-90.5 -76.5t-94 -63.5t-90.5 -43.5t-82 -16q-48 0 -82 10.5t-55.5 32.5t-32 54.5t-10.5 76.5v43.5t1 40.5t2 47t3 64q-33 -3 -73.5 -6.5t-83.5 -6t-87 -5t-83 -3.5 q-58 -83 -108.5 -147t-96.5 -112t-89.5 -80.5t-86 -53t-85.5 -29t-89 -8.5q-74 0 -133 22t-100 64.5t-63 103.5t-22 139zM340 234q0 -24 6 -43t16 -31t24.5 -17.5t31.5 -5.5q26 0 49.5 7.5t49 24t55.5 44.5q29 27 65 69q-44 -2 -83 -2t-74.5 -1t-68.5 -1h-65q-3 -11 -4 -24 q-2 -12 -2 -20zM1024 471q26 2 54 3.5t56.5 3.5t54.5 5t46 5q2 26 5.5 62t8 76.5t9.5 84t10.5 85t11.5 79t12 67.5q-17 -32 -38.5 -71t-45.5 -82t-50 -88t-50 -86.5t-45.5 -78.5t-38.5 -65zM1316 1984q0 33 11.5 64t33 54.5t53.5 37.5t72 14q24 0 41.5 -8t28.5 -20 q6 -56 16 -115.5t22 -117t27 -111.5t31 -98q0 -12 -5 -23t-14 -19t-23 -13t-31 -5q-32 0 -65.5 21t-66.5 62t-64.5 99t-57.5 132q-3 10 -6 22t-3 24z" />
<glyph unicode="&#xc1;" horiz-adv-x="1741" d="M20 196q0 42 9.5 81t27 74t41.5 64t54 49.5t65 32t74 11.5q43 0 70.5 -17t38.5 -53q43 1 87.5 2.5t91.5 3.5t97 5t106 5q30 39 67.5 91t80.5 113t90.5 129.5t98 141.5t103 148.5t103.5 149.5q14 59 40.5 111.5t65 92t89.5 62.5q50 23 114 23q42 0 73.5 -12.5t53 -32 t33.5 -43.5q12 -26 14 -50q0 -16 -7.5 -30.5t-29 -34.5t-59.5 -47t-98 -66q-11 -56 -19.5 -123.5t-15.5 -139.5t-12 -145q-5 -72 -9 -140q37 -6 58.5 -30t21.5 -69q0 -22 -6 -44t-18 -43.5t-28 -41t-36 -35.5q0 -33 1 -58t3.5 -42t9 -26t17.5 -9q10 0 36.5 12.5t65 43 t87 81.5t102.5 127h8q14 0 28 -5t25 -14t18 -21q7 -14 7 -28q0 -26 -16 -61t-44 -75t-66 -82.5t-81 -83t-90.5 -76.5t-94 -63.5t-90.5 -43.5t-82 -16q-48 0 -82 10.5t-55.5 32.5t-32 54.5t-10.5 76.5v43.5t1 40.5t2 47t3 64q-33 -3 -73.5 -6.5t-83.5 -6t-87 -5t-83 -3.5 q-58 -83 -108.5 -147t-96.5 -112t-89.5 -80.5t-86 -53t-85.5 -29t-89 -8.5q-74 0 -133 22t-100 64.5t-63 103.5t-22 139zM340 234q0 -24 6 -43t16 -31t24.5 -17.5t31.5 -5.5q26 0 49.5 7.5t49 24t55.5 44.5q29 27 65 69q-44 -2 -83 -2t-74.5 -1t-68.5 -1h-65q-3 -11 -4 -24 q-2 -12 -2 -20zM1024 471q26 2 54 3.5t56.5 3.5t54.5 5t46 5q2 26 5.5 62t8 76.5t9.5 84t10.5 85t11.5 79t12 67.5q-17 -32 -38.5 -71t-45.5 -82t-50 -88t-50 -86.5t-45.5 -78.5t-38.5 -65zM1481 1672q53 76 93 138t67 113t41 93t14 80q17 26 42.5 40t59.5 14t60.5 -9 t44 -26t26.5 -41t9 -52q0 -90 -158 -254q-32 -32 -66 -60t-67.5 -48t-64 -31t-54.5 -11q-22 0 -34.5 13t-12.5 41z" />
<glyph unicode="&#xc2;" horiz-adv-x="1741" d="M20 196q0 42 9.5 81t27 74t41.5 64t54 49.5t65 32t74 11.5q43 0 70.5 -17t38.5 -53q43 1 87.5 2.5t91.5 3.5t97 5t106 5q30 39 67.5 91t80.5 113t90.5 129.5t98 141.5t103 148.5t103.5 149.5q14 59 40.5 111.5t65 92t89.5 62.5q50 23 114 23q42 0 73.5 -12.5t53 -32 t33.5 -43.5q12 -26 14 -50q0 -16 -7.5 -30.5t-29 -34.5t-59.5 -47t-98 -66q-11 -56 -19.5 -123.5t-15.5 -139.5t-12 -145q-5 -72 -9 -140q37 -6 58.5 -30t21.5 -69q0 -22 -6 -44t-18 -43.5t-28 -41t-36 -35.5q0 -33 1 -58t3.5 -42t9 -26t17.5 -9q10 0 36.5 12.5t65 43 t87 81.5t102.5 127h8q14 0 28 -5t25 -14t18 -21q7 -14 7 -28q0 -26 -16 -61t-44 -75t-66 -82.5t-81 -83t-90.5 -76.5t-94 -63.5t-90.5 -43.5t-82 -16q-48 0 -82 10.5t-55.5 32.5t-32 54.5t-10.5 76.5v43.5t1 40.5t2 47t3 64q-33 -3 -73.5 -6.5t-83.5 -6t-87 -5t-83 -3.5 q-58 -83 -108.5 -147t-96.5 -112t-89.5 -80.5t-86 -53t-85.5 -29t-89 -8.5q-74 0 -133 22t-100 64.5t-63 103.5t-22 139zM340 234q0 -24 6 -43t16 -31t24.5 -17.5t31.5 -5.5q26 0 49.5 7.5t49 24t55.5 44.5q29 27 65 69q-44 -2 -83 -2t-74.5 -1t-68.5 -1h-65q-3 -11 -4 -24 q-2 -12 -2 -20zM1024 471q26 2 54 3.5t56.5 3.5t54.5 5t46 5q2 26 5.5 62t8 76.5t9.5 84t10.5 85t11.5 79t12 67.5q-17 -32 -38.5 -71t-45.5 -82t-50 -88t-50 -86.5t-45.5 -78.5t-38.5 -65zM1370 1706q0 24 8.5 56t24 67.5t38 73t50 73.5t59 67.5t66 55t71.5 37.5t74 14 q52 0 84.5 -19t50.5 -63.5t24 -117.5q7 -72 7 -180q0 -16 1.5 -40t2.5 -48q-9 -16 -24 -31t-35 -26t-42 -17t-46 -6q-48 0 -67 26t-19 80q0 64 -1 105t-5 65t-10 33.5t-17 9.5q-16 0 -36.5 -18.5t-44.5 -55.5t-49 -93t-49 -130q-10 -4 -20 -6t-20 -2q-15 0 -29 6t-24.5 17 t-16.5 28t-6 39z" />
<glyph unicode="&#xc3;" horiz-adv-x="1741" d="M20 196q0 42 9.5 81t27 74t41.5 64t54 49.5t65 32t74 11.5q43 0 70.5 -17t38.5 -53q43 1 87.5 2.5t91.5 3.5t97 5t106 5q30 39 67.5 91t80.5 113t90.5 129.5t98 141.5t103 148.5t103.5 149.5q14 59 40.5 111.5t65 92t89.5 62.5q50 23 114 23q42 0 73.5 -12.5t53 -32 t33.5 -43.5q12 -26 14 -50q0 -16 -7.5 -30.5t-29 -34.5t-59.5 -47t-98 -66q-11 -56 -19.5 -123.5t-15.5 -139.5t-12 -145q-5 -72 -9 -140q37 -6 58.5 -30t21.5 -69q0 -22 -6 -44t-18 -43.5t-28 -41t-36 -35.5q0 -33 1 -58t3.5 -42t9 -26t17.5 -9q10 0 36.5 12.5t65 43 t87 81.5t102.5 127h8q14 0 28 -5t25 -14t18 -21q7 -14 7 -28q0 -26 -16 -61t-44 -75t-66 -82.5t-81 -83t-90.5 -76.5t-94 -63.5t-90.5 -43.5t-82 -16q-48 0 -82 10.5t-55.5 32.5t-32 54.5t-10.5 76.5v43.5t1 40.5t2 47t3 64q-33 -3 -73.5 -6.5t-83.5 -6t-87 -5t-83 -3.5 q-58 -83 -108.5 -147t-96.5 -112t-89.5 -80.5t-86 -53t-85.5 -29t-89 -8.5q-74 0 -133 22t-100 64.5t-63 103.5t-22 139zM340 234q0 -24 6 -43t16 -31t24.5 -17.5t31.5 -5.5q26 0 49.5 7.5t49 24t55.5 44.5q29 27 65 69q-44 -2 -83 -2t-74.5 -1t-68.5 -1h-65q-3 -11 -4 -24 q-2 -12 -2 -20zM1024 471q26 2 54 3.5t56.5 3.5t54.5 5t46 5q2 26 5.5 62t8 76.5t9.5 84t10.5 85t11.5 79t12 67.5q-17 -32 -38.5 -71t-45.5 -82t-50 -88t-50 -86.5t-45.5 -78.5t-38.5 -65zM1342 1700q0 34 12 61t39 51t71.5 45t108.5 43q59 20 102.5 36t76 29t55 25 t39.5 25t30.5 27t25.5 32q34 -4 61 -17t44 -33.5t26 -45t9 -51.5q0 -45 -19 -79.5t-60 -62t-106 -49.5t-157 -42q-60 -13 -102.5 -23.5t-72 -21.5t-48.5 -23t-35 -30q-18 0 -36 5.5t-32 18t-23 32.5t-9 48z" />
<glyph unicode="&#xc4;" horiz-adv-x="1741" d="M20 196q0 42 9.5 81t27 74t41.5 64t54 49.5t65 32t74 11.5q43 0 70.5 -17t38.5 -53q43 1 87.5 2.5t91.5 3.5t97 5t106 5q30 39 67.5 91t80.5 113t90.5 129.5t98 141.5t103 148.5t103.5 149.5q14 59 40.5 111.5t65 92t89.5 62.5q50 23 114 23q42 0 73.5 -12.5t53 -32 t33.5 -43.5q12 -26 14 -50q0 -16 -7.5 -30.5t-29 -34.5t-59.5 -47t-98 -66q-11 -56 -19.5 -123.5t-15.5 -139.5t-12 -145q-5 -72 -9 -140q37 -6 58.5 -30t21.5 -69q0 -22 -6 -44t-18 -43.5t-28 -41t-36 -35.5q0 -33 1 -58t3.5 -42t9 -26t17.5 -9q10 0 36.5 12.5t65 43 t87 81.5t102.5 127h8q14 0 28 -5t25 -14t18 -21q7 -14 7 -28q0 -26 -16 -61t-44 -75t-66 -82.5t-81 -83t-90.5 -76.5t-94 -63.5t-90.5 -43.5t-82 -16q-48 0 -82 10.5t-55.5 32.5t-32 54.5t-10.5 76.5v43.5t1 40.5t2 47t3 64q-33 -3 -73.5 -6.5t-83.5 -6t-87 -5t-83 -3.5 q-58 -83 -108.5 -147t-96.5 -112t-89.5 -80.5t-86 -53t-85.5 -29t-89 -8.5q-74 0 -133 22t-100 64.5t-63 103.5t-22 139zM340 234q0 -24 6 -43t16 -31t24.5 -17.5t31.5 -5.5q26 0 49.5 7.5t49 24t55.5 44.5q29 27 65 69q-44 -2 -83 -2t-74.5 -1t-68.5 -1h-65q-3 -11 -4 -24 q-2 -12 -2 -20zM1024 471q26 2 54 3.5t56.5 3.5t54.5 5t46 5q2 26 5.5 62t8 76.5t9.5 84t10.5 85t11.5 79t12 67.5q-17 -32 -38.5 -71t-45.5 -82t-50 -88t-50 -86.5t-45.5 -78.5t-38.5 -65zM1358 1770q0 58 6 100t17.5 68.5t29 39t39.5 12.5q30 0 57 -14t47 -35t32 -47 t12 -49q0 -18 -6.5 -39.5t-21.5 -48.5t-39.5 -61t-62.5 -78q-22 0 -41.5 9t-35 27.5t-24.5 47.5t-9 68zM1712 1800q0 62 6.5 105t19 70t31.5 39t43 12q20 0 41 -7t41 -19t36.5 -27.5t29 -32.5t19.5 -34.5t7 -33.5q0 -18 -7.5 -43t-24 -55.5t-42.5 -68t-63 -83.5 q-32 0 -57 11t-42.5 33t-27.5 55.5t-10 78.5z" />
<glyph unicode="&#xc5;" horiz-adv-x="1741" d="M20 196q0 42 9.5 81t27 74t41.5 64t54 49.5t65 32t74 11.5q43 0 70.5 -17t38.5 -53q43 1 87.5 2.5t91.5 3.5t97 5t106 5q30 39 67.5 91t80.5 113t90.5 129.5t98 141.5t103 148.5t103.5 149.5q14 59 40.5 111.5t65 92t89.5 62.5q50 23 114 23q42 0 73.5 -12.5t53 -32 t33.5 -43.5q12 -26 14 -50q0 -16 -7.5 -30.5t-29 -34.5t-59.5 -47t-98 -66q-11 -56 -19.5 -123.5t-15.5 -139.5t-12 -145q-5 -72 -9 -140q37 -6 58.5 -30t21.5 -69q0 -22 -6 -44t-18 -43.5t-28 -41t-36 -35.5q0 -33 1 -58t3.5 -42t9 -26t17.5 -9q10 0 36.5 12.5t65 43 t87 81.5t102.5 127h8q14 0 28 -5t25 -14t18 -21q7 -14 7 -28q0 -26 -16 -61t-44 -75t-66 -82.5t-81 -83t-90.5 -76.5t-94 -63.5t-90.5 -43.5t-82 -16q-48 0 -82 10.5t-55.5 32.5t-32 54.5t-10.5 76.5v43.5t1 40.5t2 47t3 64q-33 -3 -73.5 -6.5t-83.5 -6t-87 -5t-83 -3.5 q-58 -83 -108.5 -147t-96.5 -112t-89.5 -80.5t-86 -53t-85.5 -29t-89 -8.5q-74 0 -133 22t-100 64.5t-63 103.5t-22 139zM340 234q0 -24 6 -43t16 -31t24.5 -17.5t31.5 -5.5q26 0 49.5 7.5t49 24t55.5 44.5q29 27 65 69q-44 -2 -83 -2t-74.5 -1t-68.5 -1h-65q-3 -11 -4 -24 q-2 -12 -2 -20zM1024 471q26 2 54 3.5t56.5 3.5t54.5 5t46 5q2 26 5.5 62t8 76.5t9.5 84t10.5 85t11.5 79t12 67.5q-17 -32 -38.5 -71t-45.5 -82t-50 -88t-50 -86.5t-45.5 -78.5t-38.5 -65zM1442 1808q0 37 9 73.5t25 70t36 62t42 49.5t44 33t42 12q17 0 29 -6q13 -5 19 -11 q16 32 41 48.5t55 16.5q32 0 60.5 -15t50.5 -44t35.5 -69t13.5 -88q0 -50 -12.5 -95t-33.5 -81.5t-49.5 -65t-61.5 -48.5t-68.5 -30t-70.5 -10q-47 0 -85 13t-65 39t-41.5 63t-14.5 83zM1616 1854q0 -28 14 -43t39 -15q12 0 23.5 5.5t20.5 16t15 25.5t6 33q0 26 -13 58 q-13 30 -35 58q-18 -18 -31 -37t-22 -37.5t-13 -35t-4 -28.5z" />
<glyph unicode="&#xc6;" horiz-adv-x="2107" d="M20 196q0 42 9.5 82.5t27 77t41.5 67.5t54 53.5t65 35t74 12.5q46 0 72.5 -19t36.5 -51q50 -3 99 -4.5t101 -1.5h88t94 2q30 39 69 91.5t85 113.5t97 130.5t104 143t107 149t106 149.5l-90 10q-10 12 -14.5 28.5t-4.5 32.5q0 32 12.5 58t40.5 44.5t72 29.5q42 10 104 10 q38 0 81 -0.5l86 -1t86.5 -1t83 -1t73.5 -0.5h58q36 0 65 2t56.5 7t54.5 13t57 18q16 -8 28.5 -19.5t21.5 -26t14 -31.5t5 -35q0 -38 -17 -71t-51 -57.5t-84 -38t-116 -13.5q-26 0 -61 1t-75 3t-82 5t-81 7l-63 -494q66 0 116 1t87.5 2t65 3t50 5.5t42 8t40.5 9.5 q11 -6 20 -17.5t15 -24.5t9 -27.5t3 -28.5q0 -32 -13 -57.5t-37 -43.5t-57 -27t-73 -9q-14 0 -34 0.5t-43 1.5t-48 2.5t-48 2.5q-56 3 -116 7l-35 -307q62 0 121 -1.5t119 -4t121 -6t125 -7.5q14 -18 19 -35t5 -41q0 -28 -12.5 -57t-44 -53t-86 -39.5t-137.5 -15.5 q-64 0 -138 5t-160 11.5t-183 11.5t-205 7q-9 10 -15 25.5t-6 35.5q0 23 9.5 44t28.5 39t50 33t74 25l19 168q-8 -11 -18.5 -20.5t-28 -17.5t-43.5 -15t-65.5 -11t-94 -7t-128.5 -3q-57 -83 -106.5 -145.5t-94.5 -108t-87 -76t-83 -48.5t-83 -25.5t-88 -7.5q-74 0 -133 22 t-100 64.5t-63 103.5t-22 139zM340 234q0 -24 6 -43t16 -31t24.5 -17.5t31.5 -5.5q26 0 49 7t48 23.5t53 44.5q29 26 65 68q-78 0 -146.5 3t-134.5 10q-6 -12 -9 -29.5t-3 -29.5zM1016 459q17 1 38.5 2t45 3t48 3.5t46.5 3t41 3.5t33 3q2 26 7 64.5t12 82.5t14.5 92t15 93 t15.5 85l14 70q-17 -32 -43.5 -74t-57.5 -89t-64 -95.5t-64 -94t-57.5 -85t-43.5 -67.5z" />
<glyph unicode="&#xc7;" horiz-adv-x="1044" d="M86 406q0 96 19 193t52 191.5t80 183t103 166t119 142t130 110.5t136 71.5t135 25.5q76 0 130 -18.5t88.5 -54.5t50.5 -87t16 -117q0 -48 -9.5 -95.5t-27 -91t-42 -81.5t-54.5 -66.5t-64 -44.5t-70 -16q-19 0 -33 2.5t-24 7t-17 11.5q-8 7 -12 16q8 20 15.5 43.5t13 49 t10 51t7.5 48t4.5 41t1.5 29.5q0 36 -5 60t-14.5 40t-22 22.5t-28.5 6.5q-21 0 -46.5 -17.5t-52.5 -49.5t-55 -76.5t-54 -98t-48.5 -114.5t-39 -126.5t-26.5 -133t-10 -133.5q0 -73 12 -127.5t39 -91t71.5 -54.5t111.5 -18q64 0 133.5 23.5t137 66.5t128.5 102t107 129 q16 0 30 -3t24.5 -11t17 -20t6.5 -31q0 -29 -17 -68.5t-48 -84t-75 -91.5t-96 -92t-112 -85t-126 -69l-14 -7v-24q0 -110 -21.5 -195.5t-61 -144.5t-95.5 -89.5t-125 -30.5q-48 0 -85.5 14t-63.5 39.5t-40 61t-14 77.5q0 20 7 41t19.5 37.5t31.5 27.5q18 12 44 15 q14 -16 30.5 -29.5t32 -23.5t30.5 -15t29 -5q24 0 44.5 19.5t37.5 57t29 92.5q3 13 5 25q-43 -8 -86 -8q-102 0 -183 32t-137 95.5t-85 157t-29 215.5z" />
<glyph unicode="&#xc8;" horiz-adv-x="1052" d="M70 246q0 54 19 112t59 114t100 106t141 90q-22 24 -41 54t-32.5 66t-21.5 78q-8 40 -8 86q0 65 19 130.5t53 125t81.5 111t105 89.5t123.5 59.5t137 21.5q72 0 123.5 -16.5t85.5 -47.5t50 -76.5t16 -103.5q0 -76 -21.5 -132.5t-56 -93.5t-77.5 -55t-85 -18q-34 0 -51 11 t-23 26q20 42 30.5 82.5t10.5 81.5q0 29 -4.5 49t-12.5 32t-19 18t-23 6q-18 0 -37 -12t-37 -32t-33 -49t-26.5 -62.5t-18 -71t-6.5 -77.5q0 -27 3 -54.5t8 -54.5t11 -51t14 -44q17 4 37.5 7t41.5 5t40 3t33 1q30 0 49 -4t30 -11t15 -16t4 -21q0 -44 -16 -85t-44 -74 t-63 -52.5t-73 -19.5q-14 0 -31.5 4t-36 11.5t-36.5 17.5t-34 22q-20 -22 -37 -48t-29 -53t-19 -53t-7 -48q0 -38 11 -69t32.5 -53t55 -34t77.5 -12q48 0 101 14.5t106 40t105 60.5t99 75t87 85t70 89q16 0 30 -3t25 -11t17 -20t6 -31q0 -24 -16 -62t-46.5 -82.5 t-73.5 -93.5t-97 -97t-117.5 -90.5t-133.5 -75t-147 -51.5t-157 -19q-96 0 -173 26t-130.5 73t-82 112.5t-28.5 144.5zM580 1964q0 33 11 63.5t33 54.5t54 38t72 14q24 0 41.5 -8t28.5 -20q6 -56 15 -116t21.5 -117.5t27 -111t32.5 -98.5q0 -12 -5.5 -23t-15 -19 t-22.5 -12.5t-31 -4.5q-32 0 -65.5 21t-67 61.5t-64.5 99t-57 131.5q-3 10 -5.5 22.5t-2.5 24.5z" />
<glyph unicode="&#xc9;" horiz-adv-x="1052" d="M70 246q0 54 19 112t59 114t100 106t141 90q-22 24 -41 54t-32.5 66t-21.5 78q-8 40 -8 86q0 65 19 130.5t53 125t81.5 111t105 89.5t123.5 59.5t137 21.5q72 0 123.5 -16.5t85.5 -47.5t50 -76.5t16 -103.5q0 -76 -21.5 -132.5t-56 -93.5t-77.5 -55t-85 -18q-34 0 -51 11 t-23 26q20 42 30.5 82.5t10.5 81.5q0 29 -4.5 49t-12.5 32t-19 18t-23 6q-18 0 -37 -12t-37 -32t-33 -49t-26.5 -62.5t-18 -71t-6.5 -77.5q0 -27 3 -54.5t8 -54.5t11 -51t14 -44q17 4 37.5 7t41.5 5t40 3t33 1q30 0 49 -4t30 -11t15 -16t4 -21q0 -44 -16 -85t-44 -74 t-63 -52.5t-73 -19.5q-14 0 -31.5 4t-36 11.5t-36.5 17.5t-34 22q-20 -22 -37 -48t-29 -53t-19 -53t-7 -48q0 -38 11 -69t32.5 -53t55 -34t77.5 -12q48 0 101 14.5t106 40t105 60.5t99 75t87 85t70 89q16 0 30 -3t25 -11t17 -20t6 -31q0 -24 -16 -62t-46.5 -82.5 t-73.5 -93.5t-97 -97t-117.5 -90.5t-133.5 -75t-147 -51.5t-157 -19q-96 0 -173 26t-130.5 73t-82 112.5t-28.5 144.5zM721 1653q53 76 93 138t67 113t41 93.5t14 79.5q17 26 42.5 40.5t59.5 14.5t60.5 -9.5t44 -26.5t26.5 -40.5t9 -52.5q0 -90 -158 -254q-32 -32 -66 -59.5 t-67.5 -47.5t-64 -31t-54.5 -11q-22 0 -34.5 12.5t-12.5 40.5z" />
<glyph unicode="&#xca;" horiz-adv-x="1052" d="M70 246q0 54 19 112t59 114t100 106t141 90q-22 24 -41 54t-32.5 66t-21.5 78q-8 40 -8 86q0 65 19 130.5t53 125t81.5 111t105 89.5t123.5 59.5t137 21.5q72 0 123.5 -16.5t85.5 -47.5t50 -76.5t16 -103.5q0 -76 -21.5 -132.5t-56 -93.5t-77.5 -55t-85 -18q-34 0 -51 11 t-23 26q20 42 30.5 82.5t10.5 81.5q0 29 -4.5 49t-12.5 32t-19 18t-23 6q-18 0 -37 -12t-37 -32t-33 -49t-26.5 -62.5t-18 -71t-6.5 -77.5q0 -27 3 -54.5t8 -54.5t11 -51t14 -44q17 4 37.5 7t41.5 5t40 3t33 1q30 0 49 -4t30 -11t15 -16t4 -21q0 -44 -16 -85t-44 -74 t-63 -52.5t-73 -19.5q-14 0 -31.5 4t-36 11.5t-36.5 17.5t-34 22q-20 -22 -37 -48t-29 -53t-19 -53t-7 -48q0 -38 11 -69t32.5 -53t55 -34t77.5 -12q48 0 101 14.5t106 40t105 60.5t99 75t87 85t70 89q16 0 30 -3t25 -11t17 -20t6 -31q0 -24 -16 -62t-46.5 -82.5 t-73.5 -93.5t-97 -97t-117.5 -90.5t-133.5 -75t-147 -51.5t-157 -19q-96 0 -173 26t-130.5 73t-82 112.5t-28.5 144.5zM576 1688q0 24 8 55.5t24 67t38 73.5t49.5 73.5t59 67t66.5 55.5t71 38t74 14q52 0 85 -19t51 -64t24 -118t6 -180q0 -16 2 -39q0 -24 2 -49 q-9 -16 -24 -30.5t-34.5 -25.5t-42 -17.5t-46.5 -6.5q-48 0 -67 26.5t-19 80.5q0 64 -1 105t-4.5 65t-9.5 33q-8 9 -18 9q-16 0 -36.5 -18t-44.5 -55t-49 -93t-48 -130q-10 -4 -20 -6t-21 -2q-15 0 -29 5.5t-24 17t-16 27.5q-6 18 -6 40z" />
<glyph unicode="&#xcb;" horiz-adv-x="1052" d="M70 246q0 54 19 112t59 114t100 106t141 90q-22 24 -41 54t-32.5 66t-21.5 78q-8 40 -8 86q0 65 19 130.5t53 125t81.5 111t105 89.5t123.5 59.5t137 21.5q72 0 123.5 -16.5t85.5 -47.5t50 -76.5t16 -103.5q0 -76 -21.5 -132.5t-56 -93.5t-77.5 -55t-85 -18q-34 0 -51 11 t-23 26q20 42 30.5 82.5t10.5 81.5q0 29 -4.5 49t-12.5 32t-19 18t-23 6q-18 0 -37 -12t-37 -32t-33 -49t-26.5 -62.5t-18 -71t-6.5 -77.5q0 -27 3 -54.5t8 -54.5t11 -51t14 -44q17 4 37.5 7t41.5 5t40 3t33 1q30 0 49 -4t30 -11t15 -16t4 -21q0 -44 -16 -85t-44 -74 t-63 -52.5t-73 -19.5q-14 0 -31.5 4t-36 11.5t-36.5 17.5t-34 22q-20 -22 -37 -48t-29 -53t-19 -53t-7 -48q0 -38 11 -69t32.5 -53t55 -34t77.5 -12q48 0 101 14.5t106 40t105 60.5t99 75t87 85t70 89q16 0 30 -3t25 -11t17 -20t6 -31q0 -24 -16 -62t-46.5 -82.5 t-73.5 -93.5t-97 -97t-117.5 -90.5t-133.5 -75t-147 -51.5t-157 -19q-96 0 -173 26t-130.5 73t-82 112.5t-28.5 144.5zM584 1762q0 58 6 100t17.5 68.5t29 39t39.5 12.5q30 0 57 -14t47 -35t32 -47t12 -49q0 -18 -6.5 -39.5t-21.5 -48.5t-39.5 -61t-62.5 -78q-22 0 -41.5 9 t-35 27.5t-24.5 47.5t-9 68zM938 1792q0 62 6.5 105t19 70t31.5 39t43 12q20 0 41 -7t41 -19t36.5 -27.5t29 -32.5t19.5 -34.5t7 -33.5q0 -18 -7.5 -43t-24 -55.5t-42.5 -68t-63 -83.5q-32 0 -57 11t-42.5 33t-27.5 55.5t-10 78.5z" />
<glyph unicode="&#xcc;" horiz-adv-x="1030" d="M30 60q0 40 19 70t61.5 51.5t113.5 35.5q70 15 174 23q28 100 57 217t58 241t57 252t54 252q-70 12 -140 25t-138 20q-9 12 -13.5 28t-4.5 33q0 32 12.5 58t40 45t71.5 29t105 10q57 0 105 -0.5t90 -1t80 -1.5t76 -1q36 0 67 2t62 7t61.5 13t62.5 19q17 -8 31 -21.5 t25 -30.5t16.5 -36t5.5 -41q0 -51 -20.5 -90t-57.5 -65.5t-89 -40t-116 -13.5q-40 -178 -74 -319.5t-62 -251.5t-50 -190t-41 -136q62 0 118.5 -1.5t114.5 -4.5q14 -19 22 -45q7 -25 7 -49q0 -49 -21.5 -82t-63.5 -52.5t-104 -27.5t-142 -8q-42 0 -82 1t-81 2.5t-86 3.5 t-99 3.5t-118 3.5t-143 2q-9 9 -15 25.5t-6 36.5zM602 1952q0 33 11 63.5t33 54t54 38t72 14.5q24 0 41.5 -8.5t28.5 -20.5q6 -56 15.5 -115.5t22 -117.5t26.5 -112q15 -54 32 -98q0 -12 -5 -23t-14.5 -19t-23 -12.5t-31.5 -4.5q-32 0 -65 21.5t-66.5 61.5t-64.5 98 q-32 58 -58 132q-3 10 -6 22q-2 14 -2 26z" />
<glyph unicode="&#xcd;" horiz-adv-x="1030" d="M30 60q0 40 19 70t61.5 51.5t113.5 35.5q70 15 174 23q28 100 57 217t58 241t57 252t54 252q-70 12 -140 25t-138 20q-9 12 -13.5 28t-4.5 33q0 32 12.5 58t40 45t71.5 29t105 10q57 0 105 -0.5t90 -1t80 -1.5t76 -1q36 0 67 2t62 7t61.5 13t62.5 19q17 -8 31 -21.5 t25 -30.5t16.5 -36t5.5 -41q0 -51 -20.5 -90t-57.5 -65.5t-89 -40t-116 -13.5q-40 -178 -74 -319.5t-62 -251.5t-50 -190t-41 -136q62 0 118.5 -1.5t114.5 -4.5q14 -19 22 -45q7 -25 7 -49q0 -49 -21.5 -82t-63.5 -52.5t-104 -27.5t-142 -8q-42 0 -82 1t-81 2.5t-86 3.5 t-99 3.5t-118 3.5t-143 2q-9 9 -15 25.5t-6 36.5zM780 1653q53 76 93.5 138t67.5 113t41 93.5t14 79.5q17 26 42.5 40.5t59.5 14.5t60 -9.5t44 -26.5t26.5 -40.5t8.5 -52.5q1 -90 -157 -254q-32 -32 -66.5 -59.5t-68 -47.5t-63.5 -31t-54 -11q-22 0 -35 12.5t-13 40.5z" />
<glyph unicode="&#xce;" horiz-adv-x="1030" d="M30 60q0 40 19 70t61.5 51.5t113.5 35.5q70 15 174 23q28 100 57 217t58 241t57 252t54 252q-70 12 -140 25t-138 20q-9 12 -13.5 28t-4.5 33q0 32 12.5 58t40 45t71.5 29t105 10q57 0 105 -0.5t90 -1t80 -1.5t76 -1q36 0 67 2t62 7t61.5 13t62.5 19q17 -8 31 -21.5 t25 -30.5t16.5 -36t5.5 -41q0 -51 -20.5 -90t-57.5 -65.5t-89 -40t-116 -13.5q-40 -178 -74 -319.5t-62 -251.5t-50 -190t-41 -136q62 0 118.5 -1.5t114.5 -4.5q14 -19 22 -45q7 -25 7 -49q0 -49 -21.5 -82t-63.5 -52.5t-104 -27.5t-142 -8q-42 0 -82 1t-81 2.5t-86 3.5 t-99 3.5t-118 3.5t-143 2q-9 9 -15 25.5t-6 36.5zM620 1704q0 24 9 56t24.5 67.5t38 73t49.5 73.5t59 67.5t66 55t71 37.5t75 14q52 0 84.5 -19t50.5 -63.5t25 -117.5q6 -72 6 -180q0 -16 1 -40t3 -48q-9 -16 -24.5 -31t-35 -26t-42 -17t-46.5 -6q-48 0 -67 26t-19 80 q0 64 -1 105t-4.5 65t-10 33.5t-16.5 9.5q-16 0 -37 -18.5t-45 -55.5t-49 -93t-48 -130q-10 -4 -20 -6t-21 -2q-15 0 -28.5 6t-24.5 17t-17 28t-6 39z" />
<glyph unicode="&#xcf;" horiz-adv-x="1030" d="M30 60q0 40 19 70t61.5 51.5t113.5 35.5q70 15 174 23q28 100 57 217t58 241t57 252t54 252q-70 12 -140 25t-138 20q-9 12 -13.5 28t-4.5 33q0 32 12.5 58t40 45t71.5 29t105 10q57 0 105 -0.5t90 -1t80 -1.5t76 -1q36 0 67 2t62 7t61.5 13t62.5 19q17 -8 31 -21.5 t25 -30.5t16.5 -36t5.5 -41q0 -51 -20.5 -90t-57.5 -65.5t-89 -40t-116 -13.5q-40 -178 -74 -319.5t-62 -251.5t-50 -190t-41 -136q62 0 118.5 -1.5t114.5 -4.5q14 -19 22 -45q7 -25 7 -49q0 -49 -21.5 -82t-63.5 -52.5t-104 -27.5t-142 -8q-42 0 -82 1t-81 2.5t-86 3.5 t-99 3.5t-118 3.5t-143 2q-9 9 -15 25.5t-6 36.5zM616 1778q0 58 6 100t18 68.5t29 39t39 12.5q30 0 57 -14t47 -35t32 -47t12 -49q0 -18 -6 -39.5t-21 -48.5t-40 -61t-62 -78q-22 0 -41.5 9t-35.5 27.5t-25 47.5t-9 68zM970 1808q0 62 7 105t19.5 70t31 39t43.5 12 q20 0 41 -7t40.5 -19t36.5 -27.5t29 -32.5t19.5 -34.5t7.5 -33.5q0 -18 -7.5 -43t-24.5 -55.5t-43 -68t-62 -83.5q-32 0 -57 11t-43 33t-28 55.5t-10 78.5z" />
<glyph unicode="&#xd0;" horiz-adv-x="1491" d="M49 1180q0 34 14.5 71t44.5 74t75 71t106 60t139 42t172 16q141 0 259.5 -31t213.5 -86t166.5 -133t120 -173t72.5 -204t24 -227q0 -92 -19 -180.5t-55 -167t-89.5 -143.5t-123 -112t-154.5 -73.5t-185 -26.5q-47 0 -96.5 7.5t-104.5 22.5t-115 39t-127 56 q-30 -24 -56.5 -41t-49.5 -27.5t-44 -15t-41 -4.5q-23 0 -42.5 10t-35.5 27.5t-28 40t-20 46.5t-12.5 49t-4.5 46q0 19 5.5 37t17.5 31.5t30 22.5q18 8 42 8q19 0 37 -1t38 -3t43 -4q24 -2 52 -5q23 44 47.5 107t50.5 139q-68 10 -138.5 23.5t-140.5 27.5q-8 10 -10 22 t-2 23q0 22 7.5 41.5t24.5 33.5t42 22t59 8q37 0 92.5 -6.5t122.5 -12.5q20 63 37.5 126t32.5 121.5t27.5 111t21.5 96.5q-12 2 -20.5 2.5t-17.5 1t-19.5 0.5h-24.5q-52 0 -98 -6.5t-89 -21.5t-85 -39.5t-88 -59.5q-24 0 -43 9.5t-32 26t-19 38.5q-7 23 -7 47zM547 248 q49 -14 90 -25t76 -18t66 -11t61 -4q52 0 93.5 15t74 42t56 64.5t39 82t22.5 95.5t7 105q0 76 -18 150t-56 141.5t-94 125t-132 99.5q-22 -105 -46.5 -203.5t-52.5 -189.5q28 2 52 5t45.5 7.5t42.5 10.5t45 14q25 -10 36.5 -32t11.5 -52q0 -34 -16 -63t-48 -50t-80 -33 t-112 -12h-44q-32 -85 -62.5 -152.5t-56.5 -111.5z" />
<glyph unicode="&#xd1;" horiz-adv-x="1765" d="M51 133q0 83 20.5 151t56.5 116t84 74t102 26q43 0 71.5 -17t40.5 -45q-14 -32 -25.5 -64t-19 -61t-11.5 -54t-4 -42q0 -28 3 -46.5t9 -30t17 -16.5t27 -5q19 0 42.5 15.5t53.5 53t68.5 101t87 159.5t109.5 228t135 307q-10 34 -18 63t-13 56.5t-8 54.5t-3 57 q0 63 23 121.5t64 103t99 71t128 26.5q42 0 71.5 -10t49 -25t28.5 -34t9 -37q0 -21 -7 -46.5t-23 -59.5t-41 -79t-63 -107q16 -32 38 -72t48 -83t53 -88t51.5 -88t45 -81t33.5 -68q27 134 50 241.5t45 193t42 149.5t42 111t45 78.5t50 50t58 26.5t69 8q42 0 75 -13t56 -35 t35 -54t12 -70q0 -13 -3 -27.5t-8.5 -27.5t-13 -24t-15.5 -20q-34 -4 -61 -9.5t-49.5 -19.5t-42.5 -38.5t-40 -65t-41 -99.5t-45.5 -142t-54.5 -193t-68 -252q4 -22 7.5 -50t6.5 -58.5t4.5 -61t1.5 -58.5q0 -59 -19 -106.5t-51 -80.5t-76 -51t-93 -18q-80 0 -122 27t-42 72 q0 18 3.5 39.5t11.5 50.5t21 66t31 87q-10 26 -26 61t-36 76.5t-44 87t-49 91.5t-51 90t-50 84q-67 -176 -129 -313.5t-121.5 -241t-116.5 -175.5t-114 -117t-114 -65t-117 -20q-76 0 -130 19t-88 56t-50.5 91t-16.5 125zM1296 1745q0 34 12 61.5t39.5 51t72 45t108.5 43.5 q59 20 102.5 35.5t75.5 29t55 25.5t40 24.5t30 27t27 32.5q34 -4 60 -18t44 -34t26.5 -45t8.5 -51q0 -45 -19 -79.5t-60 -61.5t-106 -49t-157 -44q-60 -13 -102.5 -23t-71.5 -20.5t-49 -23.5t-35 -31q-18 0 -35.5 6t-32.5 18t-24 32t-9 49z" />
<glyph unicode="&#xd2;" horiz-adv-x="1341" d="M96 473q0 90 19 182.5t53 181t80 172t101 156.5t116 133t124.5 103.5t127 67.5t123.5 24q26 0 46.5 -9t35.5 -25t24 -37q8 -22 10 -48q31 20 70.5 33t85.5 13q45 0 82.5 -13t68 -35t53 -53t38 -67.5t23 -77t7.5 -82.5t-5 -95t-16.5 -113t-29 -124t-40.5 -130t-53 -130.5 t-66 -124.5q8 -6 18 -11t23 -8.5t26 -5.5t25 -2q24 0 50 11t54 33t56 55t54 77q14 -1 28.5 -6t26 -14.5t18.5 -22.5t7 -31q0 -23 -12 -54.5t-35 -65.5t-54.5 -67t-70 -59t-82.5 -42t-90 -16q-22 0 -43.5 3t-42 9t-39.5 14t-34 20q-43 -58 -97 -105t-117 -81t-135.5 -53 t-152.5 -19q-112 0 -197.5 33.5t-143.5 100.5t-88 168t-30 237zM463 545q0 -69 13 -126t38.5 -98t63.5 -63t88 -22q30 0 59 6t56 19.5t51 33.5t42 47q-32 39 -58 85.5t-44 101t-27.5 117t-9.5 132.5q0 73 7.5 138.5t22.5 125.5t37.5 116t51.5 112q-49 -32 -97.5 -76 t-91.5 -97t-80 -116t-64 -132.5t-42.5 -145.5t-15.5 -158zM819 1946q0 33 11.5 63.5t33 54t53 38t72.5 14.5q24 0 41.5 -8.5t28.5 -20.5q6 -56 15.5 -115.5t21.5 -117.5t27 -112t32 -98q0 -12 -5.5 -23t-14.5 -19t-23 -12q-12 -5 -30 -5q-32 0 -66 21.5t-67 61.5t-64 98 t-57 132q-3 10 -6 22q-3 14 -3 26zM971 826q0 -73 10 -142t35 -129q18 35 32 75t26 80t20.5 80t14 74t8.5 61t3 43q0 34 -4 62t-17 48t-36 32t-59 16q-12 -66 -22.5 -143t-10.5 -157z" />
<glyph unicode="&#xd3;" horiz-adv-x="1341" d="M96 473q0 90 19 182.5t53 181t80 172t101 156.5t116 133t124.5 103.5t127 67.5t123.5 24q26 0 46.5 -9t35.5 -25t24 -37q8 -22 10 -48q31 20 70.5 33t85.5 13q45 0 82.5 -13t68 -35t53 -53t38 -67.5t23 -77t7.5 -82.5t-5 -95t-16.5 -113t-29 -124t-40.5 -130t-53 -130.5 t-66 -124.5q8 -6 18 -11t23 -8.5t26 -5.5t25 -2q24 0 50 11t54 33t56 55t54 77q14 -1 28.5 -6t26 -14.5t18.5 -22.5t7 -31q0 -23 -12 -54.5t-35 -65.5t-54.5 -67t-70 -59t-82.5 -42t-90 -16q-22 0 -43.5 3t-42 9t-39.5 14t-34 20q-43 -58 -97 -105t-117 -81t-135.5 -53 t-152.5 -19q-112 0 -197.5 33.5t-143.5 100.5t-88 168t-30 237zM463 545q0 -69 13 -126t38.5 -98t63.5 -63t88 -22q30 0 59 6t56 19.5t51 33.5t42 47q-32 39 -58 85.5t-44 101t-27.5 117t-9.5 132.5q0 73 7.5 138.5t22.5 125.5t37.5 116t51.5 112q-49 -32 -97.5 -76 t-91.5 -97t-80 -116t-64 -132.5t-42.5 -145.5t-15.5 -158zM971 826q0 -73 10 -142t35 -129q18 35 32 75t26 80t20.5 80t14 74t8.5 61t3 43q0 34 -4 62t-17 48t-36 32t-59 16q-12 -66 -22.5 -143t-10.5 -157zM1016 1626q53 76 93.5 138t67.5 113t40.5 93t13.5 80 q17 26 42.5 40.5t59.5 14.5t60.5 -9.5t44 -26.5t26 -41t8.5 -52q0 -90 -157 -254q-32 -32 -66.5 -59.5t-67.5 -47.5t-63.5 -31.5t-54.5 -11.5q-22 0 -34.5 13t-12.5 41z" />
<glyph unicode="&#xd4;" horiz-adv-x="1341" d="M96 473q0 90 19 182.5t53 181t80 172t101 156.5t116 133t124.5 103.5t127 67.5t123.5 24q26 0 46.5 -9t35.5 -25t24 -37q8 -22 10 -48q31 20 70.5 33t85.5 13q45 0 82.5 -13t68 -35t53 -53t38 -67.5t23 -77t7.5 -82.5t-5 -95t-16.5 -113t-29 -124t-40.5 -130t-53 -130.5 t-66 -124.5q8 -6 18 -11t23 -8.5t26 -5.5t25 -2q24 0 50 11t54 33t56 55t54 77q14 -1 28.5 -6t26 -14.5t18.5 -22.5t7 -31q0 -23 -12 -54.5t-35 -65.5t-54.5 -67t-70 -59t-82.5 -42t-90 -16q-22 0 -43.5 3t-42 9t-39.5 14t-34 20q-43 -58 -97 -105t-117 -81t-135.5 -53 t-152.5 -19q-112 0 -197.5 33.5t-143.5 100.5t-88 168t-30 237zM463 545q0 -69 13 -126t38.5 -98t63.5 -63t88 -22q30 0 59 6t56 19.5t51 33.5t42 47q-32 39 -58 85.5t-44 101t-27.5 117t-9.5 132.5q0 73 7.5 138.5t22.5 125.5t37.5 116t51.5 112q-49 -32 -97.5 -76 t-91.5 -97t-80 -116t-64 -132.5t-42.5 -145.5t-15.5 -158zM780 1706q0 24 9 56t24.5 67.5t38 73t49.5 73.5t59 67.5t66 55t71 37.5t75 14q52 0 84.5 -19t50.5 -63.5t25 -117.5q6 -72 6 -180q0 -16 1 -40t3 -48q-9 -16 -24.5 -31t-35 -26t-42 -17t-46.5 -6q-48 0 -67 26 t-19 80q0 64 -1 105t-4.5 65t-10 33.5t-16.5 9.5q-16 0 -37 -18.5t-45 -55.5t-49 -93t-48 -130q-10 -4 -20 -6t-21 -2q-15 0 -28.5 6t-24.5 17t-17 28t-6 39zM971 826q0 -73 10 -142t35 -129q18 35 32 75t26 80t20.5 80t14 74t8.5 61t3 43q0 34 -4 62t-17 48t-36 32t-59 16 q-12 -66 -22.5 -143t-10.5 -157z" />
<glyph unicode="&#xd5;" horiz-adv-x="1341" d="M96 473q0 90 19 182.5t53 181t80 172t101 156.5t116 133t124.5 103.5t127 67.5t123.5 24q26 0 46.5 -9t35.5 -25t24 -37q8 -22 10 -48q31 20 70.5 33t85.5 13q45 0 82.5 -13t68 -35t53 -53t38 -67.5t23 -77t7.5 -82.5t-5 -95t-16.5 -113t-29 -124t-40.5 -130t-53 -130.5 t-66 -124.5q8 -6 18 -11t23 -8.5t26 -5.5t25 -2q24 0 50 11t54 33t56 55t54 77q14 -1 28.5 -6t26 -14.5t18.5 -22.5t7 -31q0 -23 -12 -54.5t-35 -65.5t-54.5 -67t-70 -59t-82.5 -42t-90 -16q-22 0 -43.5 3t-42 9t-39.5 14t-34 20q-43 -58 -97 -105t-117 -81t-135.5 -53 t-152.5 -19q-112 0 -197.5 33.5t-143.5 100.5t-88 168t-30 237zM463 545q0 -69 13 -126t38.5 -98t63.5 -63t88 -22q30 0 59 6t56 19.5t51 33.5t42 47q-32 39 -58 85.5t-44 101t-27.5 117t-9.5 132.5q0 73 7.5 138.5t22.5 125.5t37.5 116t51.5 112q-49 -32 -97.5 -76 t-91.5 -97t-80 -116t-64 -132.5t-42.5 -145.5t-15.5 -158zM780 1704q0 34 12 61t39.5 51t72 45t108.5 43q59 20 102.5 36t75.5 29t55 25t40 25t30 27t27 32q34 -4 60 -17t44 -33.5t26.5 -45t8.5 -51.5q0 -45 -19 -79.5t-60 -62t-106 -49.5t-157 -42q-60 -13 -102.5 -23.5 t-71.5 -21.5t-49 -23t-35 -30q-18 0 -35.5 5.5t-32.5 18t-24 32.5t-9 48zM971 826q0 -73 10 -142t35 -129q18 35 32 75t26 80t20.5 80t14 74t8.5 61t3 43q0 34 -4 62t-17 48t-36 32t-59 16q-12 -66 -22.5 -143t-10.5 -157z" />
<glyph unicode="&#xd6;" horiz-adv-x="1341" d="M96 473q0 90 19 182.5t53 181t80 172t101 156.5t116 133t124.5 103.5t127 67.5t123.5 24q26 0 46.5 -9t35.5 -25t24 -37q8 -22 10 -48q31 20 70.5 33t85.5 13q45 0 82.5 -13t68 -35t53 -53t38 -67.5t23 -77t7.5 -82.5t-5 -95t-16.5 -113t-29 -124t-40.5 -130t-53 -130.5 t-66 -124.5q8 -6 18 -11t23 -8.5t26 -5.5t25 -2q24 0 50 11t54 33t56 55t54 77q14 -1 28.5 -6t26 -14.5t18.5 -22.5t7 -31q0 -23 -12 -54.5t-35 -65.5t-54.5 -67t-70 -59t-82.5 -42t-90 -16q-22 0 -43.5 3t-42 9t-39.5 14t-34 20q-43 -58 -97 -105t-117 -81t-135.5 -53 t-152.5 -19q-112 0 -197.5 33.5t-143.5 100.5t-88 168t-30 237zM463 545q0 -69 13 -126t38.5 -98t63.5 -63t88 -22q30 0 59 6t56 19.5t51 33.5t42 47q-32 39 -58 85.5t-44 101t-27.5 117t-9.5 132.5q0 73 7.5 138.5t22.5 125.5t37.5 116t51.5 112q-49 -32 -97.5 -76 t-91.5 -97t-80 -116t-64 -132.5t-42.5 -145.5t-15.5 -158zM752 1776q0 58 6 100t17.5 68.5t29 39t39.5 12.5q30 0 57 -14t47 -35t32 -47t12 -49q0 -18 -6.5 -39.5t-21.5 -48.5t-39.5 -61t-62.5 -78q-22 0 -41.5 9t-35 27.5t-24.5 47.5t-9 68zM971 826q0 -73 10 -142t35 -129 q18 35 32 75t26 80t20.5 80t14 74t8.5 61t3 43q0 34 -4 62t-17 48t-36 32t-59 16q-12 -66 -22.5 -143t-10.5 -157zM1106 1806q0 62 6.5 105t19 70t31.5 39t43 12q20 0 41 -7t41 -19t36.5 -27.5t29 -32.5t19.5 -34.5t7 -33.5q0 -18 -7.5 -43t-24 -55.5t-42.5 -68t-63 -83.5 q-32 0 -57 11t-42.5 33t-27.5 55.5t-10 78.5z" />
<glyph unicode="&#xd7;" horiz-adv-x="936" d="M174 196q0 30 14 59t41 60t66.5 64t89.5 71q-10 24 -24.5 53l-29.5 59t-31 60t-31 57t-29 50t-25 39q2 18 11.5 34t25.5 28.5t36 19.5q20 8 40 8q38 0 68 -12.5t57 -43t53 -82.5t57 -130q40 32 76.5 63t66.5 59t52 53t36 48q30 -2 52.5 -11t38 -24.5t23.5 -36.5t8 -47 q0 -33 -19 -67.5t-53.5 -71.5t-85 -78t-115.5 -86q8 -22 17.5 -47.5t18.5 -53.5l18 -56t17.5 -53.5l15.5 -46.5q8 -22 14 -36q-2 -12 -9 -22t-17.5 -18t-25 -12.5t-30.5 -4.5q-36 0 -67 16.5t-59 56.5q-8 12 -18 30.5t-20 38.5t-20 40.5t-17 38.5q-28 -19 -59.5 -39.5 t-61.5 -39t-56 -35.5q-26 -16 -46 -27q-16 2 -28 8.5t-20 16.5t-12 23t-4 27z" />
<glyph unicode="&#xd8;" horiz-adv-x="1358" d="M96 471q0 94 19 187t52 181t79 169t100 151t114 127.5t123 98.5t125 63t122 22q22 0 39 -5.5t30 -15.5t22 -23.5t13 -29.5q20 60 36.5 118t29 107t21 85.5t11.5 52.5q16 10 33 14.5t33 4.5q38 0 67.5 -16t50.5 -43.5t32.5 -65t11.5 -82.5q0 -23 -5 -46t-16 -52t-31 -69 t-51 -98q36 -6 64.5 -22t50.5 -39t38 -53t26 -63t15 -69t5 -71q0 -71 -11.5 -154t-35 -170t-58.5 -175t-83 -169t-109 -151.5t-135 -122.5t-162 -82q-86 -31 -188 -31q-10 -33 -21 -68.5t-20 -71.5t-16 -70t-13 -62t-10 -49t-4 -31q-7 -3 -16.5 -5t-19.5 -3t-19 -1.5 t-15 -0.5q-32 0 -61 12t-51 33t-35 51t-13 66q0 16 5 40.5t16 56t27 67.5q17 38 40 78q-130 62 -191 184t-61 311zM440 545q0 -73 14 -131t42 -100l412 996q-63 -31 -122.5 -78.5t-111.5 -106.5t-95 -128t-74 -144t-48 -153t-17 -155zM682 236q54 0 105 25t96.5 69t84 104.5 t65.5 131t43 146.5t16 154q0 68 -17 112t-51 66q-28 -74 -55 -141t-54.5 -130t-55 -125t-56.5 -127.5t-59 -135.5q-30 -69 -62 -149z" />
<glyph unicode="&#xd9;" horiz-adv-x="1294" d="M74 1268q0 56 32 103t89 82t135 55t168 20q73 0 126.5 -19t88.5 -53t52 -80t17 -100q0 -32 -2.5 -65t-9 -71t-17.5 -81t-27 -95t-39 -114q-23 -64 -52 -140q-29 -74 -48.5 -131t-31 -100t-16.5 -74.5t-5 -54.5q0 -76 32 -111.5t98 -35.5q53 0 108.5 46t109 135.5 t102.5 221.5t89 306q-16 70 -23.5 135t-7.5 125q0 59 9 108.5t27 85.5t47 56t69 20q28 0 57 -9t55 -23.5t49 -34t39 -40.5t26 -43q10 -20 10 -40q0 -27 -3.5 -54.5t-13 -62t-25.5 -81t-42 -112.5q-39 -180 -89 -325t-108.5 -258t-125.5 -194t-139 -134t-149 -78t-157 -25 q-93 0 -167.5 24t-126 70t-79 112t-27.5 150q0 38 6.5 83.5t17.5 92t25.5 92.5t30.5 87q34 88 60 157.5t45.5 123.5t32 95.5t20.5 72.5t11 53q3 23 3 39q0 20 -4 32t-12 19t-18 9q-12 3 -24 3q-15 0 -36 -8.5t-46 -23.5t-52.5 -37t-55.5 -48q-24 4 -44 18t-34 34t-22 44 t-8 46zM733 1882q0 33 11.5 63.5t33 54.5t53 38t72.5 14q24 0 41.5 -8t28.5 -20q6 -56 15.5 -116t21.5 -117.5t27 -111t32 -98.5q0 -12 -5.5 -23t-14.5 -19t-23 -13q-12 -4 -30 -4q-32 0 -66 21t-67 61.5t-64 99t-57 131.5q-3 10 -6 22.5t-3 24.5z" />
<glyph unicode="&#xda;" horiz-adv-x="1294" d="M74 1268q0 56 32 103t89 82t135 55t168 20q73 0 126.5 -19t88.5 -53t52 -80t17 -100q0 -32 -2.5 -65t-9 -71t-17.5 -81t-27 -95t-39 -114q-23 -64 -52 -140q-29 -74 -48.5 -131t-31 -100t-16.5 -74.5t-5 -54.5q0 -76 32 -111.5t98 -35.5q53 0 108.5 46t109 135.5 t102.5 221.5t89 306q-16 70 -23.5 135t-7.5 125q0 59 9 108.5t27 85.5t47 56t69 20q28 0 57 -9t55 -23.5t49 -34t39 -40.5t26 -43q10 -20 10 -40q0 -27 -3.5 -54.5t-13 -62t-25.5 -81t-42 -112.5q-39 -180 -89 -325t-108.5 -258t-125.5 -194t-139 -134t-149 -78t-157 -25 q-93 0 -167.5 24t-126 70t-79 112t-27.5 150q0 38 6.5 83.5t17.5 92t25.5 92.5t30.5 87q34 88 60 157.5t45.5 123.5t32 95.5t20.5 72.5t11 53q3 23 3 39q0 20 -4 32t-12 19t-18 9q-12 3 -24 3q-15 0 -36 -8.5t-46 -23.5t-52.5 -37t-55.5 -48q-24 4 -44 18t-34 34t-22 44 t-8 46zM887 1562q53 76 93 138t67 113t41 93t14 80q17 26 42.5 41t59.5 15t60.5 -10t44 -27t26.5 -41t9 -52q0 -90 -158 -254q-32 -32 -66 -59t-67.5 -47t-64 -31.5t-54.5 -11.5q-22 0 -34.5 12.5t-12.5 40.5z" />
<glyph unicode="&#xdb;" horiz-adv-x="1294" d="M74 1268q0 56 32 103t89 82t135 55t168 20q73 0 126.5 -19t88.5 -53t52 -80t17 -100q0 -32 -2.5 -65t-9 -71t-17.5 -81t-27 -95t-39 -114q-23 -64 -52 -140q-29 -74 -48.5 -131t-31 -100t-16.5 -74.5t-5 -54.5q0 -76 32 -111.5t98 -35.5q53 0 108.5 46t109 135.5 t102.5 221.5t89 306q-16 70 -23.5 135t-7.5 125q0 59 9 108.5t27 85.5t47 56t69 20q28 0 57 -9t55 -23.5t49 -34t39 -40.5t26 -43q10 -20 10 -40q0 -27 -3.5 -54.5t-13 -62t-25.5 -81t-42 -112.5q-39 -180 -89 -325t-108.5 -258t-125.5 -194t-139 -134t-149 -78t-157 -25 q-93 0 -167.5 24t-126 70t-79 112t-27.5 150q0 38 6.5 83.5t17.5 92t25.5 92.5t30.5 87q34 88 60 157.5t45.5 123.5t32 95.5t20.5 72.5t11 53q3 23 3 39q0 20 -4 32t-12 19t-18 9q-12 3 -24 3q-15 0 -36 -8.5t-46 -23.5t-52.5 -37t-55.5 -48q-24 4 -44 18t-34 34t-22 44 t-8 46zM742 1659q0 24 8 55.5t24 67.5t38 73.5t49.5 73t59 67.5t66.5 56t71 38t74 14q52 0 85 -19.5t51 -64t24 -117.5t6 -181q0 -16 2 -40q0 -24 2 -48q-9 -16 -24 -30t-34.5 -25t-42 -18t-46.5 -7q-48 0 -67 26.5t-19 80.5q0 64 -1 105.5t-4.5 65.5t-9.5 33q-8 9 -18 9 q-16 0 -36.5 -18.5t-44.5 -55.5t-49 -92.5t-48 -130.5q-10 -4 -20 -6t-21 -2q-15 0 -29 5.5t-24 17t-16 28t-6 39.5z" />
<glyph unicode="&#xdc;" horiz-adv-x="1294" d="M74 1268q0 56 32 103t89 82t135 55t168 20q73 0 126.5 -19t88.5 -53t52 -80t17 -100q0 -32 -2.5 -65t-9 -71t-17.5 -81t-27 -95t-39 -114q-23 -64 -52 -140q-29 -74 -48.5 -131t-31 -100t-16.5 -74.5t-5 -54.5q0 -76 32 -111.5t98 -35.5q53 0 108.5 46t109 135.5 t102.5 221.5t89 306q-16 70 -23.5 135t-7.5 125q0 59 9 108.5t27 85.5t47 56t69 20q28 0 57 -9t55 -23.5t49 -34t39 -40.5t26 -43q10 -20 10 -40q0 -27 -3.5 -54.5t-13 -62t-25.5 -81t-42 -112.5q-39 -180 -89 -325t-108.5 -258t-125.5 -194t-139 -134t-149 -78t-157 -25 q-93 0 -167.5 24t-126 70t-79 112t-27.5 150q0 38 6.5 83.5t17.5 92t25.5 92.5t30.5 87q34 88 60 157.5t45.5 123.5t32 95.5t20.5 72.5t11 53q3 23 3 39q0 20 -4 32t-12 19t-18 9q-12 3 -24 3q-15 0 -36 -8.5t-46 -23.5t-52.5 -37t-55.5 -48q-24 4 -44 18t-34 34t-22 44 t-8 46zM750 1732q0 58 6 100t17.5 69t29 40t39.5 13q30 0 57 -14t47 -36t32 -47.5t12 -48.5q0 -18 -6.5 -39t-21.5 -48t-39.5 -61t-62.5 -79q-22 0 -41.5 9t-35 27.5t-24.5 47t-9 67.5zM1104 1763q0 62 6.5 105.5t19 69.5t31.5 38t43 12q20 0 41 -7t41 -18.5t36.5 -27 t29 -32.5t19.5 -34.5t7 -33.5q0 -18 -7.5 -42.5t-24 -55.5t-42.5 -69t-63 -83q-32 0 -57 10.5t-42.5 33t-27.5 56t-10 78.5z" />
<glyph unicode="&#xdd;" horiz-adv-x="1487" d="M102 940q0 54 21 108t57.5 104t85.5 96.5t105 86.5t116.5 72.5t119.5 55.5t114 36t100 13q104 0 157 -42q52 -42 52 -126q0 -20 -2 -39t-9 -45t-22 -64t-39.5 -96t-61.5 -140.5t-89 -197.5q-27 -60 -43 -100t-25 -67.5t-11.5 -46t-2.5 -36.5q0 -34 18 -52q17 -18 47 -18 q33 0 69.5 10t73.5 28t72 44t66 60q18 160 36.5 287t38.5 225t42 169t47 116t53 66t62 21q26 0 52 -8.5t49.5 -23t44 -34t35.5 -40.5t23 -42.5t8 -41.5q0 -27 -6.5 -55.5t-20.5 -63.5t-36 -78.5t-53 -99.5q-12 -62 -24 -126.5t-24.5 -126.5t-24 -120t-22.5 -109t-19.5 -92 t-14.5 -69q-11 -46 -24 -96t-25 -90q50 36 95 74t89 83t86.5 98t85.5 117q14 -1 27 -5t23 -12.5t16 -20.5t6 -30q0 -38 -23 -85t-61.5 -98t-89.5 -104t-107.5 -103t-115.5 -95t-113 -79q-22 -46 -49 -90t-59 -83t-69 -72t-78 -56t-86 -36.5t-93 -13.5q-24 0 -50 5.5 t-51 16.5t-48 27t-40.5 36t-28 44t-10.5 52q0 32 25 65t78 73t136 87t197 106q10 26 20 59.5t20 72.5t19 82t19 87q-42 -57 -91 -101.5t-102 -75.5t-108 -48t-109 -17q-59 0 -104.5 19t-77.5 53t-48.5 81t-16.5 103q0 28 3.5 58t11.5 63.5t20 72t28 83.5q-70 2 -132 23.5 t-108.5 60t-74 92t-27.5 119.5zM377 991q0 -26 6.5 -47.5t22.5 -42t42 -40t66 -40.5q33 72 65 132.5t57 111t40 89.5q16 38 16 66q0 26 -9 36t-29 10q-14 0 -40.5 -10.5t-57 -29t-62.5 -43.5t-58 -56t-42.5 -65.5t-16.5 -70.5zM1102 1616q53 76 93.5 138t67.5 113t40.5 93 t13.5 80q17 26 42.5 40.5t59.5 14.5t60.5 -9.5t44 -26.5t26 -41t8.5 -52q0 -90 -157 -254q-32 -32 -66.5 -59.5t-67.5 -47.5t-63.5 -31.5t-54.5 -11.5q-22 0 -34.5 13t-12.5 41z" />
<glyph unicode="&#xde;" horiz-adv-x="1380" d="M16 12q0 30 12 59t32 51t46 36t54 16q33 -36 64.5 -56t59.5 -20q49 0 90 73q40 73 80 218q24 90 45 167.5t40.5 150.5t37.5 146q17 73 37 153q-44 -8 -85 -21t-78 -30t-67 -37t-52 -40q-17 0 -34 7t-30.5 21t-21.5 34t-8 47q0 50 32.5 100.5t92.5 94t145 76.5 q84 32 186 48q30 120 62 207t65 142.5t66.5 82t66.5 26.5q23 0 32.5 -11t9.5 -39q0 -8 -2 -27t-5 -44t-7.5 -56t-9 -63t-9.5 -64t-9 -60t-8 -50t-6 -35q92 -6 163 -27t125 -53t91 -74.5t60.5 -93t34.5 -107.5q10 -56 10 -118q0 -77 -18.5 -147.5t-51 -133t-77 -117 t-98 -100.5t-113 -82t-122 -61t-125.5 -40t-123 -17q-38 -84 -87.5 -147.5t-107.5 -105.5t-122.5 -62.5t-132.5 -20.5q-53 0 -95.5 14.5t-72.5 41.5t-46 64.5t-16 83.5zM782 398q8 -2 16 -2h13q60 0 113 26t92.5 74t62.5 113t23 143q0 43 -8 82.5t-32 72.5t-67 58t-113 39 q-16 -130 -41 -281t-59 -325z" />
<glyph unicode="&#xdf;" horiz-adv-x="1071" d="M-389 -274q0 30 12 59t32 51t45.5 36t53.5 16q32 -36 64 -56t61 -20q26 0 49.5 18t45 56.5t40.5 97.5t35 139q52 260 99.5 458.5t94.5 343.5t95 242.5t101 156t112.5 83.5t128.5 25q60 0 112 -19.5t90 -54t59 -80.5t21 -102q0 -35 -10 -75.5t-32 -85.5t-57 -96t-85 -108 q54 -68 94 -122.5t69 -99.5t47 -81t29 -67t15 -59t4 -54q0 -84 -28 -151.5t-75 -115t-108 -73t-129 -25.5q-63 0 -113.5 18.5t-86.5 50.5t-55 75t-19 91q0 39 13 70.5t34 53.5t46 33t50 11q16 0 25 -2q8 -2 18 -6q14 -36 32 -67t37 -55t39 -38t38 -14q20 0 29 11t9 35 q0 17 -7 39.5t-23 53.5t-42 71t-64 90q-32 42 -55 74t-38 59.5t-23 51t-8 46.5q0 32 10 64.5t32 64.5q28 44 47.5 80t31.5 67t17.5 56t5.5 47q0 40 -17 62t-49 22q-22 0 -42 -27t-41 -82.5t-43 -140.5t-46.5 -201.5t-53 -265.5t-60.5 -332q-24 -138 -70.5 -246.5 t-109 -184.5t-138.5 -116q-76 -41 -160 -41q-53 0 -96.5 11.5t-74 34.5t-47.5 58t-17 81z" />
<glyph unicode="&#xe0;" d="M51 282q0 77 19.5 153.5t53.5 146.5t79.5 130t96.5 104.5t105 70t105 25.5q22 0 34 -3.5t19 -11.5l7 119q12 14 31 20t40 6q52 0 92.5 -16t67.5 -40t41 -53t14 -57q0 -20 -5 -56t-17 -78q-27 -96 -46 -170t-30.5 -127.5t-17 -88.5t-5.5 -55q0 -16 1.5 -25t4.5 -14t8 -6.5 t11 -1.5q16 0 43 15t63 47t80 81.5t92 118.5q16 0 30 -5t24 -13t16 -20t6 -26q0 -25 -15 -57.5t-40.5 -70t-60 -77t-73 -76.5t-80 -70t-80.5 -57.5t-75 -39t-64 -14.5q-34 0 -61 8t-46 27t-29.5 51t-10.5 82q0 17 2 37t5 43q-24 -70 -54 -116t-60 -73t-60.5 -38t-57.5 -11 q-44 0 -81 18t-64 53.5t-43 88.5q-15 52 -15 122zM352 370q0 -28 4.5 -44.5t12 -25t17.5 -11.5t20 -3q22 0 42 14q22 14 40 38l65 426q-38 -24 -74.5 -66.5t-64.5 -95.5t-45 -112.5t-17 -119.5zM391 1497q0 33 11.5 64t33 54t53 37.5t72.5 14.5q24 0 41.5 -8.5t28.5 -20.5 q6 -56 15.5 -115t21.5 -117t27 -112t32 -98q0 -12 -5.5 -23t-14.5 -19t-23 -13q-12 -5 -30 -5q-32 0 -66 21.5t-67 62t-64 98.5t-57 132q-3 10 -6 22t-3 25z" />
<glyph unicode="&#xe1;" d="M51 282q0 77 19.5 153.5t53.5 146.5t79.5 130t96.5 104.5t105 70t105 25.5q22 0 34 -3.5t19 -11.5l7 119q12 14 31 20t40 6q52 0 92.5 -16t67.5 -40t41 -53t14 -57q0 -20 -5 -56t-17 -78q-27 -96 -46 -170t-30.5 -127.5t-17 -88.5t-5.5 -55q0 -16 1.5 -25t4.5 -14t8 -6.5 t11 -1.5q16 0 43 15t63 47t80 81.5t92 118.5q16 0 30 -5t24 -13t16 -20t6 -26q0 -25 -15 -57.5t-40.5 -70t-60 -77t-73 -76.5t-80 -70t-80.5 -57.5t-75 -39t-64 -14.5q-34 0 -61 8t-46 27t-29.5 51t-10.5 82q0 17 2 37t5 43q-24 -70 -54 -116t-60 -73t-60.5 -38t-57.5 -11 q-44 0 -81 18t-64 53.5t-43 88.5q-15 52 -15 122zM352 370q0 -28 4.5 -44.5t12 -25t17.5 -11.5t20 -3q22 0 42 14q22 14 40 38l65 426q-38 -24 -74.5 -66.5t-64.5 -95.5t-45 -112.5t-17 -119.5zM446 1178q53 76 93.5 138t67.5 113t41 93t14 80q17 26 42.5 40t59.5 14t60 -9 t44 -26t26.5 -41t8.5 -52q1 -90 -157 -254q-32 -32 -66.5 -60t-68 -48t-63.5 -31t-54 -11q-22 0 -35 13t-13 41z" />
<glyph unicode="&#xe2;" d="M51 282q0 77 19.5 153.5t53.5 146.5t79.5 130t96.5 104.5t105 70t105 25.5q22 0 34 -3.5t19 -11.5l7 119q12 14 31 20t40 6q52 0 92.5 -16t67.5 -40t41 -53t14 -57q0 -20 -5 -56t-17 -78q-27 -96 -46 -170t-30.5 -127.5t-17 -88.5t-5.5 -55q0 -16 1.5 -25t4.5 -14t8 -6.5 t11 -1.5q16 0 43 15t63 47t80 81.5t92 118.5q16 0 30 -5t24 -13t16 -20t6 -26q0 -25 -15 -57.5t-40.5 -70t-60 -77t-73 -76.5t-80 -70t-80.5 -57.5t-75 -39t-64 -14.5q-34 0 -61 8t-46 27t-29.5 51t-10.5 82q0 17 2 37t5 43q-24 -70 -54 -116t-60 -73t-60.5 -38t-57.5 -11 q-44 0 -81 18t-64 53.5t-43 88.5q-15 52 -15 122zM350 1231q0 24 9 55.5t24.5 67.5t38 73.5t49.5 73t59 67.5t66 56t71 38t75 14q52 0 84.5 -19.5t50.5 -64t24.5 -117.5t6.5 -181q0 -16 1 -40t3 -48q-9 -16 -24.5 -30t-35 -25t-42 -18t-46.5 -7q-48 0 -67 26.5t-19 80.5 q0 64 -1 105.5t-4.5 65.5t-10 33t-16.5 9q-16 0 -37 -18.5t-45 -55.5t-49 -92.5t-48 -130.5q-10 -4 -20 -6t-21 -2q-15 0 -28.5 5.5t-24.5 17t-17 28t-6 39.5zM352 370q0 -28 4.5 -44.5t12 -25t17.5 -11.5t20 -3q22 0 42 14q22 14 40 38l65 426q-38 -24 -74.5 -66.5 t-64.5 -95.5t-45 -112.5t-17 -119.5z" />
<glyph unicode="&#xe3;" d="M51 282q0 77 19.5 153.5t53.5 146.5t79.5 130t96.5 104.5t105 70t105 25.5q22 0 34 -3.5t19 -11.5l7 119q12 14 31 20t40 6q52 0 92.5 -16t67.5 -40t41 -53t14 -57q0 -20 -5 -56t-17 -78q-27 -96 -46 -170t-30.5 -127.5t-17 -88.5t-5.5 -55q0 -16 1.5 -25t4.5 -14t8 -6.5 t11 -1.5q16 0 43 15t63 47t80 81.5t92 118.5q16 0 30 -5t24 -13t16 -20t6 -26q0 -25 -15 -57.5t-40.5 -70t-60 -77t-73 -76.5t-80 -70t-80.5 -57.5t-75 -39t-64 -14.5q-34 0 -61 8t-46 27t-29.5 51t-10.5 82q0 17 2 37t5 43q-24 -70 -54 -116t-60 -73t-60.5 -38t-57.5 -11 q-44 0 -81 18t-64 53.5t-43 88.5q-15 52 -15 122zM352 370q0 -28 4.5 -44.5t12 -25t17.5 -11.5t20 -3q22 0 42 14q22 14 40 38l65 426q-38 -24 -74.5 -66.5t-64.5 -95.5t-45 -112.5t-17 -119.5zM366 1225q0 34 12 61.5t39.5 51t72 45t108.5 43.5q59 20 102.5 35.5t75.5 29 t55 25.5t40 24.5t30 27t27 32.5q34 -4 60 -18t44 -34t26.5 -45t8.5 -51q0 -45 -19 -79.5t-60 -61.5t-106 -49t-157 -44q-60 -13 -102.5 -23t-71.5 -20.5t-49 -23.5t-35 -31q-18 0 -35.5 6t-32.5 18t-24 32t-9 49z" />
<glyph unicode="&#xe4;" d="M51 282q0 77 19.5 153.5t53.5 146.5t79.5 130t96.5 104.5t105 70t105 25.5q22 0 34 -3.5t19 -11.5l7 119q12 14 31 20t40 6q52 0 92.5 -16t67.5 -40t41 -53t14 -57q0 -20 -5 -56t-17 -78q-27 -96 -46 -170t-30.5 -127.5t-17 -88.5t-5.5 -55q0 -16 1.5 -25t4.5 -14t8 -6.5 t11 -1.5q16 0 43 15t63 47t80 81.5t92 118.5q16 0 30 -5t24 -13t16 -20t6 -26q0 -25 -15 -57.5t-40.5 -70t-60 -77t-73 -76.5t-80 -70t-80.5 -57.5t-75 -39t-64 -14.5q-34 0 -61 8t-46 27t-29.5 51t-10.5 82q0 17 2 37t5 43q-24 -70 -54 -116t-60 -73t-60.5 -38t-57.5 -11 q-44 0 -81 18t-64 53.5t-43 88.5q-15 52 -15 122zM346 1256q0 58 6 100t18 68.5t29 39t39 12.5q30 0 57 -14t47 -35t32 -47t12 -49q0 -18 -6 -39.5t-21 -48.5t-40 -61t-62 -78q-22 0 -41.5 9t-35.5 27.5t-25 47.5t-9 68zM352 370q0 -28 4.5 -44.5t12 -25t17.5 -11.5t20 -3 q22 0 42 14q22 14 40 38l65 426q-38 -24 -74.5 -66.5t-64.5 -95.5t-45 -112.5t-17 -119.5zM700 1286q0 62 7 105t19.5 70t31 39t43.5 12q20 0 41 -7t40.5 -19t36.5 -27.5t29 -32.5t19.5 -34.5t7.5 -33.5q0 -18 -7.5 -43t-24.5 -55.5t-43 -68t-62 -83.5q-32 0 -57 11t-43 33 t-28 55.5t-10 78.5z" />
<glyph unicode="&#xe5;" d="M51 282q0 77 19.5 153.5t53.5 146.5t79.5 130t96.5 104.5t105 70t105 25.5q22 0 34 -3.5t19 -11.5l7 119q12 14 31 20t40 6q52 0 92.5 -16t67.5 -40t41 -53t14 -57q0 -20 -5 -56t-17 -78q-27 -96 -46 -170t-30.5 -127.5t-17 -88.5t-5.5 -55q0 -16 1.5 -25t4.5 -14t8 -6.5 t11 -1.5q16 0 43 15t63 47t80 81.5t92 118.5q16 0 30 -5t24 -13t16 -20t6 -26q0 -25 -15 -57.5t-40.5 -70t-60 -77t-73 -76.5t-80 -70t-80.5 -57.5t-75 -39t-64 -14.5q-34 0 -61 8t-46 27t-29.5 51t-10.5 82q0 17 2 37t5 43q-24 -70 -54 -116t-60 -73t-60.5 -38t-57.5 -11 q-44 0 -81 18t-64 53.5t-43 88.5q-15 52 -15 122zM352 370q0 -28 4.5 -44.5t12 -25t17.5 -11.5t20 -3q22 0 42 14q22 14 40 38l65 426q-38 -24 -74.5 -66.5t-64.5 -95.5t-45 -112.5t-17 -119.5zM464 1338q0 37 9.5 73.5t25 69.5t36 61.5t43 49t44.5 32.5t42 12q17 0 28.5 -5 t17.5 -11q16 32 42 49t54 17q32 0 61 -16t51 -44t35 -68t13 -90t-12 -94t-33 -81t-49.5 -66t-61.5 -48.5t-68 -30t-70 -10.5q-47 0 -85.5 14t-65.5 39t-42 62t-15 85zM639 1382q0 -28 14 -42.5t39 -14.5q12 0 23.5 5.5t21 16t15.5 25t6 33.5q0 26 -13 57.5t-37 59.5 q-18 -18 -30.5 -37.5t-21 -38t-13 -35.5t-4.5 -29z" />
<glyph unicode="&#xe6;" horiz-adv-x="1161" d="M51 282q0 77 19.5 153.5t53.5 146.5t79.5 130t96.5 104.5t105 70t105 25.5q22 0 34 -3.5t19 -11.5l7 139q12 14 31 20.5t40 6.5q34 0 63.5 -12t52 -32t38 -45.5t22.5 -53.5q25 18 55 25t56 7q106 0 162 -52q57 -50 57 -158q0 -64 -20 -121t-65.5 -104.5t-118 -84 t-177.5 -60.5q0 -34 4 -61t15 -45t30 -27t49 -9q52 0 110.5 21t116 60t111.5 94t98 121q18 0 33 -6t25 -15.5t15 -21.5t5 -24q0 -28 -15 -64t-42 -74.5t-65 -79t-82 -78t-94 -70.5t-102 -58t-105 -39t-103 -14q-112 0 -179 61t-87 189q-24 -70 -56 -115t-66.5 -71t-67.5 -36 t-60 -10q-44 0 -81 18t-64 53.5t-43 88.5q-15 52 -15 122zM352 370q0 -28 4.5 -44.5t12 -25t17.5 -11.5t20 -3q22 0 42 14q22 14 40 38l65 426q-38 -24 -74.5 -66.5t-64.5 -95.5t-45 -112.5t-17 -119.5zM778 524q43 8 70.5 23t42.5 35t21 42.5t6 45.5q0 32 -12 50t-30 18 q-10 0 -25 -13.5t-29 -40t-26 -66.5t-18 -94z" />
<glyph unicode="&#xe7;" horiz-adv-x="692" d="M37 -227q0 20 6.5 40.5t19.5 37.5t32 28t44 15q14 -16 30.5 -30t32 -23.5t30.5 -15t28 -5.5q24 0 45 20t37 58q16 36 28 86q-16 -2 -32 -2q-76 0 -130 23t-89 67t-51.5 108t-16.5 148q0 79 19.5 155.5t53.5 146.5t80 129t98.5 103t109 68t110.5 24q52 0 91 -13t65.5 -39 t39.5 -63t13 -83q0 -49 -16 -92.5t-42.5 -75t-60.5 -50t-72 -18.5q-34 0 -54 10q-22 10 -34 29q11 42 16 75.5t5 53.5q0 22 -8.5 32.5t-18.5 10.5q-14 0 -33 -23.5t-36 -67.5t-29 -107t-12 -140q0 -42 6 -72t19 -49t34 -27.5t51 -8.5q43 0 93 21t100.5 59t99.5 91t91 117 q14 0 28 -4t25.5 -13t19 -22t7.5 -29q0 -26 -15 -60.5t-40 -73t-61 -78.5t-78 -78t-88 -72q-42 -30 -86 -52v-1q0 -110 -21 -195.5t-61 -144.5t-96 -90t-124 -31q-48 0 -86 14t-64 40t-39.5 61t-13.5 78z" />
<glyph unicode="&#xe8;" horiz-adv-x="735" d="M51 328q0 78 19.5 154t53 145t78 129t94.5 103.5t103 68t103 24.5q106 0 162 -52q57 -50 57 -158q0 -64 -20 -121t-65.5 -104.5t-118 -84t-177.5 -60.5q0 -34 4 -61t15 -45t30 -27t49 -9q52 0 110.5 21t116 60t111.5 94t98 121q18 0 33 -6t25 -15.5t15 -21.5t5 -24 q0 -28 -15 -64t-42 -74.5t-65 -79t-82 -78t-94 -70.5t-102 -58t-105 -39t-103 -14q-75 0 -130.5 23t-91.5 67t-53.5 108t-17.5 148zM282 1430q0 33 11.5 63.5t33 54t53.5 38t72 14.5q24 0 41.5 -8.5t28.5 -20.5q6 -56 16 -115.5t22 -117.5t27 -112t31 -98q0 -12 -5 -23 t-14 -19t-23 -12.5t-31 -4.5q-32 0 -65.5 21.5t-66.5 61.5t-65 98q-31 58 -57 132q-3 10 -6 22q-3 14 -3 26zM352 524q43 8 70.5 23t42.5 35t21 42.5t6 45.5q0 32 -12 50t-30 18q-10 0 -25 -13.5t-29 -40t-26 -66.5t-18 -94z" />
<glyph unicode="&#xe9;" horiz-adv-x="735" d="M51 328q0 78 19.5 154t53 145t78 129t94.5 103.5t103 68t103 24.5q106 0 162 -52q57 -50 57 -158q0 -64 -20 -121t-65.5 -104.5t-118 -84t-177.5 -60.5q0 -34 4 -61t15 -45t30 -27t49 -9q52 0 110.5 21t116 60t111.5 94t98 121q18 0 33 -6t25 -15.5t15 -21.5t5 -24 q0 -28 -15 -64t-42 -74.5t-65 -79t-82 -78t-94 -70.5t-102 -58t-105 -39t-103 -14q-75 0 -130.5 23t-91.5 67t-53.5 108t-17.5 148zM352 524q43 8 70.5 23t42.5 35t21 42.5t6 45.5q0 32 -12 50t-30 18q-10 0 -25 -13.5t-29 -40t-26 -66.5t-18 -94zM432 1126q53 76 93.5 138 t67.5 113t41 93t14 80q17 26 42.5 41t59.5 15t60 -10t44 -27t26 -41q9 -24 9 -52q1 -90 -157 -254q-32 -32 -66.5 -59t-68 -47t-63.5 -31.5t-54 -11.5q-22 0 -35 12.5t-13 40.5z" />
<glyph unicode="&#xea;" horiz-adv-x="735" d="M51 328q0 78 19.5 154t53 145t78 129t94.5 103.5t103 68t103 24.5q106 0 162 -52q57 -50 57 -158q0 -64 -20 -121t-65.5 -104.5t-118 -84t-177.5 -60.5q0 -34 4 -61t15 -45t30 -27t49 -9q52 0 110.5 21t116 60t111.5 94t98 121q18 0 33 -6t25 -15.5t15 -21.5t5 -24 q0 -28 -15 -64t-42 -74.5t-65 -79t-82 -78t-94 -70.5t-102 -58t-105 -39t-103 -14q-75 0 -130.5 23t-91.5 67t-53.5 108t-17.5 148zM291 1159q0 24 8.5 55.5t24.5 67.5t38 73.5t49 73t59 67.5t66.5 56t71 38t74.5 14q52 0 85 -19.5t51 -64t24 -117.5t6 -181q0 -16 1 -40 t3 -48q-9 -16 -24.5 -30t-34.5 -25t-42 -18t-47 -7q-48 0 -67 26.5t-19 80.5q0 64 -1 105.5t-4 65.5t-10 33t-17 9q-16 0 -37 -18.5t-45 -55.5t-49 -92.5t-47 -130.5q-10 -4 -20 -6t-22 -2q-15 0 -28.5 5.5t-24 17t-16.5 28t-6 39.5zM352 524q43 8 70.5 23t42.5 35t21 42.5 t6 45.5q0 32 -12 50t-30 18q-10 0 -25 -13.5t-29 -40t-26 -66.5t-18 -94z" />
<glyph unicode="&#xeb;" horiz-adv-x="735" d="M51 328q0 78 19.5 154t53 145t78 129t94.5 103.5t103 68t103 24.5q106 0 162 -52q57 -50 57 -158q0 -64 -20 -121t-65.5 -104.5t-118 -84t-177.5 -60.5q0 -34 4 -61t15 -45t30 -27t49 -9q52 0 110.5 21t116 60t111.5 94t98 121q18 0 33 -6t25 -15.5t15 -21.5t5 -24 q0 -28 -15 -64t-42 -74.5t-65 -79t-82 -78t-94 -70.5t-102 -58t-105 -39t-103 -14q-75 0 -130.5 23t-91.5 67t-53.5 108t-17.5 148zM286 1222q0 58 6 100t18 69t29 40t40 13q30 0 56.5 -14t47 -36t32 -47.5t11.5 -48.5q0 -18 -6 -39t-21 -48t-40 -61t-61 -79q-22 0 -42 9 t-35.5 27.5t-25 47t-9.5 67.5zM352 524q43 8 70.5 23t42.5 35t21 42.5t6 45.5q0 32 -12 50t-30 18q-10 0 -25 -13.5t-29 -40t-26 -66.5t-18 -94zM641 1253q0 62 6.5 105.5t19.5 69.5t31 38q20 12 44 12q20 0 41 -7t40 -18.5t36 -27t29.5 -32.5t20 -34.5t7.5 -33.5 q0 -18 -8 -42.5t-24.5 -55.5t-42.5 -69t-63 -83q-32 0 -57 10.5t-43 33t-27.5 56t-9.5 78.5z" />
<glyph unicode="&#xec;" horiz-adv-x="520" d="M60 140q0 34 4 67t13 69t23 76t33 88q-12 29 -16.5 62.5t-4.5 65.5q0 30 14 66.5t38 74t55.5 72.5t66 62t69.5 43.5t67 16.5q36 0 56 -9.5t30.5 -26.5t13 -41t2.5 -54q0 -20 -6 -45.5t-16 -55t-23 -60.5t-27 -64q-22 -53 -37 -93t-26 -70t-16 -52t-5 -39t8 -24t22 -7 q10 0 32.5 13t55 44t75.5 80.5t95 122.5q14 0 28 -6t25.5 -16t18.5 -23t7 -29q0 -24 -14.5 -57t-39.5 -71t-59 -78.5t-73 -79t-82 -72.5t-86 -60t-84 -41t-76 -15q-45 0 -76 10t-50 30t-27 52t-8 74zM232 1388q0 33 11 64t33 54.5t54 37.5t72 14q24 0 41.5 -8t28.5 -20 q6 -56 15 -115.5t21.5 -117t27 -111.5t32.5 -98q0 -12 -5.5 -23t-15 -19t-22.5 -13t-31 -5q-32 0 -65.5 21t-67 62t-64.5 99t-57 132q-3 10 -5.5 22t-2.5 24z" />
<glyph unicode="&#xed;" horiz-adv-x="520" d="M60 140q0 34 4 67t13 69t23 76t33 88q-12 29 -16.5 62.5t-4.5 65.5q0 30 14 66.5t38 74t55.5 72.5t66 62t69.5 43.5t67 16.5q36 0 56 -9.5t30.5 -26.5t13 -41t2.5 -54q0 -20 -6 -45.5t-16 -55t-23 -60.5t-27 -64q-22 -53 -37 -93t-26 -70t-16 -52t-5 -39t8 -24t22 -7 q10 0 32.5 13t55 44t75.5 80.5t95 122.5q14 0 28 -6t25.5 -16t18.5 -23t7 -29q0 -24 -14.5 -57t-39.5 -71t-59 -78.5t-73 -79t-82 -72.5t-86 -60t-84 -41t-76 -15q-45 0 -76 10t-50 30t-27 52t-8 74zM346 1086q53 76 93.5 138t67.5 113t41 93t14 80q17 26 42.5 40t59.5 14 t60 -9t44 -26t26.5 -41t8.5 -52q1 -90 -157 -254q-32 -32 -66.5 -60t-68 -48t-63.5 -31t-54 -11q-22 0 -35 13t-13 41z" />
<glyph unicode="&#xee;" horiz-adv-x="520" d="M60 140q0 34 4 67t13 69t23 76t33 88q-12 29 -16.5 62.5t-4.5 65.5q0 30 14 66.5t38 74t55.5 72.5t66 62t69.5 43.5t67 16.5q36 0 56 -9.5t30.5 -26.5t13 -41t2.5 -54q0 -20 -6 -45.5t-16 -55t-23 -60.5t-27 -64q-22 -53 -37 -93t-26 -70t-16 -52t-5 -39t8 -24t22 -7 q10 0 32.5 13t55 44t75.5 80.5t95 122.5q14 0 28 -6t25.5 -16t18.5 -23t7 -29q0 -24 -14.5 -57t-39.5 -71t-59 -78.5t-73 -79t-82 -72.5t-86 -60t-84 -41t-76 -15q-45 0 -76 10t-50 30t-27 52t-8 74zM217 1110q0 24 8.5 56t24.5 67.5t38 73t49 73.5t59 67.5t66.5 55t71 37.5 t74.5 14q52 0 85 -19t51 -63.5t24 -117.5q6 -72 6 -180q0 -16 1 -40t3 -48q-9 -16 -24.5 -31t-34.5 -26t-42 -17t-47 -6q-48 0 -67 26t-19 80q0 64 -1 105t-4 65t-10 33.5t-17 9.5q-16 0 -37 -18.5t-45 -55.5t-49 -93t-47 -130q-10 -4 -20 -6t-22 -2q-15 0 -28.5 6t-24 17 t-16.5 28t-6 39z" />
<glyph unicode="&#xef;" horiz-adv-x="520" d="M60 140q0 34 4 67t13 69t23 76t33 88q-12 29 -16.5 62.5t-4.5 65.5q0 30 14 66.5t38 74t55.5 72.5t66 62t69.5 43.5t67 16.5q36 0 56 -9.5t30.5 -26.5t13 -41t2.5 -54q0 -20 -6 -45.5t-16 -55t-23 -60.5t-27 -64q-22 -53 -37 -93t-26 -70t-16 -52t-5 -39t8 -24t22 -7 q10 0 32.5 13t55 44t75.5 80.5t95 122.5q14 0 28 -6t25.5 -16t18.5 -23t7 -29q0 -24 -14.5 -57t-39.5 -71t-59 -78.5t-73 -79t-82 -72.5t-86 -60t-84 -41t-76 -15q-45 0 -76 10t-50 30t-27 52t-8 74zM225 1196q0 58 6 100t17.5 69t29.5 39q18 13 40 13q30 0 56.5 -14 t47 -35.5t32 -47.5t11.5 -48q0 -18 -6.5 -39.5t-21.5 -48.5t-39 -61q-25 -35 -62 -79q-22 0 -42 9t-35 28t-24.5 47.5t-9.5 67.5zM580 1226q0 62 6 105.5t19 70t32 38.5t43 12q20 0 41 -7t40.5 -19t36 -27t29.5 -32t20 -35t7 -34q0 -18 -8 -42.5t-24 -55t-42 -68.5t-64 -84 q-32 0 -57 11t-42.5 33t-27 55.5t-9.5 78.5z" />
<glyph unicode="&#xf0;" horiz-adv-x="856" d="M62 316q0 70 19 138t51 129.5t74 114t87 90.5t91 59t85 21q48 0 71 -24t23 -64q0 -6 -0.5 -12t-1.5 -12q-33 -22 -62 -52.5t-52 -66.5t-41 -75.5t-30.5 -78.5t-19 -76t-6.5 -69q0 -26 4 -43t11.5 -28t19 -15t27.5 -4q22 0 45.5 25t47 70t44.5 106t37.5 133.5t26 153 t9.5 163.5q0 109 -40 189q-34 -22 -67 -41t-59 -33q-16 2 -29 10.5t-22 21t-14.5 28t-5.5 32.5q0 16 3.5 31.5t12 31.5t23 32.5t35.5 33.5q-46 32 -103 51q-56 20 -120 24q-14 12 -20.5 31t-6.5 37q0 36 15.5 71t48 62.5t82.5 44.5t118 17q74 0 143 -28q70 -29 130 -81 q20 20 36 38.5t31 37t28 37t27 39.5q29 0 53.5 -9t42.5 -26t28 -40t10 -50q0 -48 -33 -99.5t-97 -105.5q24 -56 38 -119.5t14 -136.5q0 -159 -26 -298.5t-70 -256.5t-103 -208.5t-124.5 -155t-134.5 -96.5t-134 -33q-62 0 -112 20t-85 61t-54 104t-19 149z" />
<glyph unicode="&#xf1;" horiz-adv-x="968" d="M92 226q0 58 13 121t39 135q-12 29 -16.5 62.5t-4.5 63.5t14 67t37.5 74t55 72t66 62.5t69.5 44t67 16.5q26 0 43 -5t27 -15t14 -26.5t4 -39.5q0 -19 -5 -53.5t-15 -75.5t-26 -85t-36 -81q56 97 110 164t103 108t92 60t76 19q36 0 62.5 -11t44 -30t26 -45t8.5 -56 q0 -41 -13 -96.5t-46 -128.5q-9 -22 -20 -48.5t-22.5 -54.5t-22 -55t-19.5 -51.5t-14 -44.5t-5 -33q0 -17 8 -23.5t22 -6.5q16 0 46 19t70 55.5t86 89.5q46 54 94 122q14 0 29 -5t26 -13.5t18 -21t7 -28.5q0 -24 -15 -57t-42 -71t-63 -78.5t-77 -79t-86 -72.5t-89 -60 t-86 -41q-40 -15 -76 -15q-45 0 -76.5 10t-50.5 30t-27 52t-8 74q0 34 8 72t19 77.5t25 77t25.5 69.5t18.5 56q8 22 8 34q0 24 -24 25q-7 0 -22.5 -6.5t-37.5 -22.5t-49 -44q-27 -26 -57 -68q-11 -59 -18.5 -108t-13.5 -94t-9 -90.5t-6 -97.5q-8 -8 -15 -13t-16 -8t-21.5 -4 t-29.5 -1q-43 0 -79.5 19t-63 51t-42 74t-16.5 88zM372 1147q0 34 12 61.5t39.5 51t72 45t108.5 43.5q59 20 102.5 35.5t75.5 29t55 25.5t40 24.5t30 27t27 32.5q34 -4 60 -18t44 -34t26.5 -45t8.5 -51q0 -45 -19 -79.5t-60 -61.5t-106 -49t-157 -44q-60 -13 -102.5 -23 t-71.5 -20.5t-49 -23.5t-35 -31q-18 0 -35.5 6t-32.5 18t-24 32t-9 49z" />
<glyph unicode="&#xf2;" horiz-adv-x="844" d="M58 282q0 85 17 166t48 152.5t72.5 131t90 103t102.5 67.5t108 24q20 0 41 -5t38.5 -15t28.5 -28q12 -16 12 -42q22 26 47.5 41.5t55.5 15.5q32 0 55.5 -10.5t38.5 -28.5t23 -43t8 -55q0 -24 -3.5 -54t-10 -62t-15 -65.5t-18.5 -67t-21 -65.5q-10 -31 -22 -59q5 -4 15 -9 q9 -6 25 -6q44 0 90 38q46 36 97 118q14 0 28.5 -5t25.5 -15t18.5 -24t7.5 -30q0 -22 -11 -50.5t-31 -59.5t-48.5 -61t-63 -53.5t-74.5 -38.5q-39 -15 -83 -15q-28 0 -47 5t-35 15q-36 -50 -76 -88t-83 -64.5t-90 -40t-101 -13.5t-102 18t-83 55t-55 93t-20 130zM348 358 q0 -38 6 -62.5t17 -39t24 -20.5t27 -6q18 0 35 6.5t32 18t28 26.5t23 33q-8 18 -14 40t-10 47t-6 51t-2 50q0 30 4.5 64t13 70t21.5 71t29 65q-32 -15 -61 -39.5t-54.5 -56.5t-46 -70t-35.5 -79t-23 -84t-8 -85zM399 1382q0 33 11.5 64t33 54.5t53 37.5t72.5 14 q24 0 41.5 -8t28.5 -20q6 -56 15.5 -115.5t21.5 -117t27 -111.5t32 -98q0 -12 -5.5 -23t-14.5 -19t-23 -13q-12 -5 -30 -5q-32 0 -66 21t-67 62t-64 99t-57 132q-3 10 -6 22t-3 24z" />
<glyph unicode="&#xf3;" horiz-adv-x="844" d="M58 282q0 85 17 166t48 152.5t72.5 131t90 103t102.5 67.5t108 24q20 0 41 -5t38.5 -15t28.5 -28q12 -16 12 -42q22 26 47.5 41.5t55.5 15.5q32 0 55.5 -10.5t38.5 -28.5t23 -43t8 -55q0 -24 -3.5 -54t-10 -62t-15 -65.5t-18.5 -67t-21 -65.5q-10 -31 -22 -59q5 -4 15 -9 q9 -6 25 -6q44 0 90 38q46 36 97 118q14 0 28.5 -5t25.5 -15t18.5 -24t7.5 -30q0 -22 -11 -50.5t-31 -59.5t-48.5 -61t-63 -53.5t-74.5 -38.5q-39 -15 -83 -15q-28 0 -47 5t-35 15q-36 -50 -76 -88t-83 -64.5t-90 -40t-101 -13.5t-102 18t-83 55t-55 93t-20 130zM348 358 q0 -38 6 -62.5t17 -39t24 -20.5t27 -6q18 0 35 6.5t32 18t28 26.5t23 33q-8 18 -14 40t-10 47t-6 51t-2 50q0 30 4.5 64t13 70t21.5 71t29 65q-32 -15 -61 -39.5t-54.5 -56.5t-46 -70t-35.5 -79t-23 -84t-8 -85zM553 1080q53 76 93 138t67 113t41 93t14 80q17 26 42.5 40 t59.5 14t60.5 -9t44 -26t26.5 -41t9 -52q0 -90 -158 -254q-32 -32 -66 -60t-67.5 -48t-64 -31t-54.5 -11q-22 0 -34.5 13t-12.5 41z" />
<glyph unicode="&#xf4;" horiz-adv-x="844" d="M58 282q0 85 17 166t48 152.5t72.5 131t90 103t102.5 67.5t108 24q20 0 41 -5t38.5 -15t28.5 -28q12 -16 12 -42q22 26 47.5 41.5t55.5 15.5q32 0 55.5 -10.5t38.5 -28.5t23 -43t8 -55q0 -24 -3.5 -54t-10 -62t-15 -65.5t-18.5 -67t-21 -65.5q-10 -31 -22 -59q5 -4 15 -9 q9 -6 25 -6q44 0 90 38q46 36 97 118q14 0 28.5 -5t25.5 -15t18.5 -24t7.5 -30q0 -22 -11 -50.5t-31 -59.5t-48.5 -61t-63 -53.5t-74.5 -38.5q-39 -15 -83 -15q-28 0 -47 5t-35 15q-36 -50 -76 -88t-83 -64.5t-90 -40t-101 -13.5t-102 18t-83 55t-55 93t-20 130zM346 1126 q0 24 8.5 56t24 68t38 73t50 73t59 68t66 55.5t71.5 37.5t74 14q52 0 84.5 -19.5t50.5 -63.5t24.5 -117t6.5 -181q0 -16 1.5 -40t2.5 -48q-9 -16 -24 -30.5t-35 -25.5t-42 -17.5t-46 -6.5q-48 0 -67 26t-19 80q0 64 -1 105.5t-5 65.5t-10 33.5t-17 9.5q-16 0 -36.5 -19 t-44.5 -56t-49 -93t-49 -130q-10 -4 -20 -6t-20 -2q-15 0 -29 6t-24.5 17t-16.5 28t-6 39zM348 358q0 -38 6 -62.5t17 -39t24 -20.5t27 -6q18 0 35 6.5t32 18t28 26.5t23 33q-8 18 -14 40t-10 47t-6 51t-2 50q0 30 4.5 64t13 70t21.5 71t29 65q-32 -15 -61 -39.5 t-54.5 -56.5t-46 -70t-35.5 -79t-23 -84t-8 -85z" />
<glyph unicode="&#xf5;" horiz-adv-x="844" d="M58 282q0 85 17 166t48 152.5t72.5 131t90 103t102.5 67.5t108 24q20 0 41 -5t38.5 -15t28.5 -28q12 -16 12 -42q22 26 47.5 41.5t55.5 15.5q32 0 55.5 -10.5t38.5 -28.5t23 -43t8 -55q0 -24 -3.5 -54t-10 -62t-15 -65.5t-18.5 -67t-21 -65.5q-10 -31 -22 -59q5 -4 15 -9 q9 -6 25 -6q44 0 90 38q46 36 97 118q14 0 28.5 -5t25.5 -15t18.5 -24t7.5 -30q0 -22 -11 -50.5t-31 -59.5t-48.5 -61t-63 -53.5t-74.5 -38.5q-39 -15 -83 -15q-28 0 -47 5t-35 15q-36 -50 -76 -88t-83 -64.5t-90 -40t-101 -13.5t-102 18t-83 55t-55 93t-20 130zM348 358 q0 -38 6 -62.5t17 -39t24 -20.5t27 -6q18 0 35 6.5t32 18t28 26.5t23 33q-8 18 -14 40t-10 47t-6 51t-2 50q0 30 4.5 64t13 70t21.5 71t29 65q-32 -15 -61 -39.5t-54.5 -56.5t-46 -70t-35.5 -79t-23 -84t-8 -85zM354 1137q0 34 12 61.5t39.5 51t72 45t108.5 43.5 q59 20 102.5 35.5t75.5 29t55 25.5t40 24.5t30 27t27 32.5q34 -4 60 -18t44 -34t26.5 -45t8.5 -51q0 -45 -19 -79.5t-60 -61.5t-106 -49t-157 -44q-60 -13 -102.5 -23t-71.5 -20.5t-49 -23.5t-35 -31q-18 0 -35.5 6t-32.5 18t-24 32t-9 49z" />
<glyph unicode="&#xf6;" horiz-adv-x="844" d="M58 282q0 85 17 166t48 152.5t72.5 131t90 103t102.5 67.5t108 24q20 0 41 -5t38.5 -15t28.5 -28q12 -16 12 -42q22 26 47.5 41.5t55.5 15.5q32 0 55.5 -10.5t38.5 -28.5t23 -43t8 -55q0 -24 -3.5 -54t-10 -62t-15 -65.5t-18.5 -67t-21 -65.5q-10 -31 -22 -59q5 -4 15 -9 q9 -6 25 -6q44 0 90 38q46 36 97 118q14 0 28.5 -5t25.5 -15t18.5 -24t7.5 -30q0 -22 -11 -50.5t-31 -59.5t-48.5 -61t-63 -53.5t-74.5 -38.5q-39 -15 -83 -15q-28 0 -47 5t-35 15q-36 -50 -76 -88t-83 -64.5t-90 -40t-101 -13.5t-102 18t-83 55t-55 93t-20 130zM348 358 q0 -38 6 -62.5t17 -39t24 -20.5t27 -6q18 0 35 6.5t32 18t28 26.5t23 33q-8 18 -14 40t-10 47t-6 51t-2 50q0 30 4.5 64t13 70t21.5 71t29 65q-32 -15 -61 -39.5t-54.5 -56.5t-46 -70t-35.5 -79t-23 -84t-8 -85zM370 1192q0 58 6 100t18 69t29 39.5t40 12.5q30 0 56.5 -14 t47 -35.5t32 -47.5t11.5 -48q0 -18 -6 -39.5t-21 -48.5t-40 -61q-25 -35 -61 -79q-22 0 -42 9t-35.5 28t-25 47.5t-9.5 67.5zM725 1222q0 62 6.5 105.5t19.5 70t31 38.5q20 12 44 12q20 0 41 -7t40 -19t36 -27t29.5 -32t20 -35t7.5 -34q0 -18 -8 -42.5t-24.5 -55 t-42.5 -68.5t-63 -84q-32 0 -57 11t-43 33t-27.5 55.5t-9.5 78.5z" />
<glyph unicode="&#xf7;" horiz-adv-x="1124" d="M82 553h948l2 -139h-948zM438 758q0 24 8 44t27 38q17 17 37 25.5t45 8.5t45 -9t37 -25q17 -17 25 -37.5t8 -44.5q0 -25 -7 -45t-24 -37t-37 -26t-45 -9q-24 0 -44.5 9t-37.5 26q-37 34 -37 82zM444 207q-2 24 6 44.5t27 37.5q17 18 37.5 26.5t44.5 8.5q25 0 45 -8 t37 -25t25 -38t10 -46q0 -49 -33 -82q-17 -18 -37 -26.5t-45 -8.5q-24 0 -44.5 9t-37.5 26q-18 17 -26.5 37t-8.5 45z" />
<glyph unicode="&#xf8;" horiz-adv-x="844" d="M58 282q0 80 15 157t43 146t67 129t85 104t98 72t107 32q20 54 32.5 99t20.5 80t12 60q2 25 4 41q12 5 28 6.5t28 1.5q28 0 50.5 -9.5t38.5 -27t25 -41.5q9 -22 9 -50q0 -50 -25.5 -107t-69.5 -127q20 22 43.5 33.5t49.5 11.5q32 0 55.5 -10.5t38.5 -28.5t23 -43t8 -55 q0 -24 -3.5 -54t-10 -62t-15 -65.5t-18.5 -67t-21 -65.5q-10 -31 -22 -59q5 -4 15 -9q9 -6 25 -6q44 0 90 38q46 36 97 118q14 0 28.5 -5t25.5 -15t18.5 -24t7.5 -30q0 -22 -11 -50.5t-31 -59.5t-48.5 -61t-63 -53.5t-74.5 -38.5q-39 -15 -83 -15q-28 0 -47 5t-35 15 q-69 -94 -148 -146t-176 -58q-14 -42 -24 -79.5t-17 -69t-11 -54.5t-6 -35q-5 -2 -12.5 -4t-15.5 -2.5t-16 -1.5h-12q-24 0 -45 8.5t-36 23t-24 35.5t-9 47q0 35 12 76.5t44 91.5q-26 18 -47 43t-36 57t-23 72q-8 38 -8 86zM348 358q0 -38 6 -62.5t17 -39t24 -20.5t27 -6 q18 0 35 6.5t32 18t28 26.5t23 33q-8 18 -14 40t-10 47t-6 51t-2 50q0 30 4.5 64t13 70t21.5 71t29 65q-32 -15 -61 -39.5t-54.5 -56.5t-46 -70t-35.5 -79t-23 -84t-8 -85z" />
<glyph unicode="&#xf9;" horiz-adv-x="927" d="M47 150q0 23 5.5 55.5t15.5 73.5t25.5 87t35.5 95q-17 32 -22 64t-5 63q0 32 15.5 70.5t41 78t60 77t72 66.5t76.5 46.5t75 17.5q24 0 42.5 -4t31 -14t18.5 -25.5t6 -38.5q0 -50 -39 -140t-118 -218q-16 -56 -24.5 -100t-8.5 -68q0 -25 10 -39.5t31 -14.5q13 0 31 9 t37.5 22t38.5 29q18 17 34 33q26 83 45 153t32 134t20.5 126t11.5 128q16 20 39.5 29t46.5 9q43 0 79 -14t63 -37t42 -53t15 -62q0 -14 -2 -29t-6 -34t-12 -42t-19 -55q-10 -29 -24 -63t-28.5 -69.5t-28.5 -69.5t-24.5 -62.5t-17 -50t-6.5 -31.5q0 -20 8 -26t20 -6 q18 0 45 16t62 48t78 82.5t92 119.5q16 0 31.5 -5t27 -13t18.5 -20t7 -26q0 -28 -17.5 -65t-48.5 -78.5t-71 -85t-84 -81.5q-36 -32 -74 -60t-75.5 -48.5t-73 -32t-68.5 -11.5q-32 0 -56.5 6t-42.5 21t-27 40.5t-9 65.5q0 22 3 48q3 27 9 59q-37 -70 -77.5 -121.5t-82 -85 t-81.5 -49.5q-41 -17 -75 -17q-45 0 -73.5 12.5t-45.5 37.5t-23.5 61t-6.5 82zM342 1409q0 33 11 64t33 54t54 37.5t72 14.5q24 0 41.5 -8.5t28.5 -20.5q6 -56 15.5 -115t22 -117t27 -112t31.5 -98q0 -12 -5 -23t-14.5 -19t-23 -13t-31.5 -5q-32 0 -65 21.5t-66.5 62 t-65 98.5t-57.5 132q-3 10 -5.5 22t-2.5 25z" />
<glyph unicode="&#xfa;" horiz-adv-x="927" d="M47 150q0 23 5.5 55.5t15.5 73.5t25.5 87t35.5 95q-17 32 -22 64t-5 63q0 32 15.5 70.5t41 78t60 77t72 66.5t76.5 46.5t75 17.5q24 0 42.5 -4t31 -14t18.5 -25.5t6 -38.5q0 -50 -39 -140t-118 -218q-16 -56 -24.5 -100t-8.5 -68q0 -25 10 -39.5t31 -14.5q13 0 31 9 t37.5 22t38.5 29q18 17 34 33q26 83 45 153t32 134t20.5 126t11.5 128q16 20 39.5 29t46.5 9q43 0 79 -14t63 -37t42 -53t15 -62q0 -14 -2 -29t-6 -34t-12 -42t-19 -55q-10 -29 -24 -63t-28.5 -69.5t-28.5 -69.5t-24.5 -62.5t-17 -50t-6.5 -31.5q0 -20 8 -26t20 -6 q18 0 45 16t62 48t78 82.5t92 119.5q16 0 31.5 -5t27 -13t18.5 -20t7 -26q0 -28 -17.5 -65t-48.5 -78.5t-71 -85t-84 -81.5q-36 -32 -74 -60t-75.5 -48.5t-73 -32t-68.5 -11.5q-32 0 -56.5 6t-42.5 21t-27 40.5t-9 65.5q0 22 3 48q3 27 9 59q-37 -70 -77.5 -121.5t-82 -85 t-81.5 -49.5q-41 -17 -75 -17q-45 0 -73.5 12.5t-45.5 37.5t-23.5 61t-6.5 82zM514 1106q53 76 93.5 138t67.5 113t40.5 93t13.5 80q17 26 42.5 40.5t59.5 14.5t60.5 -9.5t44 -26.5t26 -41t8.5 -52q0 -90 -157 -254q-32 -32 -66.5 -59.5t-67.5 -47.5t-63.5 -31.5 t-54.5 -11.5q-22 0 -34.5 13t-12.5 41z" />
<glyph unicode="&#xfb;" horiz-adv-x="927" d="M47 150q0 23 5.5 55.5t15.5 73.5t25.5 87t35.5 95q-17 32 -22 64t-5 63q0 32 15.5 70.5t41 78t60 77t72 66.5t76.5 46.5t75 17.5q24 0 42.5 -4t31 -14t18.5 -25.5t6 -38.5q0 -50 -39 -140t-118 -218q-16 -56 -24.5 -100t-8.5 -68q0 -25 10 -39.5t31 -14.5q13 0 31 9 t37.5 22t38.5 29q18 17 34 33q26 83 45 153t32 134t20.5 126t11.5 128q16 20 39.5 29t46.5 9q43 0 79 -14t63 -37t42 -53t15 -62q0 -14 -2 -29t-6 -34t-12 -42t-19 -55q-10 -29 -24 -63t-28.5 -69.5t-28.5 -69.5t-24.5 -62.5t-17 -50t-6.5 -31.5q0 -20 8 -26t20 -6 q18 0 45 16t62 48t78 82.5t92 119.5q16 0 31.5 -5t27 -13t18.5 -20t7 -26q0 -28 -17.5 -65t-48.5 -78.5t-71 -85t-84 -81.5q-36 -32 -74 -60t-75.5 -48.5t-73 -32t-68.5 -11.5q-32 0 -56.5 6t-42.5 21t-27 40.5t-9 65.5q0 22 3 48q3 27 9 59q-37 -70 -77.5 -121.5t-82 -85 t-81.5 -49.5q-41 -17 -75 -17q-45 0 -73.5 12.5t-45.5 37.5t-23.5 61t-6.5 82zM387 1151q0 24 8.5 55.5t24.5 67.5t38 73.5t49 73t59 67.5t66.5 56t71 38t74.5 14q52 0 85 -19.5t51 -64t24 -117.5t6 -181q0 -16 1 -40t3 -48q-9 -16 -24.5 -30t-34.5 -25t-42 -18t-47 -7 q-48 0 -67 26.5t-19 80.5q0 64 -1 105.5t-4 65.5t-10 33t-17 9q-16 0 -37 -18.5t-45 -55.5t-49 -92.5t-47 -130.5q-10 -4 -20 -6t-22 -2q-15 0 -28.5 5.5t-24 17t-16.5 28t-6 39.5z" />
<glyph unicode="&#xfc;" horiz-adv-x="927" d="M47 150q0 23 5.5 55.5t15.5 73.5t25.5 87t35.5 95q-17 32 -22 64t-5 63q0 32 15.5 70.5t41 78t60 77t72 66.5t76.5 46.5t75 17.5q24 0 42.5 -4t31 -14t18.5 -25.5t6 -38.5q0 -50 -39 -140t-118 -218q-16 -56 -24.5 -100t-8.5 -68q0 -25 10 -39.5t31 -14.5q13 0 31 9 t37.5 22t38.5 29q18 17 34 33q26 83 45 153t32 134t20.5 126t11.5 128q16 20 39.5 29t46.5 9q43 0 79 -14t63 -37t42 -53t15 -62q0 -14 -2 -29t-6 -34t-12 -42t-19 -55q-10 -29 -24 -63t-28.5 -69.5t-28.5 -69.5t-24.5 -62.5t-17 -50t-6.5 -31.5q0 -20 8 -26t20 -6 q18 0 45 16t62 48t78 82.5t92 119.5q16 0 31.5 -5t27 -13t18.5 -20t7 -26q0 -28 -17.5 -65t-48.5 -78.5t-71 -85t-84 -81.5q-36 -32 -74 -60t-75.5 -48.5t-73 -32t-68.5 -11.5q-32 0 -56.5 6t-42.5 21t-27 40.5t-9 65.5q0 22 3 48q3 27 9 59q-37 -70 -77.5 -121.5t-82 -85 t-81.5 -49.5q-41 -17 -75 -17q-45 0 -73.5 12.5t-45.5 37.5t-23.5 61t-6.5 82zM376 1218q0 58 6 100t18 69t29 40t40 13q30 0 56.5 -14t47 -36t32 -47.5t11.5 -48.5q0 -18 -6 -39t-21 -48t-40 -61t-61 -79q-22 0 -42 9t-35.5 27.5t-25 47t-9.5 67.5zM731 1249 q0 62 6.5 105.5t19.5 69.5t31 38q20 12 44 12q20 0 41 -7t40 -18.5t36 -27t29.5 -32.5t20 -34.5t7.5 -33.5q0 -18 -8 -42.5t-24.5 -55.5t-42.5 -69t-63 -83q-32 0 -57 10.5t-43 33t-27.5 56t-9.5 78.5z" />
<glyph unicode="&#xfd;" horiz-adv-x="889" d="M62 -379q0 26 8 55t28 62.5t55 72.5t89 83q-4 20 -9 39t-10.5 42.5t-13 51.5t-17 63.5t-21.5 80.5q-11 45 -27 101t-27 100t-18.5 83t-10.5 75q-4 36 -4 78q0 50 14 96t37 85.5t55 71t67 53.5t73 34t74 12q34 0 57.5 -7t38.5 -20t21.5 -33t6.5 -44q-38 -27 -61.5 -53.5 t-37 -56.5t-18.5 -64t-5 -74q0 -39 14 -119.5t45 -195.5q14 14 28.5 30.5t26.5 32t22 29t15 23.5q-2 16 -3 33.5t-1 37.5q0 37 3 78t9 81.5t14.5 79t20.5 70.5q10 32 21.5 54t24.5 36t28.5 20.5t35.5 6.5q22 0 44 -9.5t41.5 -25.5t36 -38t28.5 -45t18 -47t6 -46 q0 -28 -6 -58t-18.5 -65t-33 -73t-48.5 -82q4 -12 12 -23t16.5 -19t18 -13t19.5 -5q24 0 49 14.5t49 38t46 53.5t42 62q14 0 28 -5t25 -15t18 -24t7 -30q0 -30 -14 -63t-38 -64.5t-56 -59.5t-68 -49t-74 -33.5t-76 -12.5q-22 0 -42 3t-39 10t-35 18t-29 27 q-10 -14 -25 -31.5t-31.5 -34t-34.5 -32.5t-32 -30q4 -26 7 -53t5 -52t3 -47t1 -38q0 -54 -11.5 -104.5t-33 -96t-52 -83.5t-68 -65t-81.5 -43t-92 -16q-34 0 -59 9t-41 25.5t-23 38.5t-7 48zM572 1088q53 76 93 138t67 113t40.5 93t13.5 80q17 26 42.5 40t59.5 14t61 -9 t44 -26t26 -41t9 -52q0 -90 -158 -254q-32 -32 -66 -60t-67 -48t-64 -31t-55 -11q-22 0 -34 13t-12 41z" />
<glyph unicode="&#xfe;" horiz-adv-x="952" d="M-6 -344q0 43 25 119.5t81 179.5l42 813q7 132 30.5 242t65.5 189.5t104 124.5q64 44 148 44q36 0 64 -9t48.5 -25t31.5 -36t11 -42q0 -4 -0.5 -11.5t-1.5 -13.5q-40 -30 -70.5 -59t-52.5 -63.5t-38 -78.5t-28 -103.5t-21 -137t-19 -181.5q50 73 98 128t93 91.5t85 55 t72 18.5q38 0 68 -13.5t50.5 -37.5t32 -58t11.5 -75q0 -48 -16.5 -101.5t-46 -111t-71.5 -116.5q-42 -60 -92 -120q17 -11 34.5 -16.5t41.5 -5.5q18 0 50 15t73 47t90 83.5t101 124.5q14 0 28.5 -5t26 -13.5t18.5 -21t7 -28.5q0 -24 -15 -56t-41 -68t-61 -74.5t-76 -75 t-85 -68.5t-87.5 -56t-85 -38t-76.5 -14q-36 0 -63 8.5t-47.5 23t-34.5 34.5t-23 42t-13 45t-4 45q0 18 4 35t13 30t23 23.5t34 16.5q28 54 46 101.5t18 81.5q0 32 -10.5 44t-30.5 12q-10 0 -22.5 -5.5t-29.5 -19t-39 -34.5t-52 -53q-6 -143 -14.5 -269.5t-20 -232.5 t-26.5 -190t-35 -142t-45 -89t-56 -31q-24 0 -49.5 6t-50 18t-46 28.5t-38 37t-26 43.5t-9.5 49z" />
<glyph unicode="&#xff;" horiz-adv-x="889" d="M62 -379q0 26 8 55t28 62.5t55 72.5t89 83q-4 20 -9 39t-10.5 42.5t-13 51.5t-17 63.5t-21.5 80.5q-11 45 -27 101t-27 100t-18.5 83t-10.5 75q-4 36 -4 78q0 50 14 96t37 85.5t55 71t67 53.5t73 34t74 12q34 0 57.5 -7t38.5 -20t21.5 -33t6.5 -44q-38 -27 -61.5 -53.5 t-37 -56.5t-18.5 -64t-5 -74q0 -39 14 -119.5t45 -195.5q14 14 28.5 30.5t26.5 32t22 29t15 23.5q-2 16 -3 33.5t-1 37.5q0 37 3 78t9 81.5t14.5 79t20.5 70.5q10 32 21.5 54t24.5 36t28.5 20.5t35.5 6.5q22 0 44 -9.5t41.5 -25.5t36 -38t28.5 -45t18 -47t6 -46 q0 -28 -6 -58t-18.5 -65t-33 -73t-48.5 -82q4 -12 12 -23t16.5 -19t18 -13t19.5 -5q24 0 49 14.5t49 38t46 53.5t42 62q14 0 28 -5t25 -15t18 -24t7 -30q0 -30 -14 -63t-38 -64.5t-56 -59.5t-68 -49t-74 -33.5t-76 -12.5q-22 0 -42 3t-39 10t-35 18t-29 27 q-10 -14 -25 -31.5t-31.5 -34t-34.5 -32.5t-32 -30q4 -26 7 -53t5 -52t3 -47t1 -38q0 -54 -11.5 -104.5t-33 -96t-52 -83.5t-68 -65t-81.5 -43t-92 -16q-34 0 -59 9t-41 25.5t-23 38.5t-7 48zM383 1216q0 58 6 100t17.5 69t29.5 40t40 13q30 0 56.5 -14t47 -36t32 -47.5 t11.5 -48.5q0 -18 -6.5 -39t-21.5 -48t-39.5 -61t-61.5 -79q-22 0 -42 9t-35 27.5t-24.5 47t-9.5 67.5zM738 1247q0 62 6 105.5t19 69.5t32 38t43 12q20 0 41 -7t40.5 -18.5t36 -27t29.5 -32.5t20 -34.5t7 -33.5q0 -18 -8 -42.5t-24 -55.5t-42 -69t-64 -83q-32 0 -57 10.5 t-42.5 33t-27 56t-9.5 78.5z" />
<glyph unicode="&#x152;" horiz-adv-x="1714" d="M96 412q0 98 16.5 196.5t47 192.5t74 181.5t98 163.5t118 139t135 108t149 69.5t159.5 24.5q42 0 79.5 -8.5t69.5 -24.5t60 -38t49 -50q33 28 70 50.5t76.5 38.5t82 25t86.5 9q72 0 124 -16.5t85.5 -47.5t49.5 -76.5t16 -103.5q0 -76 -21.5 -132.5t-55.5 -93.5t-77 -55 t-86 -18q-34 0 -50.5 11t-22.5 26q20 42 30 82.5t10 81.5q0 29 -4.5 49t-12.5 32t-18.5 18t-23.5 6q-18 0 -37 -12t-36.5 -32t-32.5 -49t-27 -62.5t-18 -71t-6 -77.5q0 -27 2.5 -54.5t7.5 -54.5t11.5 -51t14.5 -44q17 4 37.5 7t41 5t39.5 3q20 1 34 1q30 0 48.5 -4t29.5 -11 t15.5 -16t4.5 -21q0 -44 -16.5 -85t-44 -74t-63.5 -53q-34 -19 -72 -19q-14 0 -32 4t-36 11.5t-36 17.5t-34 22q-20 -22 -37 -48t-29 -53t-19 -53t-7 -48q0 -38 10.5 -69t32 -53t55 -34t78.5 -12q48 0 100.5 14.5t106 40t105 60.5t99 75t87.5 85t70 89q16 0 30 -3t24.5 -11 t17 -20t6.5 -31q0 -24 -16.5 -62t-47 -82.5t-73.5 -93.5t-97 -97t-117 -90.5t-133.5 -75t-147.5 -51.5t-157 -19q-92 0 -164.5 23t-124.5 65q-34 -20 -68.5 -36t-72 -27t-78 -16t-86.5 -5q-98 0 -181.5 32.5t-144 98t-95 162.5t-34.5 225zM463 484q0 -79 13.5 -137 t37.5 -95.5t57 -55.5t72 -18q22 0 44.5 6t45.5 16q-2 12 -2 23.5v22.5q0 54 19.5 112t59 114t99.5 106q59 50 141 90q-22 24 -41 54t-32 66t-21 78q-8 40 -8 86q0 44 9 88t26 88q-17 18 -39 34t-47 27t-52 17t-55 6q-47 0 -89.5 -24.5t-78.5 -70t-66 -111t-50 -146.5 t-32 -176q-11 -94 -11 -200z" />
<glyph unicode="&#x153;" horiz-adv-x="1227" d="M58 282q0 90 19 175t53 159t80 135t100 105t112 68t118 24q43 0 77 -8.5t60.5 -23.5t46.5 -36q20 -20 36 -46q56 56 116 87t118 31q106 0 162 -52q56 -50 56 -158q0 -64 -20 -121t-65 -104.5t-118 -84t-177 -60.5q0 -34 4 -61t15 -45t30 -27t49 -9q52 0 110 21t116 60 t112 94t98 121q18 0 33 -6t25 -15.5t15 -21.5t5 -24q0 -28 -15 -64t-42.5 -74.5t-65 -79t-82 -78t-94.5 -70.5t-102 -58t-104.5 -39t-102.5 -14q-90 0 -150 31t-94 91q-60 -58 -127 -88t-147 -30q-54 0 -102 18t-83 55t-55 93t-20 130zM342 358q0 -38 6.5 -65t18 -44 t26.5 -25.5t33 -8.5q32 0 64 17q30 16 52 42v54q0 34 6 74t16 83t26 85q16 44 36 82q-6 12 -17.5 24t-26 22t-31 16.5t-33.5 6.5q-18 0 -38 -13t-40 -36.5t-38 -57t-31 -74t-21 -86.5t-8 -96zM844 524q43 8 70 23t42.5 35t21 42.5t5.5 45.5q0 32 -11.5 50t-29.5 18 q-10 0 -25 -13.5t-29.5 -40t-26 -66.5t-17.5 -94z" />
<glyph unicode="&#x178;" horiz-adv-x="1487" d="M102 940q0 54 21 108t57.5 104t85.5 96.5t105 86.5t116.5 72.5t119.5 55.5t114 36t100 13q104 0 157 -42q52 -42 52 -126q0 -20 -2 -39t-9 -45t-22 -64t-39.5 -96t-61.5 -140.5t-89 -197.5q-27 -60 -43 -100t-25 -67.5t-11.5 -46t-2.5 -36.5q0 -34 18 -52q17 -18 47 -18 q33 0 69.5 10t73.5 28t72 44t66 60q18 160 36.5 287t38.5 225t42 169t47 116t53 66t62 21q26 0 52 -8.5t49.5 -23t44 -34t35.5 -40.5t23 -42.5t8 -41.5q0 -27 -6.5 -55.5t-20.5 -63.5t-36 -78.5t-53 -99.5q-12 -62 -24 -126.5t-24.5 -126.5t-24 -120t-22.5 -109t-19.5 -92 t-14.5 -69q-11 -46 -24 -96t-25 -90q50 36 95 74t89 83t86.5 98t85.5 117q14 -1 27 -5t23 -12.5t16 -20.5t6 -30q0 -38 -23 -85t-61.5 -98t-89.5 -104t-107.5 -103t-115.5 -95t-113 -79q-22 -46 -49 -90t-59 -83t-69 -72t-78 -56t-86 -36.5t-93 -13.5q-24 0 -50 5.5 t-51 16.5t-48 27t-40.5 36t-28 44t-10.5 52q0 32 25 65t78 73t136 87t197 106q10 26 20 59.5t20 72.5t19 82t19 87q-42 -57 -91 -101.5t-102 -75.5t-108 -48t-109 -17q-59 0 -104.5 19t-77.5 53t-48.5 81t-16.5 103q0 28 3.5 58t11.5 63.5t20 72t28 83.5q-70 2 -132 23.5 t-108.5 60t-74 92t-27.5 119.5zM377 991q0 -26 6.5 -47.5t22.5 -42t42 -40t66 -40.5q33 72 65 132.5t57 111t40 89.5q16 38 16 66q0 26 -9 36t-29 10q-14 0 -40.5 -10.5t-57 -29t-62.5 -43.5t-58 -56t-42.5 -65.5t-16.5 -70.5zM913 1757q0 58 6 100t17.5 68.5t29.5 39.5 t40 13q30 0 56.5 -14t47 -35.5t32 -47t11.5 -49.5q0 -18 -6.5 -39t-21.5 -48t-39.5 -61t-61.5 -78q-22 0 -42 9t-35 27t-24.5 47t-9.5 68zM1268 1788q0 62 6 105t19 69.5t32 38.5t43 12q20 0 41 -7t40.5 -18.5t36 -27.5t29.5 -33t20 -34t7 -33q0 -18 -8 -43t-24 -56t-42 -69 q-26 -36 -64 -82q-32 0 -57 10.5t-42.5 33t-27 56t-9.5 78.5z" />
<glyph unicode="&#x2c6;" horiz-adv-x="819" d="M104 1151q0 24 9 55.5t24.5 67.5t38 73.5t49.5 73t59 67.5t66 56t71 38t75 14q52 0 84.5 -19.5t50.5 -64t24.5 -117.5t6.5 -181q0 -16 1 -40t3 -48q-9 -16 -24.5 -30t-35 -25t-42 -18t-46.5 -7q-48 0 -67 26.5t-19 80.5q0 64 -1 105.5t-4.5 65.5t-10 33t-16.5 9 q-16 0 -37 -18.5t-45 -55.5t-49 -92.5t-48 -130.5q-10 -4 -20 -6t-21 -2q-15 0 -28.5 5.5t-24.5 17t-17 28t-6 39.5z" />
<glyph unicode="&#x2dc;" horiz-adv-x="1024" d="M213 1186q0 34 12 61t39.5 51t71.5 45t108 43q59 20 102.5 36t76 29t55 25t39.5 25t30.5 27t26.5 32q34 -4 60.5 -17t44 -33.5t26.5 -45t9 -51.5q0 -45 -19 -79.5t-60 -62t-106 -49.5t-157 -42q-60 -13 -103 -23.5t-72 -21.5t-49 -23q-18 -12 -34 -30q-18 0 -36 5.5 t-32.5 18t-23.5 32.5t-9 48z" />
<glyph unicode="&#x2000;" horiz-adv-x="1078" />
<glyph unicode="&#x2001;" horiz-adv-x="2156" />
<glyph unicode="&#x2002;" horiz-adv-x="1078" />
<glyph unicode="&#x2003;" horiz-adv-x="2156" />
<glyph unicode="&#x2004;" horiz-adv-x="718" />
<glyph unicode="&#x2005;" horiz-adv-x="539" />
<glyph unicode="&#x2006;" horiz-adv-x="359" />
<glyph unicode="&#x2007;" horiz-adv-x="359" />
<glyph unicode="&#x2008;" horiz-adv-x="269" />
<glyph unicode="&#x2009;" horiz-adv-x="431" />
<glyph unicode="&#x200a;" horiz-adv-x="119" />
<glyph unicode="&#x2010;" horiz-adv-x="946" d="M314 398q0 22 6 38.5t20 31t38.5 27t61.5 25.5q38 13 70 25t60.5 24t54 25.5t51.5 28.5t52 33q26 16 56 38q20 -1 40 -11.5t35 -28t24.5 -40t9.5 -46.5q0 -52 -31.5 -91.5t-96 -69.5t-164 -51.5t-235.5 -37.5q-12 4 -21 11.5t-16 18t-11 23.5t-4 27z" />
<glyph unicode="&#x2011;" horiz-adv-x="946" d="M314 398q0 22 6 38.5t20 31t38.5 27t61.5 25.5q38 13 70 25t60.5 24t54 25.5t51.5 28.5t52 33q26 16 56 38q20 -1 40 -11.5t35 -28t24.5 -40t9.5 -46.5q0 -52 -31.5 -91.5t-96 -69.5t-164 -51.5t-235.5 -37.5q-12 4 -21 11.5t-16 18t-11 23.5t-4 27z" />
<glyph unicode="&#x2012;" horiz-adv-x="946" d="M314 398q0 22 6 38.5t20 31t38.5 27t61.5 25.5q38 13 70 25t60.5 24t54 25.5t51.5 28.5t52 33q26 16 56 38q20 -1 40 -11.5t35 -28t24.5 -40t9.5 -46.5q0 -52 -31.5 -91.5t-96 -69.5t-164 -51.5t-235.5 -37.5q-12 4 -21 11.5t-16 18t-11 23.5t-4 27z" />
<glyph unicode="&#x2013;" horiz-adv-x="1382" d="M334 426q0 23 8 43.5t26 35.5t48 24t74 11q108 4 197 10t162.5 12.5t133 15t107.5 18t86 21t69 24.5q31 -8 47 -31t16 -57q0 -95 -100 -143q-98 -48 -292 -48q-16 0 -45 0.5t-67 1t-81.5 0.5t-88.5 1t-88.5 2t-80.5 2t-66 2t-45 1q-11 10 -15.5 26t-4.5 28z" />
<glyph unicode="&#x2014;" horiz-adv-x="1382" d="M-51 398q0 24 12.5 46t38.5 39t67 28t99 13q106 4 212 10.5t209 15t199 19t184 22t164 23.5t137 23t105 21.5t68 19.5q23 -10 39 -35t16 -63q0 -39 -19.5 -70.5t-58.5 -53.5t-97 -33t-134 -11q-22 0 -44 1t-46 3q-135 -13 -271.5 -24.5t-264.5 -19.5t-245 -13t-213 -5 h-75t-66 2q-8 6 -12 18t-4 24z" />
<glyph unicode="&#x2018;" horiz-adv-x="671" d="M254 975q0 57 17 112.5t46.5 106t67 93.5t79 74t83 49t77.5 18q48 0 72.5 -23t24.5 -61q0 -10 -1.5 -19.5t-4.5 -20.5q-37 -19 -71 -43.5t-61 -51t-43 -52t-16 -45.5q0 -17 5 -33.5t17 -32.5t32 -30t48 -27q10 -17 13.5 -35t3.5 -34q0 -38 -12.5 -70.5t-35.5 -56.5 t-56 -37.5t-74 -13.5q-48 0 -87.5 19t-66.5 51t-42 74t-15 89z" />
<glyph unicode="&#x2019;" horiz-adv-x="671" d="M270 826q0 16 6 38q37 19 71.5 44.5t61 51.5t42.5 51.5t16 45.5q0 17 -5 33.5t-17 32t-31.5 30.5t-49.5 27q-9 17 -12.5 34.5t-3.5 35.5q0 38 13 70t36 56t56 38t73 14q48 0 87.5 -19t67 -51t42.5 -74.5t15 -89.5q0 -57 -18 -112.5t-47 -105.5t-67 -93t-79 -74.5 t-83 -48.5q-42 -18 -78 -18q-48 0 -72 22t-24 62z" />
<glyph unicode="&#x201a;" horiz-adv-x="776" d="M196 -250q0 18 7 39q37 20 71 44.5t60.5 51t42.5 52t16 45.5q0 17 -5 33.5t-17 32.5t-31.5 30t-48.5 26q-10 17 -13.5 35t-3.5 35q0 38 13 70.5t36 56.5t56 37.5t73 13.5q48 0 87.5 -19t67 -51t42.5 -74t15 -89q0 -57 -17.5 -112.5t-47 -106t-67 -93.5t-79 -74t-82.5 -49 t-78 -18q-48 0 -72.5 23t-24.5 61z" />
<glyph unicode="&#x201c;" horiz-adv-x="1212" d="M254 964q0 57 17 112.5t46.5 106t67 93.5t79 74.5t83 49t77.5 17.5q48 0 72.5 -22.5t24.5 -61.5q0 -18 -6 -39q-44 -23 -79.5 -49.5t-60 -53.5t-38 -54t-13.5 -49q0 -17 5 -35t17 -34.5t32 -32.5t48 -28q10 -17 13.5 -34.5t3.5 -34.5q0 -38 -12.5 -70.5t-35.5 -56.5 t-56 -38t-74 -14q-48 0 -87.5 22t-66.5 58t-42 82t-15 92zM794 975q0 57 18 112.5t47 106t67 93.5t79 74t83 49t78 18q48 0 72 -23t24 -61q0 -10 -1.5 -19.5t-4.5 -20.5q-37 -19 -71.5 -43.5t-61 -51t-42.5 -52t-16 -45.5q0 -17 5 -33.5t17 -32.5t31.5 -30t49.5 -27 q9 -17 12.5 -35t3.5 -34q0 -38 -13 -70.5t-36 -56.5t-56 -37.5t-73 -13.5q-48 0 -87.5 19t-67 51t-42.5 74t-15 89z" />
<glyph unicode="&#x201d;" horiz-adv-x="1212" d="M270 826q0 16 6 38q37 19 71.5 44.5t61 51.5t42.5 51.5t16 45.5q0 17 -5 33.5t-17 32t-31.5 30.5t-49.5 27q-9 17 -12.5 34.5t-3.5 35.5q0 38 13 70t36 56t56 38t73 14q48 0 87.5 -19t67 -51t42.5 -74.5t15 -89.5q0 -57 -18 -112.5t-47 -105.5t-67 -93t-79 -74.5 t-83 -48.5q-42 -18 -78 -18q-48 0 -72 22t-24 62zM811 836q0 16 6 38q44 23 79.5 49.5t60 54.5t38 54t13.5 50q0 17 -5 34.5t-17 34.5t-32 32t-49 27q-9 17 -12.5 35t-3.5 35q0 38 12.5 70t35.5 56t56 38t74 14q48 0 87.5 -22t66.5 -58t42 -81.5t15 -92.5q0 -56 -17 -112 t-46.5 -106t-67.5 -93t-79 -74.5t-82.5 -49t-77.5 -17.5q-48 0 -72 22q-25 24 -25 62z" />
<glyph unicode="&#x201e;" horiz-adv-x="1317" d="M196 -250q0 18 7 39q37 20 71 44.5t60.5 51t42.5 52t16 45.5q0 17 -5 33.5t-17 32.5t-31.5 30t-48.5 26q-10 17 -13.5 35t-3.5 35q0 38 13 70.5t36 56.5t56 37.5t73 13.5q48 0 87.5 -19t67 -51t42.5 -74t15 -89q0 -57 -17.5 -112.5t-47 -106t-67 -93.5t-79 -74t-82.5 -49 t-78 -18q-48 0 -72.5 23t-24.5 61zM738 -240q0 18 6 40q44 23 79 49.5t59.5 53.5t38 53.5t13.5 49.5q0 17 -5 34.5t-17 34.5t-32 33q-18 15 -48 27q-10 17 -13.5 35t-3.5 35q0 38 12.5 70.5t35.5 56.5t56 37.5t75 13.5q48 0 87 -22t66 -58t42 -81.5t15 -92.5 q0 -57 -17 -112.5t-46.5 -106t-67 -93.5t-79 -74t-83 -49t-77.5 -18q-48 0 -72 23t-24 61z" />
<glyph unicode="&#x2022;" horiz-adv-x="997" d="M389 473q0 51 11.5 93t36.5 72t64.5 46t96.5 16q69 0 120.5 -15t85 -40t50 -57.5t16.5 -65.5q0 -40 -9 -79t-25 -75t-40 -66.5t-53 -53t-62.5 -35.5t-70.5 -13q-50 0 -90 23t-69.5 60t-45.5 86.5t-16 103.5z" />
<glyph unicode="&#x2026;" horiz-adv-x="2158" d="M297 170q0 38 18 69t48.5 53.5t69.5 35t81 12.5q36 0 62.5 -6.5t44.5 -18t27.5 -28t9.5 -35.5q0 -30 -7 -63t-19.5 -64.5t-30 -60.5t-39 -51t-46.5 -35t-53 -13q-37 0 -67.5 16.5t-52.5 45t-34 66t-12 77.5zM994 170q0 38 11.5 69t34 53.5t55.5 35t75 12.5q44 0 78 -9 t58 -24t36 -35q12 -18 12 -40q0 -30 -7 -61.5t-19 -61t-30 -55.5t-39.5 -46t-46.5 -31.5t-53 -11.5q-36 0 -66.5 16.5t-52.5 45t-34 66t-12 77.5zM1710 129q0 47 21 86t54 66.5t76 43t87 15.5q36 0 59 -6.5t37 -18t20 -28t6 -35.5q0 -30 -6.5 -63t-19 -64.5t-30 -60.5 t-39 -51t-46.5 -35t-53 -13q-37 0 -67.5 10.5t-52.5 31t-34 51t-12 71.5z" />
<glyph unicode="&#x202f;" horiz-adv-x="431" />
<glyph unicode="&#x2039;" horiz-adv-x="1229" d="M402 383q0 30 13 57t37 51t60 44q36 21 80 35q54 39 104 79.5t95.5 83t88 89t82.5 96.5q18 -2 33.5 -12t26 -25t16.5 -33t6 -37q0 -32 -11 -66.5t-40 -75.5t-78 -90t-125 -110q44 -42 75 -78.5t49 -69.5t26 -64t8 -65q0 -35 -12 -67.5t-32 -57.5t-45 -40t-50 -15 q-6 0 -13.5 2t-15.5 4q-6 19 -15 37.5t-22 39.5t-31 45t-43.5 54t-59 67t-77.5 83q-20 -4 -41 -7t-41 -3q-23 0 -35.5 12t-12.5 37z" />
<glyph unicode="&#x203a;" horiz-adv-x="1229" d="M402 114q0 32 11 67t40 75.5t78 89.5q49 48 125 110q-44 42 -75 78.5t-49 69.5t-26 64.5t-8 64.5q0 36 12 68.5t32 57.5t45 40t50 15q6 0 13.5 -2t15.5 -4q6 -19 15 -38t22 -39.5t31 -45t43.5 -54.5t59 -66.5t77.5 -82.5q20 5 40 8q22 2 42 2q23 0 35.5 -12t12.5 -38 q0 -29 -13 -56t-37 -51t-60 -44q-36 -21 -80 -35q-54 -39 -104 -79.5t-95.5 -83t-88 -88.5t-82.5 -97q-18 2 -34 12t-26.5 24.5t-16 33t-5.5 36.5z" />
<glyph unicode="&#x205f;" horiz-adv-x="539" />
<glyph unicode="&#x20ac;" horiz-adv-x="1071" d="M72 450q0 22 11 42t34 36t58 28t83 16q22 68 53.5 129t71 113t85.5 94t95.5 71t102 44t104.5 15t90 -13t62 -34.5t35 -50.5q11 -30 11 -62q0 -36 -16 -65t-44 -51q-18 8 -40 15t-47 13t-53 10q-28 3 -56 3q-26 0 -51 -11.5t-48 -37.5t-42 -67t-33 -101q52 4 93 8t73.5 10 t58 13t46.5 16q10 -6 19 -12.5t15.5 -16t9.5 -22t3 -29.5q0 -34 -20 -63.5t-61 -52.5t-104 -38t-151 -20v-4q0 -44 7.5 -79.5t25 -60t45.5 -38t70 -13.5q36 0 73 13.5t73 36t70.5 52t63.5 62.5q16 -3 28 -11.5t19 -20.5t11 -27.5t4 -32.5q0 -29 -15 -63.5t-42.5 -68.5 t-66.5 -66t-86.5 -56t-103 -39.5t-116.5 -15.5q-82 0 -149 22.5t-114 69t-73 116.5q-25 71 -25 165q0 17 0.5 33.5t1.5 33.5q-38 2 -72.5 4.5t-58.5 6.5q-9 9 -13.5 24.5t-4.5 27.5z" />
<glyph unicode="&#x2122;" horiz-adv-x="1868" d="M318 1227q0 28 10.5 48.5t33.5 35t59 22t87 7.5h202q13 0 34.5 0.5t45 1t44.5 2.5q22 2 36 2q10 -16 16.5 -36t6.5 -40q0 -30 -12 -55t-35.5 -43t-57.5 -28t-78 -10l-79 -495q-16 -10 -35.5 -14.5t-40.5 -4.5q-24 0 -51.5 9t-50 26t-37 44t-14.5 63v16.5t0.5 15.5t1.5 18 q2 12 4 26l74 319l-148 15q-8 9 -12 24.5t-4 30.5zM926 1208q0 69 60 103.5t173 34.5q42 0 69.5 -8t45.5 -23t28.5 -37t16.5 -51l59 -263l136 296q9 20 18.5 36t21.5 27t28 17t38 6q38 0 73.5 -13t63 -34t44.5 -48t17 -55q0 -6 -1 -16t-3 -19l-88 -524q-17 -6 -31.5 -9.5 t-35.5 -3.5q-27 0 -48 9t-36 24t-23 36t-8 45q0 19 1 42.5t4.5 57t9.5 81t16 113.5q-10 -18 -23.5 -44t-28.5 -57t-31.5 -65t-32 -67t-30.5 -62t-26 -51q-8 -4 -16.5 -8t-17.5 -7t-19.5 -4t-24.5 -1q-27 0 -45 6t-31 19t-23 33q-10 19 -18 46q-6 16 -13 47t-15 69t-17 77 t-16 71q0 -10 -2.5 -32t-6.5 -52t-8 -65t-9 -69q-9 -82 -23 -179q-6 -4 -12 -6.5t-13 -3.5t-15 -2t-20 -1q-26 0 -45 10t-33 27t-21 39t-7 48q0 12 0.5 25t3 35t7.5 58q5 34 13 90l35 210l-55 6q-4 6 -7 16t-3 20z" />
<glyph unicode="&#xe000;" horiz-adv-x="1000" d="M0 0v1000h1000v-1000h-1000z" />
<glyph unicode="&#xfb01;" horiz-adv-x="1222" d="M-72 -252q0 18 1.5 36t5 40t9.5 49t17 64t27 86q14 49 36 114q12 36 26 80.5t28 93.5t27.5 98.5t25 96t21.5 88.5t16 74q-58 3 -58 51q0 22 8 43t20 38.5t28 28.5t32 13q6 54 14 115q10 61 16 125q7 71 14.5 122.5t17.5 87t22 57.5t28 34t36.5 16t46.5 4q28 0 55.5 -10 t53.5 -27.5t49 -42t40.5 -53t27 -60t9.5 -63.5q0 -37 -36 -107q-34 -70 -96 -172q41 6 91 13t104.5 13t110.5 11.5t108 9.5t98 6.5t80 2.5q32 0 55.5 -5t39 -17t22.5 -32t7 -53q0 -13 -3 -32t-9 -42t-13.5 -48.5t-16 -51t-17.5 -50.5t-19 -46q-42 -100 -63 -163.5t-21 -90.5 q0 -17 8 -24t22 -7q10 0 35.5 13t62 44t82.5 80.5t98 122.5q14 0 28.5 -6t26 -16t18.5 -23t7 -29q0 -24 -15.5 -57t-42 -71t-62.5 -78.5t-77 -79t-86 -72.5t-89 -60t-86 -41t-77 -15q-43 0 -73.5 10t-50 31t-28.5 52t-9 73q0 43 8 89q8 47 24 99q22 72 48 158t54 190 q2 6 3 12t1 8q0 6 -1.5 10t-7 6t-14.5 3.5t-23 1.5t-37 -1.5t-50.5 -3t-58 -4t-60.5 -5.5t-57 -6.5t-49 -6.5q37 -18 66.5 -49.5t49.5 -73t31 -90.5t11 -102q0 -69 -12.5 -140.5t-35 -141t-54.5 -135.5t-70 -124t-83 -106.5t-93 -83.5t-98 -54.5t-101 -19.5 q-104 0 -154.5 47t-50.5 131zM238 -142q0 -10 6 -15t16 -5q17 0 39.5 21t46 58t46 86t41 104t29.5 113t11 114q0 72 -16.5 123.5t-44.5 74.5q-11 -71 -25.5 -139.5t-30.5 -132.5t-32.5 -121.5t-31.5 -106.5t-28.5 -88.5t-21.5 -66.5q-2 -4 -3 -9.5t-1 -9.5zM1057 1218 q0 62 6.5 105.5t19 70t31 38.5t43.5 12q20 0 41 -7t40.5 -19t36.5 -27t29 -32.5t19.5 -35t7.5 -33.5q0 -18 -7.5 -42.5t-24 -55.5t-42.5 -68.5t-63 -83.5q-30 0 -55 11.5t-43 34t-28.5 55.5t-10.5 77z" />
<glyph unicode="&#xfb02;" horiz-adv-x="1247" d="M-72 -252q0 20 1.5 38.5t6 43t12.5 56.5t22 78t34 109t49 148q18 54 35.5 113.5t32.5 118.5t27.5 115t21.5 104q-13 4 -23.5 9t-17.5 12t-11 16t-4 22q0 22 8 43.5t20 38.5t28 28t33 13q6 54 12 109q7 55 13 119q7 71 14.5 122.5t17.5 87t22 57.5t28 34t36.5 16t46.5 4 q28 0 55.5 -10t53.5 -27.5t49 -42t40.5 -53t27 -60t9.5 -63.5q0 -20 -10 -52.5t-30.5 -76t-50 -98t-68.5 -117.5q32 -13 64.5 -22.5t63.5 -15.5t59 -8.5t52 -2.5h36t29 1t25 3t26 4q3 36 5 75t4.5 78t5.5 75t7 67q9 69 28.5 128.5t47.5 109t62 87.5t72 64t79 39.5t81 13.5 q122 0 185 -67.5t63 -207.5q0 -66 -24 -134t-70 -137t-113 -137t-151 -132q-7 -66 -19.5 -128.5t-25.5 -115t-22 -90.5t-9 -57q0 -17 7.5 -24t21.5 -7q22 0 60.5 17t84 50t93 81t87.5 110q14 0 28.5 -5t25.5 -14t17.5 -22t6.5 -29q0 -29 -16 -64.5t-45 -74.5t-67.5 -79.5 t-83 -78t-93.5 -70.5t-97 -57t-93 -38t-85 -14q-45 0 -75.5 10t-49.5 30t-27 52q-9 32 -9 74q0 43 9 96.5t21.5 112.5t25.5 119t21 118q-17 -4 -39.5 -6t-52.5 -2q-42 0 -81 4.5t-70 15.5q23 -22 40 -56t28 -76t16.5 -91t5.5 -103q0 -88 -21.5 -174t-59.5 -164t-88 -145 t-107 -115.5t-117 -76t-119 -27.5q-104 0 -154.5 47t-50.5 131zM238 -142q0 -10 6 -15t16 -5q14 0 33 16.5t39 45t39 68.5t34 86t24 96.5t9 101.5q0 72 -9 127t-29 92q-8 -52 -22 -111t-29 -118.5t-31 -116.5t-30.5 -105t-26.5 -86q-11 -37 -19 -57q-2 -4 -3 -9.5t-1 -9.5z M1110 891q34 28 59 60.5t42 67.5t24.5 68t7.5 62q0 26 -4.5 49.5t-12.5 40.5t-22 27q-12 10 -30 10q-13 0 -22 -8.5t-14.5 -25t-9.5 -40.5q-4 -23 -6 -53q-1 -14 -2 -32.5t-2 -39.5t-2 -43t-2 -42q-2 -48 -4 -101z" />
</font>
</defs>
</svg>
